{
copyright = "Copyright (c) 2022 by Thanos Poulakidas. All rights reserved.";
familyName = "Geom ";
customParameters = (
{
name = glyphOrder;
value = (
.notdef,
null,
nonmarkingreturn,
space,
exclam,
quotedbl,
numbersign,
dollar,
percent,
ampersand,
quotesingle,
parenleft,
parenright,
asterisk,
plus,
comma,
hyphen,
period,
slash,
zero,
one,
two,
three,
four,
five,
six,
seven,
eight,
nine,
colon,
semicolon,
less,
equal,
greater,
question,
at,
A,
B,
C,
D,
E,
F,
G,
H,
J,
K,
L,
M,
N,
O,
P,
Q,
R,
S,
T,
U,
V,
W,
X,
Y,
Z,
bracketleft,
backslash,
bracketright,
asciicircum,
underscore,
grave,
a,
b,
c,
d,
e,
f,
g,
h,
i,
j,
k,
l,
m,
n,
o,
p,
q,
r,
s,
t,
u,
v,
w,
x,
y,
z,
braceleft,
bar,
braceright,
asciitilde,
uni00A0,
exclamdown,
cent,
sterling,
currency,
yen,
brokenbar,
section,
dieresis,
copyright,
ordfeminine,
guillemotleft,
logicalnot,
uni00AD,
registered,
degree,
plusminus,
twosuperior,
threesuperior,
acute,
uni00B5,
paragraph,
periodcentered,
cedilla,
onesuperior,
ordmasculine,
guillemotright,
onequarter,
onehalf,
threequarters,
questiondown,
Agrave,
Aacute,
Acircumflex,
Atilde,
Adieresis,
Aring,
AE,
Ccedilla,
Egrave,
Eacute,
Ecircumflex,
Edieresis,
Eth,
Ntilde,
Ograve,
Oacute,
Ocircumflex,
Otilde,
Odieresis,
multiply,
Oslash,
Ugrave,
Uacute,
Ucircumflex,
Udieresis,
Yacute,
Thorn,
germandbls,
agrave,
aacute,
acircumflex,
atilde,
adieresis,
aring,
ae,
ccedilla,
egrave,
eacute,
ecircumflex,
edieresis,
igrave,
iacute,
icircumflex,
idieresis,
eth,
ntilde,
ograve,
oacute,
ocircumflex,
otilde,
odieresis,
divide,
oslash,
ugrave,
uacute,
ucircumflex,
udieresis,
yacute,
thorn,
ydieresis,
Amacron,
amacron,
Abreve,
abreve,
Aogonek,
aogonek,
Cacute,
cacute,
Ccircumflex,
ccircumflex,
Cdotaccent,
cdotaccent,
Ccaron,
ccaron,
Dcaron,
dcaron,
Dcroat,
dcroat,
Emacron,
emacron,
Ebreve,
ebreve,
Edotaccent,
edotaccent,
Eogonek,
eogonek,
Ecaron,
ecaron,
Gcircumflex,
gcircumflex,
Gbreve,
gbreve,
Gdotaccent,
gdotaccent,
uni0122,
uni0123,
Hcircumflex,
hcircumflex,
itilde,
imacron,
ibreve,

glyphs = (
{
glyphname = .notdef;
layers = (
{
hints = (
{
horizontal = 1;
place = "{0, 57}";
type = Stem;
},
{
horizontal = 1;
place = "{663, 57}";
type = Stem;
},
{
place = "{10, 67}";
type = Stem;
},
{
place = "{470, 66}";
type = Stem;
}
);
layerId = "1430537E-70AD-4C42-AE0B-37D64AC877DB";
paths = (
{
closed = 1;
nodes = (
"10 0 LINE",
"536 0 LINE",
"536 720 LINE",
"10 720 LINE"
);
},
{
closed = 1;
nodes = (
"273 420 LINE",
"109 663 LINE",
"437 663 LINE"
);
},
{
closed = 1;
nodes = (
"77 598 LINE",
"235 360 LINE",
"77 125 LINE"
);
},
{
closed = 1;
nodes = (
"311 360 LINE",
"470 597 LINE",
"470 125 LINE"
);
},
{
closed = 1;
nodes = (
"109 57 LINE",
"273 302 LINE",
"437 57 LINE"
);
}
);
width = 543;
}
);
},
{
glyphname = exclam;
layers = (
{
hints = (
{
place = "{77, 151}";
type = Stem;
},
{
place = "{85, 134}";
type = Stem;
},
{
horizontal = 1;
place = "{-11, 144}";
type = Stem;
},
{
horizontal = 1;
place = "{703, -20}";
target = down;
type = TopGhost;
}
);
layerId = "1430537E-70AD-4C42-AE0B-37D64AC877DB";
paths = (
{
closed = 1;
nodes = (
"84 703 LINE",
"86 619 LINE",
"118 211 LINE",
"188 211 LINE",
"218 619 LINE",
"221 703 LINE"
);
},
{
closed = 1;
nodes = (
"77 16 OFFCURVE",
"111 -11 OFFCURVE",
"153 -11 CURVE SMOOTH",
"195 -11 OFFCURVE",
"228 16 OFFCURVE",
"228 61 CURVE SMOOTH",
"228 103 OFFCURVE",
"195 133 OFFCURVE",
"153 133 CURVE SMOOTH",
"111 133 OFFCURVE",
"77 103 OFFCURVE",
"77 61 CURVE SMOOTH"
);
}
);
width = 307;
}
);
unicode = 0021;
},
{
glyphname = quotedbl;
layers = (
{
hints = (
{
place = "{77, 359}";
type = Stem;
},
{
horizontal = 1;
place = "{409, 296}";
type = Stem;
},
{
horizontal = 1;
place = "{705, -20}";
target = down;
type = TopGhost;
}
);
layerId = "1430537E-70AD-4C42-AE0B-37D64AC877DB";
paths = (
{
closed = 1;
nodes = (
"147 409 LINE",
"223 669 LINE",
"231 705 LINE",
"102 705 LINE",
"77 409 LINE"
);
},
{
closed = 1;
nodes = (
"282 409 LINE",
"352 409 LINE",
"428 669 LINE",
"436 705 LINE",
"307 705 LINE"
);
}
);
width = 511;
}
);
unicode = 0022;
},
{
glyphname = numbersign;
layers = (
{
hints = (
{
horizontal = 1;
place = "{0, 21}";
target = up;
type = BottomGhost;
},
{
horizontal = 1;
place = "{174, 101}";
type = Stem;
},
{
horizontal = 1;
place = "{435, 100}";
type = Stem;
},
{
horizontal = 1;
place = "{704, -20}";
target = down;
type = TopGhost;
},
{
place = "{26, 591}";
type = Stem;
}
);
layerId = "1430537E-70AD-4C42-AE0B-37D64AC877DB";
paths = (
{
closed = 1;
nodes = (
"95 0 LINE",
"192 0 LINE",
"219 174 LINE",
"370 174 LINE",
"343 0 LINE",
"440 0 LINE",
"467 174 LINE",
"584 174 LINE",
"584 276 LINE",
"483 276 LINE",
"509 433 LINE",
"617 433 LINE",
"617 535 LINE",
"525 535 LINE",
"550 704 LINE",
"454 704 LINE",
"428 535 LINE",
"277 535 LINE",
"303 704 LINE",
"207 704 LINE",
"180 535 LINE",
"59 535 LINE",
"59 433 LINE",
"164 433 LINE",
"139 276 LINE",
"26 276 LINE",
"26 175 LINE",
"122 175 LINE"
);
},
{
closed = 1;
nodes = (
"413 435 LINE",
"387 275 LINE",
"234 275 LINE",
"259 435 LINE"
);
}
);
width = 643;
}
);
unicode = 0023;
},
{
glyphname = dollar;
layers = (
{
hints = (
{
place = "{54, 113}";
type = Stem;
},
{
place = "{264, 75}";
type = Stem;
},
{
place = "{440, 112}";
type = Stem;
},
{
horizontal = 1;
place = "{-2, 94}";
type = Stem;
},
{
horizontal = 1;
place = "{610, 161}";
type = Stem;
},
{
horizontal = 1;
place = "{707, -20}";
target = down;
type = TopGhost;
}
);
layerId = "1430537E-70AD-4C42-AE0B-37D64AC877DB";
paths = (
{
closed = 1;
nodes = (
"262 -96 LINE",
"340 -96 LINE",
"340 -3 LINE",
"464 10 OFFCURVE",
"552 87 OFFCURVE",
"552 199 CURVE SMOOTH",
"552 300 OFFCURVE",
"484 358 OFFCURVE",
"338 403 CURVE",
"338 610 LINE",
"385 604 OFFCURVE",
"426 581 OFFCURVE",
"453 545 CURVE",
"519 616 LINE",
"484 659 OFFCURVE",
"427 698 OFFCURVE",
"341 707 CURVE",
"341 771 LINE",
"263 771 LINE",
"263 707 LINE",
"139 696 OFFCURVE",
"54 621 OFFCURVE",
"54 513 CURVE SMOOTH",
"54 404 OFFCURVE",
"131 346 OFFCURVE",
"264 305 CURVE",
"264 92 LINE",
"195 97 OFFCURVE",
"137 133 OFFCURVE",
"96 179 CURVE",
"27 104 LINE",
"86 41 OFFCURVE",
"168 -2 OFFCURVE",
"262 -2 CURVE"
);
},
{
closed = 1;
nodes = (
"167 571 OFFCURVE",
"199 605 OFFCURVE",
"264 612 CURVE",
"264 424 LINE",
"201 449 OFFCURVE",
"167 476 OFFCURVE",
"167 524 CURVE SMOOTH"
);
},
{
closed = 1;
nodes = (
"440 139 OFFCURVE",
"408 102 OFFCURVE",
"339 93 CURVE",
"339 287 LINE",
"422 260 OFFCURVE",
"440 220 OFFCURVE",
"440 186 CURVE SMOOTH"
);
}
);
width = 591;
}
);
unicode = 0024;
},
{
glyphname = percent;
layers = (
{
hints = (
{
place = "{42, 85}";
type = Stem;
},
{
place = "{298, 85}";
type = Stem;
},
{
place = "{478, 85}";
type = Stem;
},
{
place = "{733, 85}";
type = Stem;
},
{
horizontal = 1;
place = "{-11, 77}";
type = Stem;
},
{
horizontal = 1;
place = "{-3, 21}";
target = up;
type = BottomGhost;
},
{
horizontal = 1;
place = "{278, 76}";
type = Stem;
},
{
horizontal = 1;
place = "{352, 76}";
type = Stem;
},
{
horizontal = 1;
place = "{642, 77}";
type = Stem;
},
{
horizontal = 1;
place = "{715, -20}";
target = down;
type = TopGhost;
}
);
layerId = "1430537E-70AD-4C42-AE0B-37D64AC877DB";
paths = (
{
closed = 1;
nodes = (
"383 637 OFFCURVE",
"316 719 OFFCURVE",
"213 719 CURVE SMOOTH",
"113 719 OFFCURVE",
"42 637 OFFCURVE",
"42 536 CURVE SMOOTH",
"42 434 OFFCURVE",
"111 352 OFFCURVE",
"212 352 CURVE SMOOTH",
"314 352 OFFCURVE",
"383 435 OFFCURVE",
"383 537 CURVE SMOOTH"
);
},
{
closed = 1;
nodes = (
"723 706 LINE",
"634 715 LINE",
"133 -3 LINE",
"222 -13 LINE"
);
},
{
closed = 1;
nodes = (
"298 473 OFFCURVE",
"267 428 OFFCURVE",
"213 428 CURVE SMOOTH",
"162 428 OFFCURVE",
"127 473 OFFCURVE",
"127 536 CURVE SMOOTH",
"127 597 OFFCURVE",
"160 642 OFFCURVE",
"212 642 CURVE SMOOTH",
"261 642 OFFCURVE",
"298 599 OFFCURVE",
"298 533 CURVE SMOOTH"
);
},
{
closed = 1;
nodes = (
"818 274 OFFCURVE",
"750 354 OFFCURVE",
"648 354 CURVE SMOOTH",
"549 354 OFFCURVE",
"478 273 OFFCURVE",
"478 172 CURVE SMOOTH",
"478 72 OFFCURVE",
"545 -11 OFFCURVE",
"647 -11 CURVE SMOOTH",
"749 -11 OFFCURVE",
"818 72 OFFCURVE",
"818 173 CURVE SMOOTH"
);
},
{
closed = 1;
nodes = (
"733 112 OFFCURVE",
"701 66 OFFCURVE",
"648 66 CURVE SMOOTH",
"600 66 OFFCURVE",
"563 107 OFFCURVE",
"563 172 CURVE SMOOTH",
"563 235 OFFCURVE",
"595 278 OFFCURVE",
"647 278 CURVE SMOOTH",
"698 278 OFFCURVE",
"733 235 OFFCURVE",
"733 172 CURVE SMOOTH"
);
}
);
width = 860;
}
);
unicode = 0025;
},
{
glyphname = ampersand;
layers = (
{
hints = (
{
place = "{51, 122}";
type = Stem;
},
{
place = "{150, 108}";
type = Stem;
},
{
place = "{417, 105}";
type = Stem;
},
{
horizontal = 1;
place = "{-11, 93}";
type = Stem;
},
{
horizontal = 1;
place = "{-5, 21}";
target = up;
type = BottomGhost;
},
{
horizontal = 1;
place = "{629, 90}";
type = Stem;
}
);
layerId = "1430537E-70AD-4C42-AE0B-37D64AC877DB";
paths = (
{
closed = 1;
nodes = (
"578 376 LINE",
"555 325 OFFCURVE",
"530 281 OFFCURVE",
"500 236 CURVE",
"372 377 LINE",
"461 416 OFFCURVE",
"522 470 OFFCURVE",
"522 558 CURVE SMOOTH",
"522 648 OFFCURVE",
"449 719 OFFCURVE",
"339 719 CURVE SMOOTH",
"228 719 OFFCURVE",
"150 647 OFFCURVE",
"150 550 CURVE SMOOTH",
"150 497 OFFCURVE",
"173 450 OFFCURVE",
"211 400 CURVE",
"108 359 OFFCURVE",
"51 291 OFFCURVE",
"51 192 CURVE SMOOTH",
"51 66 OFFCURVE",
"151 -11 OFFCURVE",
"282 -11 CURVE SMOOTH",
"368 -11 OFFCURVE",
"435 23 OFFCURVE",
"495 80 CURVE",
"577 -5 LINE",
"697 19 LINE",
"566 163 LINE",
"604 217 OFFCURVE",
"640 283 OFFCURVE",
"671 345 CURVE"
);
},
{
closed = 1;
nodes = (
"383 629 OFFCURVE",
"417 599 OFFCURVE",
"417 552 CURVE SMOOTH",
"417 504 OFFCURVE",
"375 464 OFFCURVE",
"313 439 CURVE",
"279 481 OFFCURVE",
"258 514 OFFCURVE",
"258 549 CURVE SMOOTH",
"258 597 OFFCURVE",
"292 629 OFFCURVE",
"339 629 CURVE SMOOTH"
);
},
{
closed = 1;
nodes = (
"430 154 LINE",
"393 112 OFFCURVE",
"348 82 OFFCURVE",
"294 82 CURVE SMOOTH",
"222 82 OFFCURVE",
"173 132 OFFCURVE",
"173 197 CURVE SMOOTH",
"173 256 OFFCURVE",
"208 297 OFFCURVE",
"273 327 CURVE"
);
}
);
width = 705;
}
);
unicode = 0026;
},
{
glyphname = quotesingle;
layers = (
{
hints = (
{
horizontal = 1;
place = "{705, -20}";
target = down;
type = TopGhost;
},
{
place = "{77, 155}";
type = Stem;
}
);
layerId = "1430537E-70AD-4C42-AE0B-37D64AC877DB";
paths = (
{
closed = 1;
nodes = (
"77 409 LINE",
"148 409 LINE",
"224 669 LINE",
"232 705 LINE",
"101 705 LINE"
);
}
);
width = 309;
}
);
unicode = 0027;
},
{
glyphname = parenleft;
layers = (
{
hints = (
{
horizontal = 1;
place = "{-153, 880}";
type = Stem;
},
{
place = "{74, 117}";
type = Stem;
}
);
layerId = "1430537E-70AD-4C42-AE0B-37D64AC877DB";
paths = (
{
closed = 1;
nodes = (
"191 435 OFFCURVE",
"251 546 OFFCURVE",
"377 656 CURVE",
"316 727 LINE",
"163 610 OFFCURVE",
"74 473 OFFCURVE",
"74 285 CURVE SMOOTH",
"74 95 OFFCURVE",
"164 -47 OFFCURVE",
"316 -153 CURVE",
"376 -84 LINE",
"250 27 OFFCURVE",
"191 137 OFFCURVE",
"191 285 CURVE SMOOTH"
);
}
);
width = 422;
}
);
unicode = 0028;
},
{
glyphname = parenright;
layers = (
{
hints = (
{
horizontal = 1;
place = "{-153, 880}";
type = Stem;
},
{
place = "{233, 117}";
type = Stem;
}
);
layerId = "1430537E-70AD-4C42-AE0B-37D64AC877DB";
paths = (
{
closed = 1;
nodes = (
"233 139 OFFCURVE",
"176 27 OFFCURVE",
"46 -84 CURVE",
"108 -153 LINE",
"261 -42 OFFCURVE",
"350 97 OFFCURVE",
"350 285 CURVE SMOOTH",
"350 471 OFFCURVE",
"263 608 OFFCURVE",
"107 727 CURVE",
"45 656 LINE",
"177 546 OFFCURVE",
"233 432 OFFCURVE",
"233 285 CURVE SMOOTH"
);
}
);
width = 423;
}
);
unicode = 0029;
},
{
glyphname = asterisk;
layers = (
{
hints = (
{
horizontal = 1;
place = "{407, 313}";
type = Stem;
},
{
place = "{154, 68}";
type = Stem;
}
);
layerId = "1430537E-70AD-4C42-AE0B-37D64AC877DB";
paths = (
{
closed = 1;
nodes = (
"133 590 LINE",
"25 552 LINE",
"46 488 LINE",
"154 525 LINE",
"154 407 LINE",
"222 407 LINE",
"222 524 LINE",
"329 488 LINE",
"350 552 LINE",
"244 589 LINE",
"310 683 LINE",
"255 720 LINE",
"188 630 LINE",
"121 720 LINE",
"65 681 LINE"
);
}
);
width = 374;
}
);
unicode = 002A;
},
{
glyphname = plus;
layers = (
{
hints = (
{
horizontal = 1;
place = "{295, 105}";
type = Stem;
},
{
place = "{252, 109}";
type = Stem;
}
);
layerId = "1430537E-70AD-4C42-AE0B-37D64AC877DB";
paths = (
{
closed = 1;
nodes = (
"361 595 LINE",
"252 595 LINE",
"252 400 LINE",
"58 400 LINE",
"58 295 LINE",
"252 295 LINE",
"252 99 LINE",
"361 99 LINE",
"361 295 LINE",
"556 295 LINE",
"556 400 LINE",
"361 400 LINE"
);
}
);
width = 615;
}
);
unicode = 002B;
},
{
glyphname = comma;
layers = (
{
hints = (
{
horizontal = 1;
place = "{-147, 293}";
type = Stem;
},
{
place = "{26, 173}";
type = Stem;
}
);
layerId = "1430537E-70AD-4C42-AE0B-37D64AC877DB";
paths = (
{
closed = 1;
nodes = (
"199 146 LINE",
"76 146 LINE",
"26 -147 LINE",
"115 -147 LINE"
);
}
);
width = 261;
}
);
unicode = 002C;
},
{
glyphname = hyphen;
layers = (
{
hints = (
{
horizontal = 1;
place = "{219, 107}";
type = Stem;
},
{
place = "{28, 290}";
type = Stem;
}
);
layerId = "1430537E-70AD-4C42-AE0B-37D64AC877DB";
paths = (
{
closed = 1;
nodes = (
"318 326 LINE",
"28 326 LINE",
"28 219 LINE",
"318 219 LINE"
);
}
);
width = 346;
}
);
unicode = 002D;
},
{
glyphname = period;
layers = (
{
hints = (
{
horizontal = 1;
place = "{-11, 153}";
type = Stem;
},
{
place = "{77, 154}";
type = Stem;
}
);
layerId = "1430537E-70AD-4C42-AE0B-37D64AC877DB";
paths = (
{
closed = 1;
nodes = (
"77 20 OFFCURVE",
"111 -11 OFFCURVE",
"154 -11 CURVE SMOOTH",
"197 -11 OFFCURVE",
"231 20 OFFCURVE",
"231 66 CURVE SMOOTH",
"231 112 OFFCURVE",
"197 142 OFFCURVE",
"154 142 CURVE SMOOTH",
"111 142 OFFCURVE",
"77 112 OFFCURVE",
"77 66 CURVE SMOOTH"
);
}
);
width = 310;
}
);
unicode = 002E;
},
{
glyphname = slash;
layers = (
{
hints = (
{
horizontal = 1;
place = "{-103, 891}";
type = Stem;
},
{
place = "{1, 531}";
type = Stem;
}
);
layerId = "1430537E-70AD-4C42-AE0B-37D64AC877DB";
paths = (
{
closed = 1;
nodes = (
"532 778 LINE",
"435 788 LINE",
"1 -94 LINE",
"98 -103 LINE"
);
}
);
width = 533;
}
);
unicode = 002F;
},
{
glyphname = zero;
layers = (
{
hints = (
{
horizontal = 1;
place = "{-14, 108}";
type = Stem;
},
{
horizontal = 1;
place = "{609, 108}";
type = Stem;
},
{
place = "{42, 123}";
type = Stem;
},
{
place = "{490, 123}";
type = Stem;
}
);
layerId = "1430537E-70AD-4C42-AE0B-37D64AC877DB";
paths = (
{
closed = 1;
nodes = (
"145 717 OFFCURVE",
"42 561 OFFCURVE",
"42 353 CURVE SMOOTH",
"42 137 OFFCURVE",
"144 -14 OFFCURVE",
"326 -14 CURVE SMOOTH",
"510 -14 OFFCURVE",
"613 144 OFFCURVE",
"613 352 CURVE SMOOTH",
"613 564 OFFCURVE",
"509 717 OFFCURVE",
"328 717 CURVE SMOOTH"
);
},
{
closed = 1;
nodes = (
"429 609 OFFCURVE",
"490 503 OFFCURVE",
"490 351 CURVE SMOOTH",
"490 202 OFFCURVE",
"430 94 OFFCURVE",
"328 94 CURVE SMOOTH",
"225 94 OFFCURVE",
"165 199 OFFCURVE",
"165 355 CURVE SMOOTH",
"165 503 OFFCURVE",
"225 609 OFFCURVE",
"326 609 CURVE SMOOTH"
);
}
);
width = 654;
}
);
unicode = 0030;
},
{
glyphname = one;
layers = (
{
hints = (
{
horizontal = 1;
place = "{0, 21}";
target = up;
type = BottomGhost;
},
{
horizontal = 1;
place = "{595, 112}";
type = Stem;
},
{
place = "{134, 119}";
type = Stem;
}
);
layerId = "1430537E-70AD-4C42-AE0B-37D64AC877DB";
paths = (
{
closed = 1;
nodes = (
"253 707 LINE",
"10 707 LINE",
"10 595 LINE",
"134 595 LINE",
"134 0 LINE",
"253 0 LINE"
);
}
);
width = 351;
}
);
unicode = 0031;
},
{
glyphname = two;
layers = (
{
hints = (
{
horizontal = 1;
place = "{0, 103}";
type = Stem;
},
{
horizontal = 1;
place = "{609, 107}";
type = Stem;
},
{
place = "{390, 124}";
type = Stem;
}
);
layerId = "1430537E-70AD-4C42-AE0B-37D64AC877DB";
paths = (
{
closed = 1;
nodes = (
"146 716 OFFCURVE",
"49 644 OFFCURVE",
"33 493 CURVE",
"154 493 LINE",
"162 565 OFFCURVE",
"210 609 OFFCURVE",
"281 609 CURVE SMOOTH",
"358 609 OFFCURVE",
"390 565 OFFCURVE",
"390 515 CURVE SMOOTH",
"390 466 OFFCURVE",
"359 406 OFFCURVE",
"286 316 CURVE",
"23 0 LINE",
"526 0 LINE",
"526 103 LINE",
"253 103 LINE",
"380 258 LINE SMOOTH",
"473 371 OFFCURVE",
"514 441 OFFCURVE",
"514 515 CURVE SMOOTH",
"514 631 OFFCURVE",
"418 716 OFFCURVE",
"282 716 CURVE SMOOTH"
);
}
);
width = 588;
}
);
unicode = 0032;
},
{
glyphname = three;
layers = (
{
hints = (
{
horizontal = 1;
place = "{-13, 106}";
type = Stem;
},
{
horizontal = 1;
place = "{350, 84}";
type = Stem;
},
{
horizontal = 1;
place = "{609, 103}";
type = Stem;
},
{
place = "{439, 119}";
type = Stem;
}
);
layerId = "1430537E-70AD-4C42-AE0B-37D64AC877DB";
paths = (
{
closed = 1;
nodes = (
"534 616 LINE",
"534 712 LINE",
"91 712 LINE",
"91 609 LINE",
"384 609 LINE",
"189 409 LINE",
"206 346 LINE",
"227 349 OFFCURVE",
"261 350 OFFCURVE",
"281 350 CURVE SMOOTH",
"372 350 OFFCURVE",
"439 313 OFFCURVE",
"439 222 CURVE SMOOTH",
"439 143 OFFCURVE",
"381 93 OFFCURVE",
"303 93 CURVE SMOOTH",
"227 93 OFFCURVE",
"174 134 OFFCURVE",
"139 210 CURVE",
"48 141 LINE",
"94 49 OFFCURVE",
"184 -13 OFFCURVE",
"306 -13 CURVE SMOOTH",
"454 -13 OFFCURVE",
"558 89 OFFCURVE",
"558 224 CURVE SMOOTH",
"558 353 OFFCURVE",
"467 425 OFFCURVE",
"349 434 CURVE"
);
}
);
width = 620;
}
);
unicode = 0033;
},
{
glyphname = four;
layers = (
{
hints = (
{
place = "{400, 117}";
type = Stem;
},
{
horizontal = 1;
place = "{0, 21}";
target = up;
type = BottomGhost;
},
{
horizontal = 1;
place = "{147, 97}";
type = Stem;
},
{
horizontal = 1;
place = "{584, 126}";
type = Stem;
},
{
horizontal = 1;
place = "{710, -20}";
target = down;
type = TopGhost;
}
);
layerId = "1430537E-70AD-4C42-AE0B-37D64AC877DB";
paths = (
{
closed = 1;
nodes = (
"367 710 LINE",
"16 244 LINE",
"37 147 LINE",
"400 147 LINE",
"400 0 LINE",
"517 0 LINE",
"517 147 LINE",
"612 147 LINE",
"612 244 LINE",
"517 244 LINE",
"517 710 LINE"
);
},
{
closed = 1;
nodes = (
"400 244 LINE",
"149 244 LINE",
"400 584 LINE"
);
}
);
width = 644;
}
);
unicode = 0034;
},
{
glyphname = five;
layers = (
{
hints = (
{
horizontal = 1;
place = "{-13, 105}";
type = Stem;
},
{
horizontal = 1;
place = "{351, 98}";
type = Stem;
},
{
horizontal = 1;
place = "{600, 103}";
type = Stem;
},
{
place = "{411, 120}";
type = Stem;
}
);
layerId = "1430537E-70AD-4C42-AE0B-37D64AC877DB";
paths = (
{
closed = 1;
nodes = (
"155 327 LINE",
"188 342 OFFCURVE",
"220 351 OFFCURVE",
"258 351 CURVE SMOOTH",
"346 351 OFFCURVE",
"411 299 OFFCURVE",
"411 224 CURVE SMOOTH",
"411 145 OFFCURVE",
"356 92 OFFCURVE",
"265 92 CURVE SMOOTH",
"201 92 OFFCURVE",
"145 120 OFFCURVE",
"93 168 CURVE",
"24 88 LINE",
"91 25 OFFCURVE",
"161 -13 OFFCURVE",
"266 -13 CURVE SMOOTH",
"425 -13 OFFCURVE",
"531 81 OFFCURVE",
"531 227 CURVE SMOOTH",
"531 368 OFFCURVE",
"420 449 OFFCURVE",
"290 449 CURVE SMOOTH",
"250 449 OFFCURVE",
"218 440 OFFCURVE",
"181 427 CURVE",
"198 600 LINE",
"500 600 LINE",
"505 703 LINE",
"102 703 LINE",
"74 369 LINE"
);
}
);
width = 586;
}
);
unicode = 0035;
},
{
glyphname = six;
layers = (
{
hints = (
{
horizontal = 1;
place = "{-14, 98}";
type = Stem;
},
{
horizontal = 1;
place = "{346, 92}";
type = Stem;
},
{
horizontal = 1;
place = "{706, -20}";
target = down;
type = TopGhost;
},
{
place = "{44, 123}";
type = Stem;
},
{
place = "{443, 121}";
type = Stem;
}
);
layerId = "1430537E-70AD-4C42-AE0B-37D64AC877DB";
paths = (
{
closed = 1;
nodes = (
"309 706 LINE",
"152 470 LINE SMOOTH",
"76 356 OFFCURVE",
"44 296 OFFCURVE",
"44 223 CURVE SMOOTH",
"44 78 OFFCURVE",
"156 -14 OFFCURVE",
"308 -14 CURVE SMOOTH",
"453 -14 OFFCURVE",
"564 82 OFFCURVE",
"564 223 CURVE SMOOTH",
"564 357 OFFCURVE",
"471 438 OFFCURVE",
"348 438 CURVE SMOOTH",
"298 438 OFFCURVE",
"269 431 OFFCURVE",
"232 404 CURVE",
"440 706 LINE"
);
},
{
closed = 1;
nodes = (
"167 288 OFFCURVE",
"221 346 OFFCURVE",
"306 346 CURVE SMOOTH",
"388 346 OFFCURVE",
"443 292 OFFCURVE",
"443 218 CURVE SMOOTH",
"443 140 OFFCURVE",
"388 84 OFFCURVE",
"306 84 CURVE SMOOTH",
"227 84 OFFCURVE",
"167 143 OFFCURVE",
"167 216 CURVE SMOOTH"
);
}
);
width = 610;
}
);
unicode = 0036;
},
{
glyphname = seven;
layers = (
{
hints = (
{
horizontal = 1;
place = "{0, 21}";
target = up;
type = BottomGhost;
},
{
horizontal = 1;
place = "{599, 104}";
type = Stem;
},
{
place = "{35, 499}";
type = Stem;
}
);
layerId = "1430537E-70AD-4C42-AE0B-37D64AC877DB";
paths = (
{
closed = 1;
nodes = (
"534 604 LINE",
"534 703 LINE",
"35 703 LINE",
"35 599 LINE",
"403 599 LINE",
"71 0 LINE",
"204 0 LINE"
);
}
);
width = 528;
}
);
unicode = 0037;
},
{
glyphname = eight;
layers = (
{
hints = (
{
place = "{62, 119}";
type = Stem;
},
{
place = "{88, 114}";
type = Stem;
},
{
place = "{444, 114}";
type = Stem;
},
{
place = "{464, 120}";
type = Stem;
},
{
horizontal = 1;
place = "{-12, 96}";
type = Stem;
},
{
horizontal = 1;
place = "{317, 90}";
type = Stem;
},
{
horizontal = 1;
place = "{620, 96}";
type = Stem;
}
);
layerId = "1430537E-70AD-4C42-AE0B-37D64AC877DB";
paths = (
{
closed = 1;
nodes = (
"558 636 OFFCURVE",
"453 716 OFFCURVE",
"322 716 CURVE SMOOTH",
"190 716 OFFCURVE",
"88 636 OFFCURVE",
"88 526 CURVE SMOOTH",
"88 453 OFFCURVE",
"127 399 OFFCURVE",
"193 368 CURVE",
"110 332 OFFCURVE",
"62 274 OFFCURVE",
"62 192 CURVE SMOOTH",
"62 74 OFFCURVE",
"173 -12 OFFCURVE",
"322 -12 CURVE SMOOTH",
"472 -12 OFFCURVE",
"584 70 OFFCURVE",
"584 193 CURVE SMOOTH",
"584 274 OFFCURVE",
"534 334 OFFCURVE",
"452 367 CURVE",
"515 401 OFFCURVE",
"558 450 OFFCURVE",
"558 524 CURVE SMOOTH"
);
},
{
closed = 1;
nodes = (
"202 575 OFFCURVE",
"253 620 OFFCURVE",
"322 620 CURVE SMOOTH",
"392 620 OFFCURVE",
"444 574 OFFCURVE",
"444 515 CURVE SMOOTH",
"444 453 OFFCURVE",
"391 407 OFFCURVE",
"322 407 CURVE SMOOTH",
"255 407 OFFCURVE",
"202 454 OFFCURVE",
"202 515 CURVE SMOOTH"
);
},
{
closed = 1;
nodes = (
"181 269 OFFCURVE",
"241 317 OFFCURVE",
"322 317 CURVE SMOOTH",
"405 317 OFFCURVE",
"464 270 OFFCURVE",
"464 202 CURVE SMOOTH",
"464 137 OFFCURVE",
"408 84 OFFCURVE",
"322 84 CURVE SMOOTH",
"235 84 OFFCURVE",
"181 137 OFFCURVE",
"181 202 CURVE SMOOTH"
);
}
);
width = 645;
}
);
unicode = 0038;
},
{
glyphname = nine;
layers = (
{
hints = (
{
horizontal = 1;
place = "{-1, 21}";
target = up;
type = BottomGhost;
},
{
horizontal = 1;
place = "{264, 95}";
type = Stem;
},
{
horizontal = 1;
place = "{621, 99}";
type = Stem;
},
{
place = "{44, 120}";
type = Stem;
},
{
place = "{440, 123}";
type = Stem;
}
);
layerId = "1430537E-70AD-4C42-AE0B-37D64AC877DB";
paths = (
{
closed = 1;
nodes = (
"298 -1 LINE",
"471 258 LINE SMOOTH",
"524 337 OFFCURVE",
"563 405 OFFCURVE",
"563 481 CURVE SMOOTH",
"563 625 OFFCURVE",
"454 720 OFFCURVE",
"297 720 CURVE SMOOTH",
"156 720 OFFCURVE",
"44 622 OFFCURVE",
"44 483 CURVE SMOOTH",
"44 350 OFFCURVE",
"139 264 OFFCURVE",
"262 264 CURVE SMOOTH",
"309 264 OFFCURVE",
"338 274 OFFCURVE",
"375 301 CURVE",
"169 -1 LINE"
);
},
{
closed = 1;
nodes = (
"440 418 OFFCURVE",
"384 359 OFFCURVE",
"302 359 CURVE SMOOTH",
"220 359 OFFCURVE",
"164 415 OFFCURVE",
"164 489 CURVE SMOOTH",
"164 563 OFFCURVE",
"219 621 OFFCURVE",
"301 621 CURVE SMOOTH",
"380 621 OFFCURVE",
"440 562 OFFCURVE",
"440 489 CURVE SMOOTH"
);
}
);
width = 607;
}
);
unicode = 0039;
},
{
glyphname = colon;
layers = (
{
hints = (
{
horizontal = 1;
place = "{-11, 154}";
type = Stem;
},
{
horizontal = 1;
place = "{358, 153}";
type = Stem;
},
{
place = "{77, 155}";
type = Stem;
}
);
layerId = "1430537E-70AD-4C42-AE0B-37D64AC877DB";
paths = (
{
closed = 1;
nodes = (
"77 388 OFFCURVE",
"110 358 OFFCURVE",
"155 358 CURVE SMOOTH",
"197 358 OFFCURVE",
"232 388 OFFCURVE",
"232 435 CURVE SMOOTH",
"232 481 OFFCURVE",
"197 511 OFFCURVE",
"155 511 CURVE SMOOTH",
"110 511 OFFCURVE",
"77 481 OFFCURVE",
"77 435 CURVE SMOOTH"
);
},
{
closed = 1;
nodes = (
"77 20 OFFCURVE",
"110 -11 OFFCURVE",
"155 -11 CURVE SMOOTH",
"197 -11 OFFCURVE",
"232 20 OFFCURVE",
"232 66 CURVE SMOOTH",
"232 112 OFFCURVE",
"197 143 OFFCURVE",
"155 143 CURVE SMOOTH",
"110 143 OFFCURVE",
"77 112 OFFCURVE",
"77 66 CURVE SMOOTH"
);
}
);
width = 311;
}
);
unicode = 003A;
},
{
glyphname = semicolon;
layers = (
{
hints = (
{
horizontal = 1;
place = "{358, 153}";
type = Stem;
},
{
place = "{52, 156}";
type = Stem;
}
);
layerId = "1430537E-70AD-4C42-AE0B-37D64AC877DB";
paths = (
{
closed = 1;
nodes = (
"52 388 OFFCURVE",
"85 358 OFFCURVE",
"130 358 CURVE SMOOTH",
"172 358 OFFCURVE",
"208 388 OFFCURVE",
"208 435 CURVE SMOOTH",
"208 481 OFFCURVE",
"172 511 OFFCURVE",
"130 511 CURVE SMOOTH",
"85 511 OFFCURVE",
"52 481 OFFCURVE",
"52 435 CURVE SMOOTH"
);
},
{
closed = 1;
nodes = (
"199 146 LINE",
"75 146 LINE",
"26 -147 LINE",
"116 -147 LINE"
);
}
);
width = 268;
}
);
unicode = 003B;
},
{
glyphname = less;
layers = (
{
hints = (
{
horizontal = 1;
place = "{74, 543}";
type = Stem;
},
{
place = "{67, 484}";
type = Stem;
}
);
layerId = "1430537E-70AD-4C42-AE0B-37D64AC877DB";
paths = (
{
closed = 1;
nodes = (
"551 617 LINE",
"67 399 LINE",
"67 292 LINE",
"551 74 LINE",
"551 186 LINE",
"184 346 LINE",
"551 504 LINE"
);
}
);
width = 618;
}
);
unicode = 003C;
},
{
glyphname = equal;
layers = (
{
hints = (
{
horizontal = 1;
place = "{175, 106}";
type = Stem;
},
{
horizontal = 1;
place = "{426, 106}";
type = Stem;
},
{
place = "{58, 480}";
type = Stem;
}
);
layerId = "1430537E-70AD-4C42-AE0B-37D64AC877DB";
paths = (
{
closed = 1;
nodes = (
"58 532 LINE",
"58 426 LINE",
"538 426 LINE",
"538 532 LINE"
);
},
{
closed = 1;
nodes = (
"58 281 LINE",
"58 175 LINE",
"538 175 LINE",
"538 281 LINE"
);
}
);
width = 596;
}
);
unicode = 003D;
},
{
glyphname = greater;
layers = (
{
hints = (
{
horizontal = 1;
place = "{75, 542}";
type = Stem;
},
{
place = "{433, 118}";
type = Stem;
}
);
layerId = "1430537E-70AD-4C42-AE0B-37D64AC877DB";
paths = (
{
closed = 1;
nodes = (
"67 503 LINE",
"433 345 LINE",
"67 187 LINE",
"67 75 LINE",
"551 292 LINE",
"551 399 LINE",
"67 617 LINE"
);
}
);
width = 618;
}
);
unicode = 003E;
},
{
glyphname = question;
layers = (
{
hints = (
{
place = "{133, 152}";
type = Stem;
},
{
place = "{147, 112}";
type = Stem;
},
{
place = "{303, 118}";
type = Stem;
},
{
horizontal = 1;
place = "{-10, 143}";
type = Stem;
},
{
horizontal = 1;
place = "{610, 104}";
type = Stem;
}
);
layerId = "1430537E-70AD-4C42-AE0B-37D64AC877DB";
paths = (
{
closed = 1;
nodes = (
"265 610 OFFCURVE",
"303 572 OFFCURVE",
"303 527 CURVE SMOOTH",
"303 486 OFFCURVE",
"272 455 OFFCURVE",
"238 425 CURVE SMOOTH",
"194 385 OFFCURVE",
"147 339 OFFCURVE",
"147 255 CURVE SMOOTH",
"147 199 LINE",
"259 199 LINE",
"259 231 LINE SMOOTH",
"259 291 OFFCURVE",
"278 318 OFFCURVE",
"323 358 CURVE",
"379 404 OFFCURVE",
"421 455 OFFCURVE",
"421 536 CURVE SMOOTH",
"421 646 OFFCURVE",
"337 714 OFFCURVE",
"224 714 CURVE SMOOTH",
"151 714 OFFCURVE",
"86 686 OFFCURVE",
"48 637 CURVE",
"48 520 LINE",
"94 578 OFFCURVE",
"150 610 OFFCURVE",
"206 610 CURVE SMOOTH"
);
},
{
closed = 1;
nodes = (
"133 16 OFFCURVE",
"167 -10 OFFCURVE",
"209 -10 CURVE SMOOTH",
"251 -10 OFFCURVE",
"285 16 OFFCURVE",
"285 61 CURVE SMOOTH",
"285 103 OFFCURVE",
"251 133 OFFCURVE",
"209 133 CURVE SMOOTH",
"167 133 OFFCURVE",
"133 103 OFFCURVE",
"133 61 CURVE SMOOTH"
);
}
);
width = 469;
}
);
unicode = 003F;
},
{
glyphname = at;
layers = (
{
hints = (
{
place = "{46, 52}";
type = Stem;
},
{
place = "{228, 105}";
type = Stem;
},
{
place = "{556, 91}";
type = Stem;
},
{
place = "{823, 50}";
type = Stem;
},
{
horizontal = 1;
place = "{-116, 46}";
type = Stem;
},
{
horizontal = 1;
place = "{92, 54}";
type = Stem;
},
{
horizontal = 1;
place = "{94, 87}";
type = Stem;
},
{
horizontal = 1;
place = "{433, 90}";
type = Stem;
},
{
horizontal = 1;
place = "{510, -20}";
target = down;
type = TopGhost;
},
{
horizontal = 1;
place = "{672, 45}";
type = Stem;
}
);
layerId = "1430537E-70AD-4C42-AE0B-37D64AC877DB";
paths = (
{
closed = 1;
nodes = (
"723 -1 LINE",
"646 -48 OFFCURVE",
"573 -70 OFFCURVE",
"480 -70 CURVE SMOOTH",
"248 -70 OFFCURVE",
"98 89 OFFCURVE",
"98 299 CURVE SMOOTH",
"98 509 OFFCURVE",
"253 672 OFFCURVE",
"467 672 CURVE SMOOTH",
"674 672 OFFCURVE",
"823 526 OFFCURVE",
"823 339 CURVE SMOOTH",
"823 220 OFFCURVE",
"772 146 OFFCURVE",
"708 146 CURVE SMOOTH",
"663 146 OFFCURVE",
"645 185 OFFCURVE",
"647 234 CURVE",
"687 498 LINE",
"589 510 LINE",
"578 446 LINE",
"553 489 OFFCURVE",
"513 523 OFFCURVE",
"446 523 CURVE SMOOTH",
"327 523 OFFCURVE",
"228 414 OFFCURVE",
"228 284 CURVE SMOOTH",
"228 171 OFFCURVE",
"304 94 OFFCURVE",
"406 94 CURVE SMOOTH",
"472 94 OFFCURVE",
"520 128 OFFCURVE",
"555 174 CURVE",
"575 123 OFFCURVE",
"612 92 OFFCURVE",
"680 92 CURVE SMOOTH",
"785 92 OFFCURVE",
"873 181 OFFCURVE",
"873 346 CURVE SMOOTH",
"873 552 OFFCURVE",
"695 717 OFFCURVE",
"468 717 CURVE SMOOTH",
"229 717 OFFCURVE",
"46 530 OFFCURVE",
"46 298 CURVE SMOOTH",
"46 65 OFFCURVE",
"225 -116 OFFCURVE",
"474 -116 CURVE SMOOTH",
"578 -116 OFFCURVE",
"666 -87 OFFCURVE",
"745 -34 CURVE"
);
},
{
closed = 1;
nodes = (
"520 433 OFFCURVE",
"556 390 OFFCURVE",
"556 329 CURVE SMOOTH",
"556 252 OFFCURVE",
"500 181 OFFCURVE",
"428 181 CURVE SMOOTH",
"371 181 OFFCURVE",
"333 225 OFFCURVE",
"333 290 CURVE SMOOTH",
"333 368 OFFCURVE",
"389 433 OFFCURVE",
"460 433 CURVE SMOOTH"
);
}
);
width = 920;
}
);
unicode = 0040;
},
{
glyphname = A;
layers = (
{
hints = (
{
horizontal = 1;
place = "{0, 21}";
target = up;
type = BottomGhost;
},
{
horizontal = 1;
place = "{173, 100}";
type = Stem;
},
{
horizontal = 1;
place = "{705, -20}";
target = down;
type = TopGhost;
},
{
place = "{-6, 719}";
type = Stem;
}
);
layerId = "1430537E-70AD-4C42-AE0B-37D64AC877DB";
paths = (
{
closed = 1;
nodes = (
"509 173 LINE",
"582 0 LINE",
"713 0 LINE",
"408 705 LINE",
"299 705 LINE",
"-6 0 LINE",
"123 0 LINE",
"196 173 LINE"
);
},
{
closed = 1;
nodes = (
"353 562 LINE",
"469 273 LINE",
"237 273 LINE"
);
}
);
width = 707;
}
);
unicode = 0041;
},
{
glyphname = B;
layers = (
{
hints = (
{
place = "{73, 119}";
type = Stem;
},
{
place = "{448, 121}";
type = Stem;
},
{
place = "{501, 121}";
type = Stem;
},
{
horizontal = 1;
place = "{0, 101}";
type = Stem;
},
{
horizontal = 1;
place = "{310, 94}";
type = Stem;
},
{
horizontal = 1;
place = "{602, 101}";
type = Stem;
}
);
layerId = "1430537E-70AD-4C42-AE0B-37D64AC877DB";
paths = (
{
closed = 1;
nodes = (
"73 0 LINE",
"345 0 LINE SMOOTH",
"537 0 OFFCURVE",
"622 84 OFFCURVE",
"622 194 CURVE SMOOTH",
"622 282 OFFCURVE",
"571 347 OFFCURVE",
"465 366 CURVE",
"531 392 OFFCURVE",
"569 449 OFFCURVE",
"569 526 CURVE SMOOTH",
"569 652 OFFCURVE",
"457 703 OFFCURVE",
"326 703 CURVE SMOOTH",
"73 703 LINE"
);
},
{
closed = 1;
nodes = (
"192 602 LINE",
"318 602 LINE SMOOTH",
"398 602 OFFCURVE",
"448 571 OFFCURVE",
"448 505 CURVE SMOOTH",
"448 446 OFFCURVE",
"406 404 OFFCURVE",
"317 404 CURVE SMOOTH",
"192 404 LINE"
);
},
{
closed = 1;
nodes = (
"192 310 LINE",
"325 310 LINE SMOOTH",
"453 310 OFFCURVE",
"501 272 OFFCURVE",
"501 206 CURVE SMOOTH",
"501 139 OFFCURVE",
"452 101 OFFCURVE",
"347 101 CURVE SMOOTH",
"192 101 LINE"
);
}
);
width = 664;
}
);
unicode = 0042;
},
{
glyphname = C;
layers = (
{
hints = (
{
horizontal = 1;
place = "{-14, 110}";
type = Stem;
},
{
horizontal = 1;
place = "{608, 109}";
type = Stem;
},
{
place = "{46, 125}";
type = Stem;
}
);
layerId = "1430537E-70AD-4C42-AE0B-37D64AC877DB";
paths = (
{
closed = 1;
nodes = (
"639 199 LINE",
"574 141 OFFCURVE",
"507 96 OFFCURVE",
"415 96 CURVE SMOOTH",
"268 96 OFFCURVE",
"171 210 OFFCURVE",
"171 352 CURVE SMOOTH",
"171 493 OFFCURVE",
"269 608 OFFCURVE",
"415 608 CURVE SMOOTH",
"514 608 OFFCURVE",
"579 570 OFFCURVE",
"628 516 CURVE",
"628 646 LINE",
"571 688 OFFCURVE",
"505 717 OFFCURVE",
"412 717 CURVE SMOOTH",
"201 717 OFFCURVE",
"46 557 OFFCURVE",
"46 351 CURVE SMOOTH",
"46 143 OFFCURVE",
"204 -14 OFFCURVE",
"407 -14 CURVE SMOOTH",
"503 -14 OFFCURVE",
"574 18 OFFCURVE",
"639 70 CURVE"
);
}
);
width = 692;
}
);
unicode = 0043;
},
{
glyphname = D;
layers = (
{
hints = (
{
horizontal = 1;
place = "{0, 108}";
type = Stem;
},
{
horizontal = 1;
place = "{595, 108}";
type = Stem;
},
{
place = "{73, 121}";
type = Stem;
},
{
place = "{566, 127}";
type = Stem;
}
);
layerId = "1430537E-70AD-4C42-AE0B-37D64AC877DB";
paths = (
{
closed = 1;
nodes = (
"73 0 LINE",
"308 0 LINE SMOOTH",
"544 0 OFFCURVE",
"693 148 OFFCURVE",
"693 353 CURVE SMOOTH",
"693 563 OFFCURVE",
"537 703 OFFCURVE",
"310 703 CURVE SMOOTH",
"73 703 LINE"
);
},
{
closed = 1;
nodes = (
"194 595 LINE",
"340 595 LINE SMOOTH",
"484 595 OFFCURVE",
"566 476 OFFCURVE",
"566 351 CURVE SMOOTH",
"566 207 OFFCURVE",
"472 108 OFFCURVE",
"308 108 CURVE SMOOTH",
"194 108 LINE"
);
}
);
width = 740;
}
);
unicode = 0044;
},
{
glyphname = E;
layers = (
{
hints = (
{
horizontal = 1;
place = "{0, 106}";
type = Stem;
},
{
horizontal = 1;
place = "{306, 102}";
type = Stem;
},
{
horizontal = 1;
place = "{598, 105}";
type = Stem;
},
{
place = "{73, 121}";
type = Stem;
}
);
layerId = "1430537E-70AD-4C42-AE0B-37D64AC877DB";
paths = (
{
closed = 1;
nodes = (
"194 306 LINE",
"536 306 LINE",
"536 408 LINE",
"194 408 LINE",
"194 598 LINE",
"567 598 LINE",
"567 703 LINE",
"73 703 LINE",
"73 0 LINE",
"576 0 LINE",
"576 106 LINE",
"194 106 LINE"
);
}
);
width = 637;
}
);
unicode = 0045;
},
{
glyphname = F;
layers = (
{
hints = (
{
horizontal = 1;
place = "{-1, 21}";
target = up;
type = BottomGhost;
},
{
horizontal = 1;
place = "{292, 104}";
type = Stem;
},
{
horizontal = 1;
place = "{596, 107}";
type = Stem;
},
{
place = "{73, 121}";
type = Stem;
}
);
layerId = "1430537E-70AD-4C42-AE0B-37D64AC877DB";
paths = (
{
closed = 1;
nodes = (
"194 292 LINE",
"532 292 LINE",
"532 396 LINE",
"194 396 LINE",
"194 596 LINE",
"564 596 LINE",
"564 703 LINE",
"73 703 LINE",
"73 -1 LINE",
"194 -1 LINE"
);
}
);
width = 612;
}
);
unicode = 0046;
},
{
glyphname = G;
layers = (
{
hints = (
{
horizontal = 1;
place = "{-15, 107}";
type = Stem;
},
{
horizontal = 1;
place = "{303, 99}";
type = Stem;
},
{
horizontal = 1;
place = "{609, 108}";
type = Stem;
},
{
place = "{46, 123}";
type = Stem;
},
{
place = "{459, 184}";
type = Stem;
},
{
place = "{646, 115}";
type = Stem;
}
);
layerId = "1430537E-70AD-4C42-AE0B-37D64AC877DB";
paths = (
{
closed = 1;
nodes = (
"646 303 LINE",
"646 171 OFFCURVE",
"541 92 OFFCURVE",
"419 92 CURVE SMOOTH",
"278 92 OFFCURVE",
"169 203 OFFCURVE",
"169 351 CURVE SMOOTH",
"169 492 OFFCURVE",
"289 609 OFFCURVE",
"434 609 CURVE SMOOTH",
"521 609 OFFCURVE",
"592 575 OFFCURVE",
"643 527 CURVE",
"643 658 LINE",
"579 700 OFFCURVE",
"502 717 OFFCURVE",
"427 717 CURVE SMOOTH",
"214 717 OFFCURVE",
"46 556 OFFCURVE",
"46 351 CURVE SMOOTH",
"46 145 OFFCURVE",
"204 -15 OFFCURVE",
"412 -15 CURVE SMOOTH",
"629 -15 OFFCURVE",
"761 131 OFFCURVE",
"761 372 CURVE SMOOTH",
"761 402 LINE",
"459 402 LINE",
"459 303 LINE"
);
}
);
width = 807;
}
);
unicode = 0047;
},
{
glyphname = H;
layers = (
{
hints = (
{
horizontal = 1;
place = "{0, 21}";
target = up;
type = BottomGhost;
},
{
horizontal = 1;
place = "{302, 109}";
type = Stem;
},
{
horizontal = 1;
place = "{704, -20}";
target = down;
type = TopGhost;
},
{
place = "{73, 121}";
type = Stem;
},
{
place = "{531, 121}";
type = Stem;
}
);
layerId = "1430537E-70AD-4C42-AE0B-37D64AC877DB";
paths = (
{
closed = 1;
nodes = (
"73 0 LINE",
"194 0 LINE",
"194 302 LINE",
"531 302 LINE",
"531 0 LINE",
"652 0 LINE",
"652 704 LINE",
"531 704 LINE",
"531 411 LINE",
"194 411 LINE",
"194 704 LINE",
"73 704 LINE"
);
}
);
width = 724;
}
);
unicode = 0048;
},
{
glyphname = J;
layers = (
{
hints = (
{
horizontal = 1;
place = "{-11, 107}";
type = Stem;
},
{
horizontal = 1;
place = "{703, -20}";
target = down;
type = TopGhost;
},
{
place = "{216, 122}";
type = Stem;
}
);
layerId = "1430537E-70AD-4C42-AE0B-37D64AC877DB";
paths = (
{
closed = 1;
nodes = (
"0 28 LINE",
"36 4 OFFCURVE",
"80 -11 OFFCURVE",
"124 -11 CURVE SMOOTH",
"258 -11 OFFCURVE",
"338 75 OFFCURVE",
"338 225 CURVE SMOOTH",
"338 703 LINE",
"216 703 LINE",
"216 224 LINE SMOOTH",
"216 132 OFFCURVE",
"180 96 OFFCURVE",
"121 96 CURVE SMOOTH",
"74 96 OFFCURVE",
"36 120 OFFCURVE",
"0 146 CURVE"
);
}
);
width = 404;
}
);
unicode = 004A;
},
{
glyphname = K;
layers = (
{
hints = (
{
horizontal = 1;
place = "{0, 21}";
target = up;
type = BottomGhost;
},
{
horizontal = 1;
place = "{703, -20}";
target = down;
type = TopGhost;
},
{
place = "{73, 121}";
type = Stem;
}
);
layerId = "1430537E-70AD-4C42-AE0B-37D64AC877DB";
paths = (
{
closed = 1;
nodes = (
"194 703 LINE",
"73 703 LINE",
"73 0 LINE",
"194 0 LINE",
"194 343 LINE",
"473 0 LINE",
"622 0 LINE",
"310 383 LINE",
"601 703 LINE",
"452 703 LINE",
"194 411 LINE"
);
}
);
width = 619;
}
);
unicode = 004B;
},
{
glyphname = L;
layers = (
{
hints = (
{
horizontal = 1;
place = "{0, 107}";
type = Stem;
},
{
horizontal = 1;
place = "{703, -20}";
target = down;
type = TopGhost;
},
{
place = "{73, 121}";
type = Stem;
}
);
layerId = "1430537E-70AD-4C42-AE0B-37D64AC877DB";
paths = (
{
closed = 1;
nodes = (
"194 703 LINE",
"73 703 LINE",
"73 0 LINE",
"537 0 LINE",
"537 107 LINE",
"194 107 LINE"
);
}
);
width = 553;
}
);
unicode = 004C;
},
{
glyphname = M;
layers = (
{
hints = (
{
horizontal = 1;
place = "{0, 21}";
target = up;
type = BottomGhost;
},
{
place = "{25, 119}";
type = Stem;
},
{
place = "{628, 121}";
type = Stem;
}
);
layerId = "1430537E-70AD-4C42-AE0B-37D64AC877DB";
paths = (
{
closed = 1;
nodes = (
"386 145 LINE",
"628 511 LINE",
"628 0 LINE",
"749 0 LINE",
"749 700 LINE",
"626 700 LINE",
"387 329 LINE",
"148 700 LINE",
"25 700 LINE",
"25 0 LINE",
"144 0 LINE",
"144 510 LINE"
);
}
);
width = 774;
}
);
unicode = 004D;
},
{
glyphname = N;
layers = (
{
hints = (
{
horizontal = 1;
place = "{0, 21}";
target = up;
type = BottomGhost;
},
{
horizontal = 1;
place = "{703, -20}";
target = down;
type = TopGhost;
},
{
place = "{73, 119}";
type = Stem;
},
{
place = "{565, 119}";
type = Stem;
}
);
layerId = "1430537E-70AD-4C42-AE0B-37D64AC877DB";
paths = (
{
closed = 1;
nodes = (
"190 700 LINE",
"73 700 LINE",
"73 0 LINE",
"192 0 LINE",
"192 513 LINE",
"571 0 LINE",
"684 0 LINE",
"684 703 LINE",
"565 703 LINE",
"565 194 LINE"
);
}
);
width = 757;
}
);
unicode = 004E;
},
{
glyphname = O;
layers = (
{
hints = (
{
horizontal = 1;
place = "{-14, 110}";
type = Stem;
},
{
horizontal = 1;
place = "{608, 109}";
type = Stem;
},
{
place = "{46, 125}";
type = Stem;
},
{
place = "{661, 124}";
type = Stem;
}
);
layerId = "1430537E-70AD-4C42-AE0B-37D64AC877DB";
paths = (
{
closed = 1;
nodes = (
"785 553 OFFCURVE",
"630 717 OFFCURVE",
"417 717 CURVE SMOOTH",
"203 717 OFFCURVE",
"46 554 OFFCURVE",
"46 351 CURVE SMOOTH",
"46 148 OFFCURVE",
"202 -14 OFFCURVE",
"416 -14 CURVE SMOOTH",
"628 -14 OFFCURVE",
"785 151 OFFCURVE",
"785 353 CURVE SMOOTH"
);
},
{
closed = 1;
nodes = (
"661 211 OFFCURVE",
"560 96 OFFCURVE",
"417 96 CURVE SMOOTH",
"272 96 OFFCURVE",
"171 210 OFFCURVE",
"171 353 CURVE SMOOTH",
"171 494 OFFCURVE",
"271 608 OFFCURVE",
"416 608 CURVE SMOOTH",
"559 608 OFFCURVE",
"661 491 OFFCURVE",
"661 350 CURVE SMOOTH"
);
}
);
width = 831;
}
);
unicode = 004F;
},
{
glyphname = P;
layers = (
{
hints = (
{
horizontal = 1;
place = "{-1, 21}";
target = up;
type = BottomGhost;
},
{
horizontal = 1;
place = "{253, 101}";
type = Stem;
},
{
horizontal = 1;
place = "{598, 105}";
type = Stem;
},
{
place = "{73, 122}";
type = Stem;
},
{
place = "{466, 122}";
type = Stem;
}
);
layerId = "1430537E-70AD-4C42-AE0B-37D64AC877DB";
paths = (
{
closed = 1;
nodes = (
"73 -1 LINE",
"195 -1 LINE",
"195 253 LINE",
"316 253 LINE SMOOTH",
"470 253 OFFCURVE",
"588 335 OFFCURVE",
"588 483 CURVE SMOOTH",
"588 622 OFFCURVE",
"483 703 OFFCURVE",
"324 703 CURVE SMOOTH",
"73 703 LINE"
);
},
{
closed = 1;
nodes = (
"195 598 LINE",
"314 598 LINE SMOOTH",
"411 598 OFFCURVE",
"466 558 OFFCURVE",
"466 477 CURVE SMOOTH",
"466 400 OFFCURVE",
"409 354 OFFCURVE",
"313 354 CURVE SMOOTH",
"195 354 LINE"
);
}
);
width = 616;
}
);
unicode = 0050;
},
{
glyphname = Q;
layers = (
{
hints = (
{
horizontal = 1;
place = "{-14, 110}";
type = Stem;
},
{
horizontal = 1;
place = "{608, 109}";
type = Stem;
},
{
place = "{46, 125}";
type = Stem;
},
{
place = "{661, 124}";
type = Stem;
}
);
layerId = "1430537E-70AD-4C42-AE0B-37D64AC877DB";
paths = (
{
closed = 1;
nodes = (
"802 -102 LINE",
"802 37 LINE",
"703 124 LINE",
"756 186 OFFCURVE",
"785 261 OFFCURVE",
"785 353 CURVE SMOOTH",
"785 553 OFFCURVE",
"630 717 OFFCURVE",
"417 717 CURVE SMOOTH",
"203 717 OFFCURVE",
"46 553 OFFCURVE",
"46 350 CURVE SMOOTH",
"46 148 OFFCURVE",
"202 -14 OFFCURVE",
"416 -14 CURVE SMOOTH",
"496 -14 OFFCURVE",
"567 10 OFFCURVE",
"624 48 CURVE"
);
},
{
closed = 1;
nodes = (
"661 210 OFFCURVE",
"560 96 OFFCURVE",
"417 96 CURVE SMOOTH",
"272 96 OFFCURVE",
"171 210 OFFCURVE",
"171 353 CURVE SMOOTH",
"171 494 OFFCURVE",
"271 608 OFFCURVE",
"416 608 CURVE SMOOTH",
"559 608 OFFCURVE",
"661 491 OFFCURVE",
"661 350 CURVE SMOOTH"
);
}
);
width = 847;
}
);
unicode = 0051;
},
{
glyphname = R;
layers = (
{
hints = (
{
horizontal = 1;
place = "{0, 21}";
target = up;
type = BottomGhost;
},
{
horizontal = 1;
place = "{270, 97}";
type = Stem;
},
{
horizontal = 1;
place = "{597, 106}";
type = Stem;
},
{
place = "{73, 122}";
type = Stem;
},
{
place = "{466, 123}";
type = Stem;
}
);
layerId = "1430537E-70AD-4C42-AE0B-37D64AC877DB";
paths = (
{
closed = 1;
nodes = (
"195 0 LINE",
"195 270 LINE",
"284 270 LINE",
"476 0 LINE",
"620 0 LINE",
"411 284 LINE",
"519 310 OFFCURVE",
"589 381 OFFCURVE",
"589 489 CURVE SMOOTH",
"589 617 OFFCURVE",
"490 703 OFFCURVE",
"329 703 CURVE SMOOTH",
"73 703 LINE",
"73 0 LINE"
);
},
{
closed = 1;
nodes = (
"195 367 LINE",
"195 597 LINE",
"319 597 LINE SMOOTH",
"412 597 OFFCURVE",
"466 561 OFFCURVE",
"466 483 CURVE SMOOTH",
"466 402 OFFCURVE",
"400 367 OFFCURVE",
"308 367 CURVE SMOOTH"
);
}
);
width = 622;
}
);
unicode = 0052;
},
{
glyphname = S;
layers = (
{
hints = (
{
horizontal = 1;
place = "{-12, 104}";
type = Stem;
},
{
horizontal = 1;
place = "{614, 102}";
type = Stem;
},
{
place = "{47, 123}";
type = Stem;
},
{
place = "{415, 122}";
type = Stem;
}
);
layerId = "1430537E-70AD-4C42-AE0B-37D64AC877DB";
paths = (
{
closed = 1;
nodes = (
"201 92 OFFCURVE",
"106 127 OFFCURVE",
"26 202 CURVE",
"26 82 LINE",
"98 15 OFFCURVE",
"187 -12 OFFCURVE",
"282 -12 CURVE SMOOTH",
"413 -12 OFFCURVE",
"531 45 OFFCURVE",
"537 179 CURVE",
"545 429 OFFCURVE",
"170 402 OFFCURVE",
"170 537 CURVE SMOOTH",
"170 584 OFFCURVE",
"216 614 OFFCURVE",
"288 614 CURVE SMOOTH",
"354 614 OFFCURVE",
"433 586 OFFCURVE",
"492 519 CURVE",
"492 647 LINE",
"436 694 OFFCURVE",
"366 716 OFFCURVE",
"282 716 CURVE SMOOTH",
"160 716 OFFCURVE",
"47 652 OFFCURVE",
"47 532 CURVE SMOOTH",
"47 302 OFFCURVE",
"415 323 OFFCURVE",
"415 179 CURVE SMOOTH",
"415 111 OFFCURVE",
"341 92 OFFCURVE",
"285 92 CURVE SMOOTH"
);
}
);
width = 577;
}
);
unicode = 0053;
},
{
glyphname = T;
layers = (
{
hints = (
{
horizontal = 1;
place = "{0, 21}";
target = up;
type = BottomGhost;
},
{
horizontal = 1;
place = "{596, 107}";
type = Stem;
},
{
place = "{219, 120}";
type = Stem;
}
);
layerId = "1430537E-70AD-4C42-AE0B-37D64AC877DB";
paths = (
{
closed = 1;
nodes = (
"339 596 LINE",
"549 596 LINE",
"549 703 LINE",
"9 703 LINE",
"9 596 LINE",
"219 596 LINE",
"219 0 LINE",
"339 0 LINE"
);
}
);
width = 559;
}
);
unicode = 0054;
},
{
glyphname = U;
layers = (
{
hints = (
{
horizontal = 1;
place = "{-14, 110}";
type = Stem;
},
{
horizontal = 1;
place = "{704, -20}";
target = down;
type = TopGhost;
},
{
place = "{65, 122}";
type = Stem;
},
{
place = "{533, 122}";
type = Stem;
}
);
layerId = "1430537E-70AD-4C42-AE0B-37D64AC877DB";
paths = (
{
closed = 1;
nodes = (
"549 -14 OFFCURVE",
"655 95 OFFCURVE",
"655 295 CURVE SMOOTH",
"655 704 LINE",
"533 704 LINE",
"533 292 LINE SMOOTH",
"533 160 OFFCURVE",
"470 96 OFFCURVE",
"360 96 CURVE SMOOTH",
"246 96 OFFCURVE",
"187 169 OFFCURVE",
"187 296 CURVE SMOOTH",
"187 704 LINE",
"65 704 LINE",
"65 292 LINE SMOOTH",
"65 99 OFFCURVE",
"171 -14 OFFCURVE",
"360 -14 CURVE SMOOTH"
);
}
);
width = 721;
}
);
unicode = 0055;
},
{
glyphname = V;
layers = (
{
hints = (
{
horizontal = 1;
place = "{-2, 21}";
target = up;
type = BottomGhost;
},
{
horizontal = 1;
place = "{703, -20}";
target = down;
type = TopGhost;
},
{
place = "{-5, 684}";
type = Stem;
}
);
layerId = "1430537E-70AD-4C42-AE0B-37D64AC877DB";
paths = (
{
closed = 1;
nodes = (
"-5 703 LINE",
"274 -2 LINE",
"401 -2 LINE",
"679 703 LINE",
"547 703 LINE",
"339 144 LINE",
"130 703 LINE"
);
}
);
width = 675;
}
);
unicode = 0056;
},
{
glyphname = W;
layers = (
{
hints = (
{
horizontal = 1;
place = "{-2, 21}";
target = up;
type = BottomGhost;
},
{
horizontal = 1;
place = "{703, -20}";
target = down;
type = TopGhost;
},
{
horizontal = 1;
place = "{705, -20}";
target = down;
type = TopGhost;
},
{
place = "{2, 1019}";
type = Stem;
}
);
layerId = "1430537E-70AD-4C42-AE0B-37D64AC877DB";
paths = (
{
closed = 1;
nodes = (
"131 703 LINE",
"2 703 LINE",
"238 -2 LINE",
"349 -2 LINE",
"511 521 LINE",
"677 -2 LINE",
"787 -2 LINE",
"1021 703 LINE",
"895 703 LINE",
"732 182 LINE",
"568 705 LINE",
"459 705 LINE",
"298 182 LINE"
);
}
);
width = 1022;
}
);
unicode = 0057;
},
{
glyphname = X;
layers = (
{
hints = (
{
horizontal = 1;
place = "{0, 21}";
target = up;
type = BottomGhost;
},
{
horizontal = 1;
place = "{703, -20}";
target = down;
type = TopGhost;
},
{
place = "{7, 640}";
type = Stem;
}
);
layerId = "1430537E-70AD-4C42-AE0B-37D64AC877DB";
paths = (
{
closed = 1;
nodes = (
"18 703 LINE",
"257 359 LINE",
"7 0 LINE",
"145 0 LINE",
"326 268 LINE",
"508 0 LINE",
"647 0 LINE",
"399 361 LINE",
"635 703 LINE",
"499 703 LINE",
"330 452 LINE",
"158 703 LINE"
);
}
);
width = 655;
}
);
unicode = 0058;
},
{
glyphname = Y;
layers = (
{
hints = (
{
horizontal = 1;
place = "{0, 21}";
target = up;
type = BottomGhost;
},
{
horizontal = 1;
place = "{703, -20}";
target = down;
type = TopGhost;
},
{
place = "{266, 121}";
type = Stem;
}
);
layerId = "1430537E-70AD-4C42-AE0B-37D64AC877DB";
paths = (
{
closed = 1;
nodes = (
"387 276 LINE",
"656 703 LINE",
"520 703 LINE",
"329 387 LINE",
"137 703 LINE",
"-3 703 LINE",
"266 274 LINE",
"266 0 LINE",
"387 0 LINE"
);
}
);
width = 652;
}
);
unicode = 0059;
},
{
glyphname = Z;
layers = (
{
hints = (
{
horizontal = 1;
place = "{0, 105}";
type = Stem;
},
{
horizontal = 1;
place = "{599, 104}";
type = Stem;
},
{
place = "{8, 608}";
type = Stem;
}
);
layerId = "1430537E-70AD-4C42-AE0B-37D64AC877DB";
paths = (
{
closed = 1;
nodes = (
"616 608 LINE",
"616 703 LINE",
"31 703 LINE",
"31 599 LINE",
"458 599 LINE",
"8 95 LINE",
"8 0 LINE",
"602 0 LINE",
"602 105 LINE",
"171 105 LINE"
);
}
);
width = 636;
}
);
unicode = 005A;
},
{
glyphname = bracketleft;
layers = (
{
hints = (
{
horizontal = 1;
place = "{-149, 87}";
type = Stem;
},
{
horizontal = 1;
place = "{630, 87}";
type = Stem;
},
{
place = "{77, 108}";
type = Stem;
}
);
layerId = "1430537E-70AD-4C42-AE0B-37D64AC877DB";
paths = (
{
closed = 1;
nodes = (
"352 717 LINE",
"77 717 LINE",
"77 -149 LINE",
"352 -149 LINE",
"352 -62 LINE",
"185 -62 LINE",
"185 630 LINE",
"352 630 LINE"
);
}
);
width = 404;
}
);
unicode = 005B;
},
{
glyphname = backslash;
layers = (
{
hints = (
{
horizontal = 1;
place = "{-121, 908}";
type = Stem;
},
{
place = "{1, 514}";
type = Stem;
}
);
layerId = "1430537E-70AD-4C42-AE0B-37D64AC877DB";
paths = (
{
closed = 1;
nodes = (
"419 -121 LINE",
"515 -108 LINE",
"97 787 LINE",
"1 774 LINE"
);
}
);
width = 516;
}
);
unicode = 005C;
},
{
glyphname = bracketright;
layers = (
{
hints = (
{
horizontal = 1;
place = "{-149, 87}";
type = Stem;
},
{
horizontal = 1;
place = "{630, 87}";
type = Stem;
},
{
place = "{220, 109}";
type = Stem;
}
);
layerId = "1430537E-70AD-4C42-AE0B-37D64AC877DB";
paths = (
{
closed = 1;
nodes = (
"53 -149 LINE",
"329 -149 LINE",
"329 717 LINE",
"53 717 LINE",
"53 630 LINE",
"220 630 LINE",
"220 -62 LINE",
"53 -62 LINE"
);
}
);
width = 407;
}
);
unicode = 005D;
},
{
glyphname = asciicircum;
layers = (
{
hints = (
{
place = "{29, 426}";
type = Stem;
},
{
horizontal = 1;
place = "{625, 79}";
type = Stem;
},
{
horizontal = 1;
place = "{704, -20}";
target = down;
type = TopGhost;
}
);
layerId = "1430537E-70AD-4C42-AE0B-37D64AC877DB";
paths = (
{
closed = 1;
nodes = (
"29 443 LINE",
"122 443 LINE",
"241 625 LINE",
"360 443 LINE",
"455 443 LINE",
"287 704 LINE",
"196 704 LINE"
);
}
);
width = 484;
}
);
unicode = 005E;
},
{
glyphname = underscore;
layers = (
{
hints = (
{
horizontal = 1;
place = "{-151, 82}";
type = Stem;
},
{
place = "{0, 575}";
type = Stem;
}
);
layerId = "1430537E-70AD-4C42-AE0B-37D64AC877DB";
paths = (
{
closed = 1;
nodes = (
"0 -151 LINE",
"575 -151 LINE",
"575 -69 LINE",
"0 -69 LINE"
);
}
);
width = 575;
}
);
unicode = 005F;
},
{
glyphname = grave;
layers = (
{
hints = (
{
horizontal = 1;
place = "{616, 161}";
type = Stem;
},
{
place = "{11, 220}";
type = Stem;
}
);
layerId = "1430537E-70AD-4C42-AE0B-37D64AC877DB";
paths = (
{
closed = 1;
nodes = (
"144 616 LINE",
"231 616 LINE",
"133 777 LINE",
"11 745 LINE"
);
}
);
width = 248;
}
);
unicode = 0060;
},
{
glyphname = a;
layers = (
{
hints = (
{
place = "{33, 116}";
type = Stem;
},
{
place = "{389, 117}";
type = Stem;
},
{
horizontal = 1;
place = "{-11, 85}";
type = Stem;
},
{
horizontal = 1;
place = "{-4, 21}";
target = up;
type = BottomGhost;
},
{
horizontal = 1;
place = "{256, 75}";
type = Stem;
},
{
horizontal = 1;
place = "{416, 95}";
type = Stem;
}
);
layerId = "1430537E-70AD-4C42-AE0B-37D64AC877DB";
paths = (
{
closed = 1;
nodes = (
"506 -4 LINE",
"506 309 LINE SMOOTH",
"506 443 OFFCURVE",
"408 511 OFFCURVE",
"268 511 CURVE SMOOTH",
"188 511 OFFCURVE",
"121 491 OFFCURVE",
"70 469 CURVE",
"70 372 LINE",
"129 404 OFFCURVE",
"189 416 OFFCURVE",
"249 416 CURVE SMOOTH",
"335 416 OFFCURVE",
"389 389 OFFCURVE",
"389 317 CURVE SMOOTH",
"389 301 LINE",
"350 322 OFFCURVE",
"299 331 OFFCURVE",
"244 331 CURVE SMOOTH",
"136 331 OFFCURVE",
"33 287 OFFCURVE",
"33 166 CURVE SMOOTH",
"33 52 OFFCURVE",
"129 -11 OFFCURVE",
"228 -11 CURVE SMOOTH",
"296 -11 OFFCURVE",
"345 11 OFFCURVE",
"388 51 CURVE"
);
},
{
closed = 1;
nodes = (
"389 128 LINE",
"358 93 OFFCURVE",
"317 74 OFFCURVE",
"264 74 CURVE SMOOTH",
"203 74 OFFCURVE",
"149 104 OFFCURVE",
"149 164 CURVE SMOOTH",
"149 227 OFFCURVE",
"210 256 OFFCURVE",
"272 256 CURVE SMOOTH",
"324 256 OFFCURVE",
"362 241 OFFCURVE",
"389 226 CURVE"
);
}
);
width = 569;
}
);
unicode = 0061;
},
{
glyphname = b;
layers = (
{
hints = (
{
place = "{62, 118}";
type = Stem;
},
{
place = "{480, 117}";
type = Stem;
},
{
horizontal = 1;
place = "{-11, 99}";
type = Stem;
},
{
horizontal = 1;
place = "{-3, 21}";
target = up;
type = BottomGhost;
},
{
horizontal = 1;
place = "{413, 101}";
type = Stem;
}
);
layerId = "1430537E-70AD-4C42-AE0B-37D64AC877DB";
paths = (
{
closed = 1;
nodes = (
"488 -11 OFFCURVE",
"597 92 OFFCURVE",
"597 251 CURVE SMOOTH",
"597 411 OFFCURVE",
"489 514 OFFCURVE",
"359 514 CURVE SMOOTH",
"278 514 OFFCURVE",
"221 474 OFFCURVE",
"180 419 CURVE",
"180 731 LINE",
"62 731 LINE",
"62 -3 LINE",
"186 69 LINE",
"222 24 OFFCURVE",
"277 -11 OFFCURVE",
"358 -11 CURVE SMOOTH"
);
},
{
closed = 1;
nodes = (
"480 155 OFFCURVE",
"415 88 OFFCURVE",
"328 88 CURVE SMOOTH",
"245 88 OFFCURVE",
"177 158 OFFCURVE",
"177 251 CURVE SMOOTH",
"177 345 OFFCURVE",
"245 413 OFFCURVE",
"328 413 CURVE SMOOTH",
"417 413 OFFCURVE",
"480 342 OFFCURVE",
"480 251 CURVE SMOOTH"
);
}
);
width = 629;
}
);
unicode = 0062;
},
{
glyphname = c;
layers = (
{
hints = (
{
horizontal = 1;
place = "{-10, 99}";
type = Stem;
},
{
horizontal = 1;
place = "{413, 99}";
type = Stem;
},
{
place = "{33, 117}";
type = Stem;
}
);
layerId = "1430537E-70AD-4C42-AE0B-37D64AC877DB";
paths = (
{
closed = 1;
nodes = (
"424 480 LINE",
"390 502 OFFCURVE",
"340 512 OFFCURVE",
"296 512 CURVE SMOOTH",
"140 512 OFFCURVE",
"33 393 OFFCURVE",
"33 250 CURVE SMOOTH",
"33 104 OFFCURVE",
"144 -10 OFFCURVE",
"291 -10 CURVE SMOOTH",
"344 -10 OFFCURVE",
"392 5 OFFCURVE",
"429 25 CURVE",
"429 144 LINE",
"394 109 OFFCURVE",
"351 89 OFFCURVE",
"303 89 CURVE SMOOTH",
"217 89 OFFCURVE",
"150 164 OFFCURVE",
"150 254 CURVE SMOOTH",
"150 344 OFFCURVE",
"213 413 OFFCURVE",
"300 413 CURVE SMOOTH",
"349 413 OFFCURVE",
"390 392 OFFCURVE",
"424 358 CURVE"
);
}
);
width = 471;
}
);
unicode = 0063;
},
{
glyphname = d;
layers = (
{
hints = (
{
place = "{33, 118}";
type = Stem;
},
{
place = "{449, 118}";
type = Stem;
},
{
horizontal = 1;
place = "{-11, 100}";
type = Stem;
},
{
horizontal = 1;
place = "{-3, 21}";
target = up;
type = BottomGhost;
},
{
horizontal = 1;
place = "{414, 100}";
type = Stem;
}
);
layerId = "1430537E-70AD-4C42-AE0B-37D64AC877DB";
paths = (
{
closed = 1;
nodes = (
"567 -3 LINE",
"567 731 LINE",
"449 731 LINE",
"449 424 LINE",
"409 477 OFFCURVE",
"351 514 OFFCURVE",
"270 514 CURVE SMOOTH",
"142 514 OFFCURVE",
"33 411 OFFCURVE",
"33 251 CURVE SMOOTH",
"33 90 OFFCURVE",
"143 -11 OFFCURVE",
"273 -11 CURVE SMOOTH",
"352 -11 OFFCURVE",
"400 25 OFFCURVE",
"442 75 CURVE"
);
},
{
closed = 1;
nodes = (
"151 349 OFFCURVE",
"217 414 OFFCURVE",
"298 414 CURVE SMOOTH",
"380 414 OFFCURVE",
"452 346 OFFCURVE",
"452 252 CURVE SMOOTH",
"452 157 OFFCURVE",
"382 89 OFFCURVE",
"298 89 CURVE SMOOTH",
"215 89 OFFCURVE",
"151 156 OFFCURVE",
"151 251 CURVE SMOOTH"
);
}
);
width = 629;
}
);
unicode = 0064;
},
{
glyphname = e;
layers = (
{
hints = (
{
horizontal = 1;
place = "{-13, 93}";
type = Stem;
},
{
horizontal = 1;
place = "{419, 94}";
type = Stem;
},
{
place = "{33, 114}";
type = Stem;
}
);
layerId = "1430537E-70AD-4C42-AE0B-37D64AC877DB";
paths = (
{
closed = 1;
nodes = (
"228 80 OFFCURVE",
"181 114 OFFCURVE",
"158 166 CURVE",
"526 257 LINE",
"515 394 OFFCURVE",
"432 513 OFFCURVE",
"281 513 CURVE SMOOTH",
"133 513 OFFCURVE",
"33 398 OFFCURVE",
"33 249 CURVE SMOOTH",
"33 96 OFFCURVE",
"143 -13 OFFCURVE",
"294 -13 CURVE SMOOTH",
"361 -13 OFFCURVE",
"429 7 OFFCURVE",
"479 43 CURVE",
"479 151 LINE",
"437 111 OFFCURVE",
"370 80 OFFCURVE",
"298 80 CURVE SMOOTH"
);
},
{
closed = 1;
nodes = (
"147 256 LINE",
"147 337 OFFCURVE",
"190 419 OFFCURVE",
"280 419 CURVE SMOOTH",
"346 419 OFFCURVE",
"393 376 OFFCURVE",
"409 317 CURVE",
"149 251 LINE"
);
}
);
width = 558;
}
);
unicode = 0065;
},
{
glyphname = f;
layers = (
{
hints = (
{
horizontal = 1;
place = "{0, 21}";
target = up;
type = BottomGhost;
},
{
horizontal = 1;
place = "{405, 95}";
type = Stem;
},
{
horizontal = 1;
place = "{645, 91}";
type = Stem;
},
{
place = "{103, 116}";
type = Stem;
}
);
layerId = "1430537E-70AD-4C42-AE0B-37D64AC877DB";
paths = (
{
closed = 1;
nodes = (
"351 725 LINE",
"330 731 OFFCURVE",
"304 736 OFFCURVE",
"271 736 CURVE SMOOTH",
"168 736 OFFCURVE",
"103 684 OFFCURVE",
"103 555 CURVE SMOOTH",
"103 501 LINE",
"10 405 LINE",
"103 405 LINE",
"103 0 LINE",
"219 0 LINE",
"219 405 LINE",
"340 405 LINE",
"340 500 LINE",
"208 500 LINE",
"208 551 LINE SMOOTH",
"208 613 OFFCURVE",
"237 645 OFFCURVE",
"291 645 CURVE SMOOTH",
"310 645 OFFCURVE",
"332 642 OFFCURVE",
"351 635 CURVE"
);
}
);
width = 348;
}
);
unicode = 0066;
},
{
glyphname = g;
layers = (
{
hints = (
{
place = "{37, 119}";
type = Stem;
},
{
place = "{454, 117}";
type = Stem;
},
{
horizontal = 1;
place = "{-183, 92}";
type = Stem;
},
{
horizontal = 1;
place = "{29, 96}";
type = Stem;
},
{
horizontal = 1;
place = "{418, 96}";
type = Stem;
},
{
horizontal = 1;
place = "{502, -20}";
target = down;
type = TopGhost;
}
);
layerId = "1430537E-70AD-4C42-AE0B-37D64AC877DB";
paths = (
{
closed = 1;
nodes = (
"199 -91 OFFCURVE",
"125 -63 OFFCURVE",
"70 -21 CURVE",
"70 -131 LINE",
"128 -163 OFFCURVE",
"194 -183 OFFCURVE",
"278 -183 CURVE SMOOTH",
"449 -183 OFFCURVE",
"571 -94 OFFCURVE",
"571 81 CURVE SMOOTH",
"571 502 LINE",
"446 434 LINE",
"405 481 OFFCURVE",
"353 514 OFFCURVE",
"274 514 CURVE SMOOTH",
"145 514 OFFCURVE",
"37 417 OFFCURVE",
"37 269 CURVE SMOOTH",
"37 126 OFFCURVE",
"141 29 OFFCURVE",
"274 29 CURVE SMOOTH",
"355 29 OFFCURVE",
"410 66 OFFCURVE",
"454 120 CURVE",
"454 73 LINE SMOOTH",
"454 -42 OFFCURVE",
"391 -91 OFFCURVE",
"278 -91 CURVE SMOOTH"
);
},
{
closed = 1;
nodes = (
"156 358 OFFCURVE",
"217 418 OFFCURVE",
"303 418 CURVE SMOOTH",
"388 418 OFFCURVE",
"454 356 OFFCURVE",
"454 271 CURVE SMOOTH",
"454 186 OFFCURVE",
"388 125 OFFCURVE",
"304 125 CURVE SMOOTH",
"218 125 OFFCURVE",
"156 186 OFFCURVE",
"156 272 CURVE SMOOTH"
);
}
);
width = 634;
}
);
unicode = 0067;
},
{
glyphname = h;
layers = (
{
hints = (
{
horizontal = 1;
place = "{0, 21}";
target = up;
type = BottomGhost;
},
{
horizontal = 1;
place = "{403, 110}";
type = Stem;
},
{
place = "{62, 118}";
type = Stem;
},
{
place = "{399, 118}";
type = Stem;
}
);
layerId = "1430537E-70AD-4C42-AE0B-37D64AC877DB";
paths = (
{
closed = 1;
nodes = (
"266 513 OFFCURVE",
"210 477 OFFCURVE",
"175 433 CURVE",
"175 731 LINE",
"62 731 LINE",
"62 0 LINE",
"180 0 LINE",
"180 284 LINE SMOOTH",
"180 363 OFFCURVE",
"237 403 OFFCURVE",
"299 403 CURVE SMOOTH",
"364 403 OFFCURVE",
"399 363 OFFCURVE",
"399 284 CURVE SMOOTH",
"399 0 LINE",
"517 0 LINE",
"517 320 LINE SMOOTH",
"517 450 OFFCURVE",
"447 513 OFFCURVE",
"341 513 CURVE SMOOTH"
);
}
);
width = 573;
}
);
unicode = 0068;
},
{
glyphname = i;
layers = (
{
hints = (
{
place = "{48, 153}";
type = Stem;
},
{
place = "{67, 117}";
type = Stem;
},
{
horizontal = 1;
place = "{0, 21}";
target = up;
type = BottomGhost;
},
{
horizontal = 1;
place = "{502, -20}";
target = down;
type = TopGhost;
},
{
horizontal = 1;
place = "{581, 144}";
type = Stem;
}
);
layerId = "1430537E-70AD-4C42-AE0B-37D64AC877DB";
paths = (
{
closed = 1;
nodes = (
"48 611 OFFCURVE",
"83 581 OFFCURVE",
"124 581 CURVE SMOOTH",
"167 581 OFFCURVE",
"201 611 OFFCURVE",
"201 653 CURVE SMOOTH",
"201 698 OFFCURVE",
"167 725 OFFCURVE",
"124 725 CURVE SMOOTH",
"83 725 OFFCURVE",
"48 698 OFFCURVE",
"48 653 CURVE SMOOTH"
);
},
{
closed = 1;
nodes = (
"184 502 LINE",
"67 502 LINE",
"67 0 LINE",
"184 0 LINE"
);
}
);
width = 250;
}
);
unicode = 0069;
},
{
glyphname = j;
layers = (
{
hints = (
{
place = "{110, 151}";
type = Stem;
},
{
place = "{130, 117}";
type = Stem;
},
{
horizontal = 1;
place = "{-184, 90}";
type = Stem;
},
{
horizontal = 1;
place = "{502, -20}";
target = down;
type = TopGhost;
},
{
horizontal = 1;
place = "{581, 144}";
type = Stem;
}
);
layerId = "1430537E-70AD-4C42-AE0B-37D64AC877DB";
paths = (
{
closed = 1;
nodes = (
"110 611 OFFCURVE",
"143 581 OFFCURVE",
"185 581 CURVE SMOOTH",
"226 581 OFFCURVE",
"261 611 OFFCURVE",
"261 653 CURVE SMOOTH",
"261 698 OFFCURVE",
"226 725 OFFCURVE",
"185 725 CURVE SMOOTH",
"143 725 OFFCURVE",
"110 698 OFFCURVE",
"110 653 CURVE SMOOTH"
);
},
{
closed = 1;
nodes = (
"48 -177 LINE",
"65 -181 OFFCURVE",
"83 -184 OFFCURVE",
"107 -184 CURVE SMOOTH",
"215 -184 OFFCURVE",
"247 -119 OFFCURVE",
"247 -17 CURVE SMOOTH",
"247 502 LINE",
"130 502 LINE",
"130 -31 LINE SMOOTH",
"130 -68 OFFCURVE",
"119 -94 OFFCURVE",
"82 -94 CURVE SMOOTH",
"71 -94 OFFCURVE",
"60 -91 OFFCURVE",
"48 -87 CURVE"
);
}
);
width = 311;
}
);
unicode = 006A;
},
{
glyphname = k;
layers = (
{
hints = (
{
horizontal = 1;
place = "{0, 21}";
target = up;
type = BottomGhost;
},
{
horizontal = 1;
place = "{502, -20}";
target = down;
type = TopGhost;
},
{
place = "{62, 118}";
type = Stem;
}
);
layerId = "1430537E-70AD-4C42-AE0B-37D64AC877DB";
paths = (
{
closed = 1;
nodes = (
"180 731 LINE",
"62 731 LINE",
"62 0 LINE",
"180 0 LINE",
"180 238 LINE",
"364 0 LINE",
"501 0 LINE",
"285 277 LINE",
"493 502 LINE",
"352 502 LINE",
"180 307 LINE"
);
}
);
width = 501;
}
);
unicode = 006B;
},
{
glyphname = l;
layers = (
{
hints = (
{
horizontal = 1;
place = "{0, 21}";
target = up;
type = BottomGhost;
},
{
place = "{62, 117}";
type = Stem;
}
);
layerId = "1430537E-70AD-4C42-AE0B-37D64AC877DB";
paths = (
{
closed = 1;
nodes = (
"179 731 LINE",
"62 731 LINE",
"62 0 LINE",
"179 0 LINE"
);
}
);
width = 242;
}
);
unicode = 006C;
},
{
glyphname = m;
layers = (
{
hints = (
{
horizontal = 1;
place = "{0, 21}";
target = up;
type = BottomGhost;
},
{
horizontal = 1;
place = "{409, 104}";
type = Stem;
},
{
place = "{62, 118}";
type = Stem;
},
{
place = "{384, 118}";
type = Stem;
},
{
place = "{707, 118}";
type = Stem;
}
);
layerId = "1430537E-70AD-4C42-AE0B-37D64AC877DB";
paths = (
{
closed = 1;
nodes = (
"825 0 LINE",
"825 321 LINE SMOOTH",
"825 428 OFFCURVE",
"768 513 OFFCURVE",
"653 513 CURVE SMOOTH",
"579 513 OFFCURVE",
"518 481 OFFCURVE",
"482 424 CURVE",
"454 486 OFFCURVE",
"397 513 OFFCURVE",
"333 513 CURVE SMOOTH",
"272 513 OFFCURVE",
"215 488 OFFCURVE",
"178 438 CURVE",
"62 501 LINE",
"62 0 LINE",
"180 0 LINE",
"180 284 LINE SMOOTH",
"180 354 OFFCURVE",
"220 409 OFFCURVE",
"287 409 CURVE SMOOTH",
"356 409 OFFCURVE",
"384 357 OFFCURVE",
"384 284 CURVE SMOOTH",
"384 0 LINE",
"502 0 LINE",
"502 284 LINE SMOOTH",
"502 350 OFFCURVE",
"540 409 OFFCURVE",
"611 409 CURVE SMOOTH",
"670 409 OFFCURVE",
"707 371 OFFCURVE",
"707 284 CURVE SMOOTH",
"707 0 LINE"
);
}
);
width = 881;
}
);
unicode = 006D;
},
{
glyphname = n;
layers = (
{
hints = (
{
place = "{62, 118}";
type = Stem;
},
{
place = "{398, 118}";
type = Stem;
},
{
horizontal = 1;
place = "{0, 21}";
target = up;
type = BottomGhost;
},
{
horizontal = 1;
place = "{409, 104}";
type = Stem;
},
{
horizontal = 1;
place = "{502, -20}";
target = down;
type = TopGhost;
}
);
layerId = "1430537E-70AD-4C42-AE0B-37D64AC877DB";
paths = (
{
closed = 1;
nodes = (
"267 513 OFFCURVE",
"217 479 OFFCURVE",
"181 436 CURVE",
"62 502 LINE",
"62 0 LINE",
"180 0 LINE",
"180 284 LINE SMOOTH",
"180 377 OFFCURVE",
"243 409 OFFCURVE",
"294 409 CURVE SMOOTH",
"347 409 OFFCURVE",
"398 376 OFFCURVE",
"398 284 CURVE SMOOTH",
"398 0 LINE",
"516 0 LINE",
"516 320 LINE SMOOTH",
"516 444 OFFCURVE",
"445 513 OFFCURVE",
"339 513 CURVE SMOOTH"
);
}
);
width = 573;
}
);
unicode = 006E;
},
{
glyphname = o;
layers = (
{
hints = (
{
horizontal = 1;
place = "{-11, 100}";
type = Stem;
},
{
horizontal = 1;
place = "{414, 100}";
type = Stem;
},
{
place = "{33, 117}";
type = Stem;
},
{
place = "{460, 117}";
type = Stem;
}
);
layerId = "1430537E-70AD-4C42-AE0B-37D64AC877DB";
paths = (
{
closed = 1;
nodes = (
"577 398 OFFCURVE",
"462 514 OFFCURVE",
"305 514 CURVE SMOOTH",
"148 514 OFFCURVE",
"33 396 OFFCURVE",
"33 250 CURVE SMOOTH",
"33 104 OFFCURVE",
"147 -11 OFFCURVE",
"303 -11 CURVE SMOOTH",
"461 -11 OFFCURVE",
"577 107 OFFCURVE",
"577 252 CURVE SMOOTH"
);
},
{
closed = 1;
nodes = (
"460 163 OFFCURVE",
"396 89 OFFCURVE",
"305 89 CURVE SMOOTH",
"216 89 OFFCURVE",
"150 160 OFFCURVE",
"150 252 CURVE SMOOTH",
"150 341 OFFCURVE",
"211 414 OFFCURVE",
"303 414 CURVE SMOOTH",
"395 414 OFFCURVE",
"460 340 OFFCURVE",
"460 251 CURVE SMOOTH"
);
}
);
width = 610;
}
);
unicode = 006F;
},
{
glyphname = p;
layers = (
{
hints = (
{
place = "{63, 118}";
type = Stem;
},
{
place = "{480, 117}";
type = Stem;
},
{
horizontal = 1;
place = "{-179, 21}";
target = up;
type = BottomGhost;
},
{
horizontal = 1;
place = "{-11, 99}";
type = Stem;
},
{
horizontal = 1;
place = "{413, 101}";
type = Stem;
},
{
horizontal = 1;
place = "{502, -20}";
target = down;
type = TopGhost;
}
);
layerId = "1430537E-70AD-4C42-AE0B-37D64AC877DB";
paths = (
{
closed = 1;
nodes = (
"181 78 LINE",
"222 24 OFFCURVE",
"278 -11 OFFCURVE",
"359 -11 CURVE SMOOTH",
"485 -11 OFFCURVE",
"597 92 OFFCURVE",
"597 252 CURVE SMOOTH",
"597 411 OFFCURVE",
"487 514 OFFCURVE",
"359 514 CURVE SMOOTH",
"278 514 OFFCURVE",
"230 477 OFFCURVE",
"187 427 CURVE",
"63 502 LINE",
"63 -179 LINE",
"181 -179 LINE"
);
},
{
closed = 1;
nodes = (
"480 153 OFFCURVE",
"414 88 OFFCURVE",
"331 88 CURVE SMOOTH",
"248 88 OFFCURVE",
"177 158 OFFCURVE",
"177 251 CURVE SMOOTH",
"177 345 OFFCURVE",
"246 413 OFFCURVE",
"329 413 CURVE SMOOTH",
"415 413 OFFCURVE",
"480 347 OFFCURVE",
"480 252 CURVE SMOOTH"
);
}
);
width = 630;
}
);
unicode = 0070;
},
{
glyphname = q;
layers = (
{
hints = (
{
place = "{33, 118}";
type = Stem;
},
{
place = "{448, 118}";
type = Stem;
},
{
horizontal = 1;
place = "{-179, 21}";
target = up;
type = BottomGhost;
},
{
horizontal = 1;
place = "{-11, 99}";
type = Stem;
},
{
horizontal = 1;
place = "{414, 100}";
type = Stem;
},
{
horizontal = 1;
place = "{502, -20}";
target = down;
type = TopGhost;
}
);
layerId = "1430537E-70AD-4C42-AE0B-37D64AC877DB";
paths = (
{
closed = 1;
nodes = (
"566 -179 LINE",
"566 502 LINE",
"442 432 LINE",
"400 478 OFFCURVE",
"352 514 OFFCURVE",
"272 514 CURVE SMOOTH",
"141 514 OFFCURVE",
"33 411 OFFCURVE",
"33 251 CURVE SMOOTH",
"33 94 OFFCURVE",
"141 -11 OFFCURVE",
"272 -11 CURVE SMOOTH",
"352 -11 OFFCURVE",
"406 27 OFFCURVE",
"448 82 CURVE",
"448 -179 LINE"
);
},
{
closed = 1;
nodes = (
"151 349 OFFCURVE",
"216 414 OFFCURVE",
"301 414 CURVE SMOOTH",
"383 414 OFFCURVE",
"453 346 OFFCURVE",
"453 252 CURVE SMOOTH",
"453 159 OFFCURVE",
"382 88 OFFCURVE",
"300 88 CURVE SMOOTH",
"216 88 OFFCURVE",
"151 159 OFFCURVE",
"151 253 CURVE SMOOTH"
);
}
);
width = 629;
}
);
unicode = 0071;
},
{
glyphname = r;
layers = (
{
hints = (
{
place = "{62, 118}";
type = Stem;
},
{
horizontal = 1;
place = "{0, 21}";
target = up;
type = BottomGhost;
},
{
horizontal = 1;
place = "{396, 115}";
type = Stem;
},
{
horizontal = 1;
place = "{502, -20}";
target = down;
type = TopGhost;
},
{
horizontal = 1;
place = "{507, -20}";
target = down;
type = TopGhost;
}
);
layerId = "1430537E-70AD-4C42-AE0B-37D64AC877DB";
paths = (
{
closed = 1;
nodes = (
"365 507 LINE",
"355 509 OFFCURVE",
"345 511 OFFCURVE",
"334 511 CURVE SMOOTH",
"271 511 OFFCURVE",
"216 481 OFFCURVE",
"181 429 CURVE",
"62 502 LINE",
"62 0 LINE",
"180 0 LINE",
"180 237 LINE SMOOTH",
"180 349 OFFCURVE",
"254 396 OFFCURVE",
"330 396 CURVE SMOOTH",
"344 396 OFFCURVE",
"355 395 OFFCURVE",
"365 390 CURVE"
);
}
);
width = 368;
}
);
unicode = 0072;
},
{
glyphname = s;
layers = (
{
hints = (
{
horizontal = 1;
place = "{-11, 90}";
type = Stem;
},
{
horizontal = 1;
place = "{423, 90}";
type = Stem;
},
{
place = "{27, 110}";
type = Stem;
},
{
place = "{279, 110}";
type = Stem;
}
);
layerId = "1430537E-70AD-4C42-AE0B-37D64AC877DB";
paths = (
{
closed = 1;
nodes = (
"138 79 OFFCURVE",
"72 114 OFFCURVE",
"23 154 CURVE",
"23 43 LINE",
"74 15 OFFCURVE",
"129 -11 OFFCURVE",
"204 -11 CURVE SMOOTH",
"317 -11 OFFCURVE",
"389 55 OFFCURVE",
"389 143 CURVE SMOOTH",
"389 308 OFFCURVE",
"137 298 OFFCURVE",
"137 379 CURVE SMOOTH",
"137 403 OFFCURVE",
"159 423 OFFCURVE",
"200 423 CURVE SMOOTH",
"249 423 OFFCURVE",
"305 395 OFFCURVE",
"350 362 CURVE",
"350 473 LINE",
"305 500 OFFCURVE",
"256 513 OFFCURVE",
"200 513 CURVE SMOOTH",
"95 513 OFFCURVE",
"27 460 OFFCURVE",
"27 375 CURVE SMOOTH",
"27 212 OFFCURVE",
"279 236 OFFCURVE",
"279 138 CURVE SMOOTH",
"279 97 OFFCURVE",
"241 79 OFFCURVE",
"199 79 CURVE SMOOTH"
);
}
);
width = 420;
}
);
unicode = 0073;
},
{
glyphname = t;
layers = (
{
hints = (
{
horizontal = 1;
place = "{-11, 101}";
type = Stem;
},
{
horizontal = 1;
place = "{404, 98}";
type = Stem;
},
{
place = "{113, 117}";
type = Stem;
}
);
layerId = "1430537E-70AD-4C42-AE0B-37D64AC877DB";
paths = (
{
closed = 1;
nodes = (
"113 136 LINE SMOOTH",
"113 52 OFFCURVE",
"161 -11 OFFCURVE",
"250 -11 CURVE SMOOTH",
"280 -11 OFFCURVE",
"305 -5 OFFCURVE",
"327 6 CURVE",
"327 102 LINE",
"308 93 OFFCURVE",
"292 90 OFFCURVE",
"277 90 CURVE SMOOTH",
"244 90 OFFCURVE",
"230 112 OFFCURVE",
"230 143 CURVE SMOOTH",
"230 404 LINE",
"357 404 LINE",
"357 502 LINE",
"230 502 LINE",
"230 669 LINE",
"13 404 LINE",
"113 404 LINE"
);
}
);
width = 370;
}
);
unicode = 0074;
},
{
glyphname = u;
layers = (
{
hints = (
{
place = "{57, 118}";
type = Stem;
},
{
place = "{393, 118}";
type = Stem;
},
{
horizontal = 1;
place = "{-11, 105}";
type = Stem;
},
{
horizontal = 1;
place = "{-4, 21}";
target = up;
type = BottomGhost;
},
{
horizontal = 1;
place = "{502, -20}";
target = down;
type = TopGhost;
}
);
layerId = "1430537E-70AD-4C42-AE0B-37D64AC877DB";
paths = (
{
closed = 1;
nodes = (
"307 -11 OFFCURVE",
"358 20 OFFCURVE",
"392 62 CURVE",
"511 -4 LINE",
"511 502 LINE",
"393 502 LINE",
"393 218 LINE SMOOTH",
"393 125 OFFCURVE",
"332 94 OFFCURVE",
"279 94 CURVE SMOOTH",
"226 94 OFFCURVE",
"175 126 OFFCURVE",
"175 218 CURVE SMOOTH",
"175 502 LINE",
"57 502 LINE",
"57 182 LINE SMOOTH",
"57 56 OFFCURVE",
"124 -11 OFFCURVE",
"234 -11 CURVE SMOOTH"
);
}
);
width = 567;
}
);
unicode = 0075;
},
{
glyphname = v;
layers = (
{
hints = (
{
horizontal = 1;
place = "{-1, 21}";
target = up;
type = BottomGhost;
},
{
place = "{-5, 525}";
type = Stem;
}
);
layerId = "1430537E-70AD-4C42-AE0B-37D64AC877DB";
paths = (
{
closed = 1;
nodes = (
"520 501 LINE",
"397 501 LINE",
"259 136 LINE",
"122 501 LINE",
"-5 501 LINE",
"202 -1 LINE",
"314 -1 LINE"
);
}
);
width = 516;
}
);
unicode = 0076;
},
{
glyphname = w;
layers = (
{
hints = (
{
place = "{-3, 767}";
type = Stem;
},
{
horizontal = 1;
place = "{-1, 157}";
type = Stem;
},
{
horizontal = 1;
place = "{-1, 21}";
target = up;
type = BottomGhost;
},
{
horizontal = 1;
place = "{502, -20}";
target = down;
type = TopGhost;
},
{
horizontal = 1;
place = "{503, -20}";
target = down;
type = TopGhost;
}
);
layerId = "1430537E-70AD-4C42-AE0B-37D64AC877DB";
paths = (
{
closed = 1;
nodes = (
"-3 502 LINE",
"162 -1 LINE",
"269 -1 LINE",
"379 356 LINE",
"491 -1 LINE",
"599 -1 LINE",
"764 502 LINE",
"646 502 LINE",
"542 156 LINE",
"436 503 LINE",
"328 503 LINE",
"222 156 LINE",
"116 502 LINE"
);
}
);
width = 761;
}
);
unicode = 0077;
},
{
glyphname = x;
layers = (
{
hints = (
{
horizontal = 1;
place = "{0, 21}";
target = up;
type = BottomGhost;
},
{
place = "{5, 510}";
type = Stem;
}
);
layerId = "1430537E-70AD-4C42-AE0B-37D64AC877DB";
paths = (
{
closed = 1;
nodes = (
"5 0 LINE",
"133 0 LINE",
"259 174 LINE",
"385 0 LINE",
"515 0 LINE",
"326 259 LINE",
"504 501 LINE",
"377 501 LINE",
"261 341 LINE",
"146 501 LINE",
"15 501 LINE",
"195 257 LINE"
);
}
);
width = 520;
}
);
unicode = 0078;
},
{
glyphname = y;
layers = (
{
hints = (
{
horizontal = 1;
place = "{-179, 21}";
target = up;
type = BottomGhost;
},
{
place = "{-5, 527}";
type = Stem;
}
);
layerId = "1430537E-70AD-4C42-AE0B-37D64AC877DB";
paths = (
{
closed = 1;
nodes = (
"216 -2 LINE",
"150 -179 LINE",
"256 -179 LINE",
"522 501 LINE",
"400 501 LINE",
"267 130 LINE",
"121 501 LINE",
"-5 501 LINE"
);
}
);
width = 518;
}
);
unicode = 0079;
},
{
glyphname = z;
layers = (
{
hints = (
{
horizontal = 1;
place = "{0, 97}";
type = Stem;
},
{
horizontal = 1;
place = "{406, 96}";
type = Stem;
},
{
place = "{13, 479}";
type = Stem;
}
);
layerId = "1430537E-70AD-4C42-AE0B-37D64AC877DB";
paths = (
{
closed = 1;
nodes = (
"492 415 LINE",
"492 502 LINE",
"30 502 LINE",
"30 406 LINE",
"342 406 LINE",
"13 88 LINE",
"13 0 LINE",
"488 0 LINE",
"488 97 LINE",
"162 97 LINE"
);
}
);
width = 515;
}
);
unicode = 007A;
},
{
glyphname = braceleft;
layers = (
{
hints = (
{
horizontal = 1;
place = "{243, 90}";
type = Stem;
},
{
place = "{156, 112}";
type = Stem;
}
);
layerId = "1430537E-70AD-4C42-AE0B-37D64AC877DB";
paths = (
{
closed = 1;
nodes = (
"40 243 LINE",
"154 243 OFFCURVE",
"157 169 OFFCURVE",
"156 76 CURVE SMOOTH",
"153 -98 OFFCURVE",
"202 -136 OFFCURVE",
"377 -150 CURVE",
"385 -73 LINE",
"296 -56 OFFCURVE",
"267 -23 OFFCURVE",
"268 66 CURVE SMOOTH",
"269 168 OFFCURVE",
"270 245 OFFCURVE",
"168 288 CURVE",
"291 338 OFFCURVE",
"267 426 OFFCURVE",
"267 537 CURVE SMOOTH",
"267 619 OFFCURVE",
"314 635 OFFCURVE",
"385 649 CURVE",
"377 727 LINE",
"185 714 OFFCURVE",
"156 636 OFFCURVE",
"156 465 CURVE SMOOTH",
"156 376 OFFCURVE",
"142 333 OFFCURVE",
"40 333 CURVE"
);
}
);
width = 425;
}
);
unicode = 007B;
},
{
glyphname = bar;
layers = (
{
hints = (
{
horizontal = 1;
place = "{-155, 932}";
type = Stem;
},
{
place = "{256, 97}";
type = Stem;
}
);
layerId = "1430537E-70AD-4C42-AE0B-37D64AC877DB";
paths = (
{
closed = 1;
nodes = (
"256 777 LINE",
"256 -155 LINE",
"353 -155 LINE",
"353 777 LINE"
);
}
);
width = 608;
}
);
unicode = 007C;
},
{
glyphname = braceright;
layers = (
{
hints = (
{
horizontal = 1;
place = "{-150, 877}";
type = Stem;
},
{
place = "{157, 112}";
type = Stem;
}
);
layerId = "1430537E-70AD-4C42-AE0B-37D64AC877DB";
paths = (
{
closed = 1;
nodes = (
"385 333 LINE",
"242 331 OFFCURVE",
"270 429 OFFCURVE",
"270 529 CURVE SMOOTH",
"270 682 OFFCURVE",
"192 716 OFFCURVE",
"48 727 CURVE",
"40 649 LINE",
"130 632 OFFCURVE",
"158 600 OFFCURVE",
"157 510 CURVE SMOOTH",
"156 409 OFFCURVE",
"155 332 OFFCURVE",
"257 288 CURVE",
"155 245 OFFCURVE",
"156 167 OFFCURVE",
"157 66 CURVE",
"159 -23 OFFCURVE",
"129 -56 OFFCURVE",
"40 -73 CURVE",
"48 -150 LINE",
"243 -138 OFFCURVE",
"269 -64 OFFCURVE",
"269 115 CURVE SMOOTH",
"269 203 OFFCURVE",
"285 243 OFFCURVE",
"385 243 CURVE"
);
}
);
width = 425;
}
);
unicode = 007D;
},
{
glyphname = asciitilde;
layers = (
{
hints = (
{
place = "{49, 415}";
type = Stem;
},
{
horizontal = 1;
place = "{232, 92}";
type = Stem;
},
{
horizontal = 1;
place = "{282, 92}";
type = Stem;
}
);
layerId = "1430537E-70AD-4C42-AE0B-37D64AC877DB";
paths = (
{
closed = 1;
nodes = (
"402 380 LINE",
"386 345 OFFCURVE",
"364 324 OFFCURVE",
"334 324 CURVE SMOOTH",
"286 324 OFFCURVE",
"240 374 OFFCURVE",
"172 374 CURVE SMOOTH",
"111 374 OFFCURVE",
"76 337 OFFCURVE",
"49 255 CURVE",
"111 226 LINE",
"128 262 OFFCURVE",
"146 282 OFFCURVE",
"178 282 CURVE SMOOTH",
"230 282 OFFCURVE",
"286 232 OFFCURVE",
"346 232 CURVE SMOOTH",
"400 232 OFFCURVE",
"439 272 OFFCURVE",
"464 350 CURVE"
);
}
);
width = 514;
}
);
unicode = 007E;
},
{
glyphname = exclamdown;
layers = (
{
hints = (
{
place = "{78, 151}";
type = Stem;
},
{
place = "{87, 133}";
type = Stem;
},
{
horizontal = 1;
place = "{-179, 21}";
target = up;
type = BottomGhost;
},
{
horizontal = 1;
place = "{392, 143}";
type = Stem;
}
);
layerId = "1430537E-70AD-4C42-AE0B-37D64AC877DB";
paths = (
{
closed = 1;
nodes = (
"229 509 OFFCURVE",
"194 535 OFFCURVE",
"154 535 CURVE SMOOTH",
"112 535 OFFCURVE",
"78 509 OFFCURVE",
"78 464 CURVE SMOOTH",
"78 420 OFFCURVE",
"112 392 OFFCURVE",
"154 392 CURVE SMOOTH",
"194 392 OFFCURVE",
"229 420 OFFCURVE",
"229 464 CURVE SMOOTH"
);
},
{
closed = 1;
nodes = (
"222 -179 LINE",
"219 -67 LINE",
"189 314 LINE",
"119 314 LINE",
"89 -67 LINE",
"85 -179 LINE"
);
}
);
width = 308;
}
);
unicode = 00A1;
},
{
glyphname = cent;
layers = (
{
hints = (
{
place = "{34, 109}";
type = Stem;
},
{
place = "{291, 80}";
type = Stem;
},
{
horizontal = 1;
place = "{106, 96}";
type = Stem;
},
{
horizontal = 1;
place = "{525, 180}";
type = Stem;
},
{
horizontal = 1;
place = "{530, 175}";
type = Stem;
},
{
horizontal = 1;
place = "{619, 86}";
type = Stem;
}
);
layerId = "1430537E-70AD-4C42-AE0B-37D64AC877DB";
paths = (
{
closed = 1;
nodes = (
"450 580 LINE",
"423 600 OFFCURVE",
"394 613 OFFCURVE",
"366 619 CURVE",
"376 705 LINE",
"296 705 LINE",
"286 628 LINE",
"136 623 OFFCURVE",
"34 513 OFFCURVE",
"34 366 CURVE SMOOTH",
"34 249 OFFCURVE",
"108 150 OFFCURVE",
"218 118 CURVE",
"204 22 LINE",
"286 22 LINE",
"298 106 LINE",
"361 107 OFFCURVE",
"411 126 OFFCURVE",
"451 160 CURVE",
"451 271 LINE",
"414 232 OFFCURVE",
"363 202 OFFCURVE",
"306 202 CURVE",
"348 525 LINE",
"389 520 OFFCURVE",
"427 497 OFFCURVE",
"450 469 CURVE"
);
},
{
closed = 1;
nodes = (
"234 213 LINE",
"177 243 OFFCURVE",
"143 293 OFFCURVE",
"143 368 CURVE SMOOTH",
"143 464 OFFCURVE",
"194 523 OFFCURVE",
"275 530 CURVE"
);
}
);
width = 492;
}
);
unicode = 00A2;
},
{
glyphname = sterling;
layers = (
{
hints = (
{
horizontal = 1;
place = "{0, 100}";
type = Stem;
},
{
horizontal = 1;
place = "{291, 91}";
type = Stem;
},
{
horizontal = 1;
place = "{606, 109}";
type = Stem;
},
{
place = "{97, 122}";
type = Stem;
}
);
layerId = "1430537E-70AD-4C42-AE0B-37D64AC877DB";
paths = (
{
closed = 1;
nodes = (
"458 382 LINE",
"219 382 LINE",
"219 467 LINE SMOOTH",
"219 544 OFFCURVE",
"254 606 OFFCURVE",
"337 606 CURVE SMOOTH",
"395 606 OFFCURVE",
"430 583 OFFCURVE",
"464 542 CURVE",
"544 617 LINE",
"496 676 OFFCURVE",
"429 715 OFFCURVE",
"334 715 CURVE SMOOTH",
"183 715 OFFCURVE",
"97 613 OFFCURVE",
"97 467 CURVE SMOOTH",
"97 382 LINE",
"28 382 LINE",
"28 291 LINE",
"97 291 LINE",
"97 0 LINE",
"537 0 LINE",
"537 100 LINE",
"219 100 LINE",
"219 291 LINE",
"458 291 LINE"
);
}
);
width = 561;
}
);
unicode = 00A3;
},
{
glyphname = currency;
layers = (
{
hints = (
{
horizontal = 1;
place = "{72, 89}";
type = Stem;
},
{
horizontal = 1;
place = "{496, 88}";
type = Stem;
},
{
place = "{95, 95}";
type = Stem;
},
{
place = "{513, 97}";
type = Stem;
}
);
layerId = "1430537E-70AD-4C42-AE0B-37D64AC877DB";
paths = (
{
closed = 1;
nodes = (
"594 629 LINE",
"501 537 LINE",
"459 568 OFFCURVE",
"409 584 OFFCURVE",
"352 584 CURVE SMOOTH",
"296 584 OFFCURVE",
"245 569 OFFCURVE",
"200 536 CURVE",
"106 629 LINE",
"47 569 LINE",
"140 477 LINE",
"107 430 OFFCURVE",
"95 386 OFFCURVE",
"95 328 CURVE SMOOTH",
"95 268 OFFCURVE",
"110 221 OFFCURVE",
"143 179 CURVE",
"47 83 LINE",
"106 23 LINE",
"203 118 LINE",
"249 87 OFFCURVE",
"297 72 OFFCURVE",
"352 72 CURVE SMOOTH",
"406 72 OFFCURVE",
"455 88 OFFCURVE",
"500 117 CURVE",
"595 23 LINE",
"655 83 LINE",
"561 176 LINE",
"593 220 OFFCURVE",
"610 269 OFFCURVE",
"610 328 CURVE SMOOTH",
"610 387 OFFCURVE",
"593 432 OFFCURVE",
"563 479 CURVE",
"655 569 LINE"
);
},
{
closed = 1;
nodes = (
"448 496 OFFCURVE",
"513 424 OFFCURVE",
"513 328 CURVE SMOOTH",
"513 235 OFFCURVE",
"448 161 OFFCURVE",
"352 161 CURVE SMOOTH",
"255 161 OFFCURVE",
"190 236 OFFCURVE",
"190 328 CURVE SMOOTH",
"190 421 OFFCURVE",
"255 496 OFFCURVE",
"352 496 CURVE SMOOTH"
);
}
);
width = 702;
}
);
unicode = 00A4;
},
{
glyphname = yen;
layers = (
{
hints = (
{
place = "{248, 127}";
type = Stem;
},
{
place = "{252, 118}";
type = Stem;
},
{
horizontal = 1;
place = "{0, 213}";
type = Stem;
},
{
horizontal = 1;
place = "{128, 85}";
type = Stem;
},
{
horizontal = 1;
place = "{290, 84}";
type = Stem;
},
{
horizontal = 1;
place = "{703, -20}";
target = down;
type = TopGhost;
}
);
layerId = "1430537E-70AD-4C42-AE0B-37D64AC877DB";
paths = (
{
closed = 1;
nodes = (
"68 213 LINE",
"68 128 LINE",
"252 128 LINE",
"252 0 LINE",
"370 0 LINE",
"370 128 LINE",
"554 128 LINE",
"554 213 LINE",
"372 213 LINE",
"379 290 LINE",
"554 290 LINE",
"554 374 LINE",
"412 374 LINE",
"624 703 LINE",
"489 703 LINE",
"314 405 LINE",
"137 703 LINE",
"-2 703 LINE",
"210 374 LINE",
"68 374 LINE",
"68 290 LINE",
"243 290 LINE",
"253 213 LINE"
);
}
);
width = 622;
}
);
unicode = 00A5;
},
{
glyphname = brokenbar;
layers = (
{
hints = (
{
horizontal = 1;
place = "{-174, 850}";
type = Stem;
},
{
place = "{256, 106}";
type = Stem;
}
);
layerId = "1430537E-70AD-4C42-AE0B-37D64AC877DB";
paths = (
{
closed = 1;
nodes = (
"256 676 LINE",
"256 326 LINE",
"362 326 LINE",
"362 676 LINE"
);
},
{
closed = 1;
nodes = (
"256 173 LINE",
"256 -174 LINE",
"362 -174 LINE",
"362 173 LINE"
);
}
);
width = 618;
}
);
unicode = 00A6;
},
{
glyphname = section;
layers = (
{
hints = (
{
place = "{30, 100}";
type = Stem;
},
{
place = "{79, 112}";
type = Stem;
},
{
place = "{364, 113}";
type = Stem;
},
{
place = "{425, 100}";
type = Stem;
},
{
horizontal = 1;
place = "{-62, 89}";
type = Stem;
},
{
horizontal = 1;
place = "{-11, 21}";
target = up;
type = BottomGhost;
},
{
horizontal = 1;
place = "{631, 88}";
type = Stem;
}
);
layerId = "1430537E-70AD-4C42-AE0B-37D64AC877DB";
paths = (
{
closed = 1;
nodes = (
"438 672 LINE",
"396 701 OFFCURVE",
"341 719 OFFCURVE",
"278 719 CURVE SMOOTH",
"158 719 OFFCURVE",
"79 658 OFFCURVE",
"79 573 CURVE SMOOTH",
"79 524 OFFCURVE",
"107 485 OFFCURVE",
"143 460 CURVE",
"71 441 OFFCURVE",
"30 399 OFFCURVE",
"30 338 CURVE SMOOTH",
"30 266 OFFCURVE",
"94 217 OFFCURVE",
"228 180 CURVE",
"317 154 OFFCURVE",
"364 126 OFFCURVE",
"364 88 CURVE SMOOTH",
"364 48 OFFCURVE",
"333 27 OFFCURVE",
"278 27 CURVE SMOOTH",
"217 27 OFFCURVE",
"158 49 OFFCURVE",
"111 95 CURVE",
"111 -11 LINE",
"154 -42 OFFCURVE",
"210 -62 OFFCURVE",
"277 -62 CURVE SMOOTH",
"399 -62 OFFCURVE",
"477 2 OFFCURVE",
"477 91 CURVE SMOOTH",
"477 135 OFFCURVE",
"455 171 OFFCURVE",
"414 202 CURVE",
"483 222 OFFCURVE",
"525 260 OFFCURVE",
"525 324 CURVE SMOOTH",
"525 396 OFFCURVE",
"470 437 OFFCURVE",
"324 482 CURVE SMOOTH",
"222 514 OFFCURVE",
"191 545 OFFCURVE",
"191 573 CURVE SMOOTH",
"191 612 OFFCURVE",
"226 631 OFFCURVE",
"280 631 CURVE SMOOTH",
"340 631 OFFCURVE",
"387 608 OFFCURVE",
"438 567 CURVE"
);
},
{
closed = 1;
nodes = (
"425 269 OFFCURVE",
"393 244 OFFCURVE",
"342 244 CURVE",
"239 257 OFFCURVE",
"130 296 OFFCURVE",
"130 354 CURVE SMOOTH",
"130 392 OFFCURVE",
"164 412 OFFCURVE",
"214 417 CURVE",
"272 410 OFFCURVE",
"425 369 OFFCURVE",
"425 302 CURVE SMOOTH"
);
}
);
width = 569;
}
);
unicode = 00A7;
},
{
glyphname = dieresis;
layers = (
{
hints = (
{
horizontal = 1;
place = "{627, 136}";
type = Stem;
},
{
place = "{19, 138}";
type = Stem;
},
{
place = "{222, 136}";
type = Stem;
}
);
layerId = "1430537E-70AD-4C42-AE0B-37D64AC877DB";
paths = (
{
closed = 1;
nodes = (
"19 654 OFFCURVE",
"48 627 OFFCURVE",
"88 627 CURVE SMOOTH",
"125 627 OFFCURVE",
"157 654 OFFCURVE",
"157 695 CURVE SMOOTH",
"157 735 OFFCURVE",
"125 763 OFFCURVE",
"88 763 CURVE SMOOTH",
"48 763 OFFCURVE",
"19 735 OFFCURVE",
"19 695 CURVE SMOOTH"
);
},
{
closed = 1;
nodes = (
"222 654 OFFCURVE",
"252 627 OFFCURVE",
"290 627 CURVE SMOOTH",
"329 627 OFFCURVE",
"358 654 OFFCURVE",
"358 695 CURVE SMOOTH",
"358 735 OFFCURVE",
"329 763 OFFCURVE",
"290 763 CURVE SMOOTH",
"252 763 OFFCURVE",
"222 735 OFFCURVE",
"222 695 CURVE SMOOTH"
);
}
);
width = 377;
}
);
unicode = 00A8;
},
{
glyphname = copyright;
layers = (
{
hints = (
{
horizontal = 1;
place = "{-29, 60}";
type = Stem;
},
{
horizontal = 1;
place = "{140, 86}";
type = Stem;
},
{
horizontal = 1;
place = "{495, 86}";
type = Stem;
},
{
horizontal = 1;
place = "{681, 59}";
type = Stem;
},
{
place = "{32, 58}";
type = Stem;
},
{
place = "{204, 98}";
type = Stem;
},
{
place = "{737, 57}";
type = Stem;
}
);
layerId = "1430537E-70AD-4C42-AE0B-37D64AC877DB";
paths = (
{
closed = 1;
nodes = (
"625 -29 OFFCURVE",
"794 144 OFFCURVE",
"794 356 CURVE SMOOTH",
"794 568 OFFCURVE",
"624 740 OFFCURVE",
"413 740 CURVE SMOOTH",
"203 740 OFFCURVE",
"32 566 OFFCURVE",
"32 358 CURVE SMOOTH",
"32 145 OFFCURVE",
"199 -29 OFFCURVE",
"413 -29 CURVE SMOOTH"
);
},
{
closed = 1;
nodes = (
"232 31 OFFCURVE",
"90 178 OFFCURVE",
"90 357 CURVE SMOOTH",
"90 535 OFFCURVE",
"233 681 OFFCURVE",
"414 681 CURVE SMOOTH",
"594 681 OFFCURVE",
"737 535 OFFCURVE",
"737 356 CURVE SMOOTH",
"737 177 OFFCURVE",
"594 31 OFFCURVE",
"413 31 CURVE SMOOTH"
);
},
{
closed = 1;
nodes = (
"538 273 LINE",
"500 238 OFFCURVE",
"461 226 OFFCURVE",
"426 226 CURVE SMOOTH",
"352 226 OFFCURVE",
"302 286 OFFCURVE",
"302 362 CURVE SMOOTH",
"302 437 OFFCURVE",
"355 495 OFFCURVE",
"425 495 CURVE SMOOTH",
"468 495 OFFCURVE",
"510 475 OFFCURVE",
"539 447 CURVE",
"539 544 LINE",
"512 562 OFFCURVE",
"471 581 OFFCURVE",
"420 581 CURVE SMOOTH",
"292 581 OFFCURVE",
"204 485 OFFCURVE",
"204 362 CURVE SMOOTH",
"204 238 OFFCURVE",
"294 140 OFFCURVE",
"416 140 CURVE SMOOTH",
"467 140 OFFCURVE",
"506 157 OFFCURVE",
"538 182 CURVE"
);
}
);
width = 826;
}
);
unicode = 00A9;
},
{
glyphname = ordfeminine;
layers = (
{
hints = (
{
horizontal = 1;
place = "{298, 57}";
type = Stem;
},
{
horizontal = 1;
place = "{421, 50}";
type = Stem;
},
{
horizontal = 1;
place = "{565, 42}";
type = Stem;
},
{
horizontal = 1;
place = "{664, 58}";
type = Stem;
},
{
place = "{25, 67}";
type = Stem;
},
{
place = "{222, 68}";
type = Stem;
}
);
layerId = "1430537E-70AD-4C42-AE0B-37D64AC877DB";
paths = (
{
closed = 1;
nodes = (
"168 421 OFFCURVE",
"200 439 OFFCURVE",
"222 466 CURVE",
"222 427 LINE",
"290 427 LINE",
"290 600 LINE SMOOTH",
"290 682 OFFCURVE",
"241 722 OFFCURVE",
"159 722 CURVE SMOOTH",
"117 722 OFFCURVE",
"80 712 OFFCURVE",
"49 697 CURVE",
"67 643 LINE",
"92 656 OFFCURVE",
"120 664 OFFCURVE",
"150 664 CURVE SMOOTH",
"196 664 OFFCURVE",
"222 643 OFFCURVE",
"222 601 CURVE SMOOTH",
"222 594 LINE",
"198 602 OFFCURVE",
"176 607 OFFCURVE",
"145 607 CURVE SMOOTH",
"73 607 OFFCURVE",
"25 576 OFFCURVE",
"25 512 CURVE SMOOTH",
"25 453 OFFCURVE",
"76 421 OFFCURVE",
"128 421 CURVE SMOOTH"
);
},
{
closed = 1;
nodes = (
"117 471 OFFCURVE",
"92 486 OFFCURVE",
"92 516 CURVE SMOOTH",
"92 547 OFFCURVE",
"117 565 OFFCURVE",
"159 565 CURVE SMOOTH",
"185 565 OFFCURVE",
"205 560 OFFCURVE",
"222 552 CURVE",
"222 534 LINE SMOOTH",
"222 495 OFFCURVE",
"187 471 OFFCURVE",
"148 471 CURVE SMOOTH"
);
},
{
closed = 1;
nodes = (
"21 298 LINE",
"295 298 LINE",
"295 355 LINE",
"21 355 LINE"
);
}
);
width = 331;
}
);
unicode = 00AA;
},
{
glyphname = guillemotleft;
layers = (
{
hints = (
{
horizontal = 1;
place = "{41, 433}";
type = Stem;
},
{
place = "{42, 483}";
type = Stem;
}
);
layerId = "1430537E-70AD-4C42-AE0B-37D64AC877DB";
paths = (
{
closed = 1;
nodes = (
"164 258 LINE",
"294 438 LINE",
"201 474 LINE",
"42 256 LINE",
"201 41 LINE",
"293 81 LINE"
);
},
{
closed = 1;
nodes = (
"395 258 LINE",
"525 438 LINE",
"432 474 LINE",
"273 256 LINE",
"432 41 LINE",
"524 81 LINE"
);
}
);
width = 575;
}
);
unicode = 00AB;
},
{
glyphname = logicalnot;
layers = (
{
hints = (
{
horizontal = 1;
place = "{319, 94}";
type = Stem;
},
{
place = "{475, 95}";
type = Stem;
}
);
layerId = "1430537E-70AD-4C42-AE0B-37D64AC877DB";
paths = (
{
closed = 1;
nodes = (
"570 413 LINE",
"53 413 LINE",
"53 319 LINE",
"475 319 LINE",
"475 128 LINE",
"570 128 LINE"
);
}
);
width = 623;
}
);
unicode = 00AC;
},
{
glyphname = uni00AD;
layers = (
{
hints = (
{
horizontal = 1;
place = "{219, 107}";
type = Stem;
},
{
place = "{28, 290}";
type = Stem;
}
);
layerId = "1430537E-70AD-4C42-AE0B-37D64AC877DB";
paths = (
{
closed = 1;
nodes = (
"318 326 LINE",
"28 326 LINE",
"28 219 LINE",
"318 219 LINE"
);
}
);
width = 346;
}
);
unicode = 00AD;
},
{
glyphname = registered;
layers = (
{
hints = (
{
horizontal = 1;
place = "{-4, 54}";
type = Stem;
},
{
horizontal = 1;
place = "{313, 71}";
type = Stem;
},
{
horizontal = 1;
place = "{495, 71}";
type = Stem;
},
{
horizontal = 1;
place = "{660, 54}";
type = Stem;
},
{
place = "{20, 57}";
type = Stem;
},
{
place = "{243, 83}";
type = Stem;
},
{
place = "{456, 78}";
type = Stem;
},
{
place = "{686, 56}";
type = Stem;
}
);
layerId = "1430537E-70AD-4C42-AE0B-37D64AC877DB";
paths = (
{
closed = 1;
nodes = (
"20 159 OFFCURVE",
"181 -4 OFFCURVE",
"382 -4 CURVE SMOOTH",
"579 -4 OFFCURVE",
"742 161 OFFCURVE",
"742 356 CURVE SMOOTH",
"742 553 OFFCURVE",
"582 714 OFFCURVE",
"385 714 CURVE SMOOTH",
"181 714 OFFCURVE",
"20 554 OFFCURVE",
"20 356 CURVE SMOOTH"
);
},
{
closed = 1;
nodes = (
"77 525 OFFCURVE",
"212 660 OFFCURVE",
"384 660 CURVE SMOOTH",
"551 660 OFFCURVE",
"686 524 OFFCURVE",
"686 358 CURVE SMOOTH",
"686 191 OFFCURVE",
"552 50 OFFCURVE",
"382 50 CURVE SMOOTH",
"210 50 OFFCURVE",
"77 188 OFFCURVE",
"77 356 CURVE SMOOTH"
);
},
{
closed = 1;
nodes = (
"243 153 LINE",
"326 153 LINE",
"326 313 LINE",
"350 313 LINE",
"471 153 LINE",
"568 153 LINE",
"436 324 LINE",
"490 338 OFFCURVE",
"534 382 OFFCURVE",
"534 444 CURVE SMOOTH",
"534 518 OFFCURVE",
"478 566 OFFCURVE",
"396 566 CURVE SMOOTH",
"243 566 LINE"
);
},
{
closed = 1;
nodes = (
"326 384 LINE",
"326 495 LINE",
"386 495 LINE SMOOTH",
"432 495 OFFCURVE",
"456 468 OFFCURVE",
"456 439 CURVE SMOOTH",
"456 405 OFFCURVE",
"426 384 OFFCURVE",
"385 384 CURVE SMOOTH"
);
}
);
width = 762;
}
);
unicode = 00AE;
},
{
glyphname = degree;
layers = (
{
hints = (
{
horizontal = 1;
place = "{418, 67}";
type = Stem;
},
{
horizontal = 1;
place = "{665, 66}";
type = Stem;
},
{
place = "{35, 71}";
type = Stem;
},
{
place = "{283, 71}";
type = Stem;
}
);
layerId = "1430537E-70AD-4C42-AE0B-37D64AC877DB";
paths = (
{
closed = 1;
nodes = (
"354 662 OFFCURVE",
"282 731 OFFCURVE",
"194 731 CURVE SMOOTH",
"110 731 OFFCURVE",
"35 660 OFFCURVE",
"35 574 CURVE SMOOTH",
"35 489 OFFCURVE",
"108 418 OFFCURVE",
"194 418 CURVE SMOOTH",
"281 418 OFFCURVE",
"354 489 OFFCURVE",
"354 575 CURVE SMOOTH"
);
},
{
closed = 1;
nodes = (
"283 523 OFFCURVE",
"244 485 OFFCURVE",
"194 485 CURVE SMOOTH",
"144 485 OFFCURVE",
"106 525 OFFCURVE",
"106 575 CURVE SMOOTH",
"106 623 OFFCURVE",
"145 665 OFFCURVE",
"194 665 CURVE SMOOTH",
"244 665 OFFCURVE",
"283 625 OFFCURVE",
"283 575 CURVE SMOOTH"
);
}
);
width = 388;
}
);
unicode = 00B0;
},
{
glyphname = plusminus;
layers = (
{
hints = (
{
horizontal = 1;
place = "{23, 89}";
type = Stem;
},
{
horizontal = 1;
place = "{334, 89}";
type = Stem;
},
{
place = "{258, 91}";
type = Stem;
}
);
layerId = "1430537E-70AD-4C42-AE0B-37D64AC877DB";
paths = (
{
closed = 1;
nodes = (
"58 334 LINE",
"258 334 LINE",
"258 178 LINE",
"349 178 LINE",
"349 334 LINE",
"548 334 LINE",
"548 423 LINE",
"349 423 LINE",
"349 581 LINE",
"258 581 LINE",
"258 423 LINE",
"58 423 LINE"
);
},
{
closed = 1;
nodes = (
"58 23 LINE",
"548 23 LINE",
"548 112 LINE",
"58 112 LINE"
);
}
);
width = 606;
}
);
unicode = 00B1;
},
{
glyphname = twosuperior;
layers = (
{
hints = (
{
horizontal = 1;
place = "{285, 70}";
type = Stem;
},
{
horizontal = 1;
place = "{648, 71}";
type = Stem;
},
{
place = "{244, 88}";
type = Stem;
}
);
layerId = "1430537E-70AD-4C42-AE0B-37D64AC877DB";
paths = (
{
closed = 1;
nodes = (
"15 285 LINE",
"314 285 LINE",
"335 357 LINE",
"172 354 LINE",
"223 409 LINE SMOOTH",
"297 487 OFFCURVE",
"332 528 OFFCURVE",
"332 590 CURVE SMOOTH",
"332 667 OFFCURVE",
"271 719 OFFCURVE",
"188 719 CURVE SMOOTH",
"121 719 OFFCURVE",
"84 692 OFFCURVE",
"51 631 CURVE",
"121 599 LINE",
"137 630 OFFCURVE",
"158 648 OFFCURVE",
"185 648 CURVE SMOOTH",
"219 648 OFFCURVE",
"244 623 OFFCURVE",
"244 588 CURVE SMOOTH",
"244 547 OFFCURVE",
"206 504 OFFCURVE",
"143 429 CURVE"
);
}
);
width = 365;
}
);
unicode = 00B2;
},
{
glyphname = threesuperior;
layers = (
{
hints = (
{
place = "{199, 84}";
type = Stem;
},
{
place = "{220, 84}";
type = Stem;
},
{
horizontal = 1;
place = "{278, 68}";
type = Stem;
},
{
horizontal = 1;
place = "{489, 61}";
type = Stem;
},
{
horizontal = 1;
place = "{655, 67}";
type = Stem;
}
);
layerId = "1430537E-70AD-4C42-AE0B-37D64AC877DB";
paths = (
{
closed = 1;
nodes = (
"9 338 LINE",
"39 297 OFFCURVE",
"88 278 OFFCURVE",
"140 278 CURVE SMOOTH",
"231 278 OFFCURVE",
"304 330 OFFCURVE",
"304 417 CURVE SMOOTH",
"304 466 OFFCURVE",
"278 502 OFFCURVE",
"227 524 CURVE",
"261 545 OFFCURVE",
"283 573 OFFCURVE",
"283 614 CURVE SMOOTH",
"283 683 OFFCURVE",
"222 722 OFFCURVE",
"146 722 CURVE SMOOTH",
"97 722 OFFCURVE",
"52 704 OFFCURVE",
"33 667 CURVE",
"73 626 LINE",
"95 644 OFFCURVE",
"118 655 OFFCURVE",
"144 655 CURVE SMOOTH",
"178 655 OFFCURVE",
"199 634 OFFCURVE",
"199 607 CURVE SMOOTH",
"199 575 OFFCURVE",
"168 550 OFFCURVE",
"126 550 CURVE SMOOTH",
"109 550 LINE",
"109 489 LINE",
"159 489 OFFCURVE",
"220 486 OFFCURVE",
"220 420 CURVE SMOOTH",
"220 378 OFFCURVE",
"187 346 OFFCURVE",
"139 346 CURVE SMOOTH",
"107 346 OFFCURVE",
"78 360 OFFCURVE",
"52 381 CURVE"
);
}
);
width = 329;
}
);
unicode = 00B3;
},
{
glyphname = acute;
layers = (
{
hints = (
{
horizontal = 1;
place = "{616, 161}";
type = Stem;
},
{
place = "{17, 218}";
type = Stem;
}
);
layerId = "1430537E-70AD-4C42-AE0B-37D64AC877DB";
paths = (
{
closed = 1;
nodes = (
"17 616 LINE",
"101 616 LINE",
"235 745 LINE",
"112 777 LINE"
);
}
);
width = 245;
}
);
unicode = 00B4;
},
{
glyphname = uni00B5;
layers = (
{
hints = (
{
place = "{64, 118}";
type = Stem;
},
{
place = "{401, 118}";
type = Stem;
},
{
horizontal = 1;
place = "{-179, 21}";
target = up;
type = BottomGhost;
},
{
horizontal = 1;
place = "{-11, 104}";
type = Stem;
},
{
horizontal = 1;
place = "{0, 21}";
target = up;
type = BottomGhost;
},
{
horizontal = 1;
place = "{502, -20}";
target = down;
type = TopGhost;
}
);
layerId = "1430537E-70AD-4C42-AE0B-37D64AC877DB";
paths = (
{
closed = 1;
nodes = (
"182 55 LINE",
"203 12 OFFCURVE",
"241 -11 OFFCURVE",
"283 -11 CURVE SMOOTH",
"332 -11 OFFCURVE",
"375 19 OFFCURVE",
"400 66 CURVE",
"519 0 LINE",
"519 502 LINE",
"401 502 LINE",
"401 219 LINE SMOOTH",
"401 134 OFFCURVE",
"349 93 OFFCURVE",
"285 93 CURVE SMOOTH",
"233 93 OFFCURVE",
"182 130 OFFCURVE",
"182 219 CURVE SMOOTH",
"182 502 LINE",
"64 502 LINE",
"64 -179 LINE",
"182 -179 LINE"
);
}
);
width = 587;
}
);
unicode = 00B5;
},
{
glyphname = paragraph;
layers = (
{
hints = (
{
horizontal = 1;
place = "{618, 88}";
type = Stem;
},
{
place = "{214, 90}";
type = Stem;
},
{
place = "{388, 90}";
type = Stem;
}
);
layerId = "1430537E-70AD-4C42-AE0B-37D64AC877DB";
paths = (
{
closed = 1;
nodes = (
"304 -107 LINE",
"304 618 LINE",
"388 618 LINE",
"388 -107 LINE",
"478 -107 LINE",
"478 618 LINE",
"518 618 LINE",
"548 706 LINE",
"244 706 LINE SMOOTH",
"114 706 OFFCURVE",
"36 639 OFFCURVE",
"36 522 CURVE SMOOTH",
"36 403 OFFCURVE",
"120 360 OFFCURVE",
"214 343 CURVE",
"214 -107 LINE"
);
}
);
width = 635;
}
);
unicode = 00B6;
},
{
glyphname = periodcentered;
layers = (
{
hints = (
{
horizontal = 1;
place = "{284, 153}";
type = Stem;
},
{
place = "{77, 155}";
type = Stem;
}
);
layerId = "1430537E-70AD-4C42-AE0B-37D64AC877DB";
paths = (
{
closed = 1;
nodes = (
"77 315 OFFCURVE",
"112 284 OFFCURVE",
"155 284 CURVE SMOOTH",
"197 284 OFFCURVE",
"232 315 OFFCURVE",
"232 360 CURVE SMOOTH",
"232 406 OFFCURVE",
"197 437 OFFCURVE",
"155 437 CURVE SMOOTH",
"112 437 OFFCURVE",
"77 406 OFFCURVE",
"77 360 CURVE SMOOTH"
);
}
);
width = 310;
}
);
unicode = 00B7;
},
{
glyphname = cedilla;
layers = (
{
hints = (
{
horizontal = 1;
place = "{-229, 56}";
type = Stem;
},
{
horizontal = 1;
place = "{-105, 36}";
type = Stem;
},
{
place = "{178, 79}";
type = Stem;
}
);
layerId = "1430537E-70AD-4C42-AE0B-37D64AC877DB";
paths = (
{
closed = 1;
nodes = (
"210 0 LINE",
"143 0 LINE",
"80 -95 LINE",
"102 -113 LINE",
"115 -107 OFFCURVE",
"125 -105 OFFCURVE",
"137 -105 CURVE SMOOTH",
"161 -105 OFFCURVE",
"178 -114 OFFCURVE",
"178 -134 CURVE SMOOTH",
"178 -164 OFFCURVE",
"139 -173 OFFCURVE",
"117 -173 CURVE SMOOTH",
"100 -173 OFFCURVE",
"82 -170 OFFCURVE",
"60 -161 CURVE",
"44 -207 LINE",
"72 -221 OFFCURVE",
"102 -229 OFFCURVE",
"135 -229 CURVE SMOOTH",
"188 -229 OFFCURVE",
"257 -206 OFFCURVE",
"257 -140 CURVE SMOOTH",
"257 -87 OFFCURVE",
"209 -69 OFFCURVE",
"173 -69 CURVE SMOOTH",
"169 -69 LINE"
);
}
);
width = 306;
}
);
unicode = 00B8;
},
{
glyphname = onesuperior;
layers = (
{
hints = (
{
horizontal = 1;
place = "{712, -20}";
target = down;
type = TopGhost;
},
{
place = "{91, 88}";
type = Stem;
}
);
layerId = "1430537E-70AD-4C42-AE0B-37D64AC877DB";
paths = (
{
closed = 1;
nodes = (
"91 286 LINE",
"179 286 LINE",
"179 712 LINE",
"113 711 LINE",
"90 693 OFFCURVE",
"58 675 OFFCURVE",
"31 655 CURVE",
"31 575 LINE",
"51 584 OFFCURVE",
"71 598 OFFCURVE",
"91 614 CURVE"
);
}
);
width = 262;
}
);
unicode = 00B9;
},
{
glyphname = ordmasculine;
layers = (
{
hints = (
{
horizontal = 1;
place = "{299, 57}";
type = Stem;
},
{
horizontal = 1;
place = "{420, 63}";
type = Stem;
},
{
horizontal = 1;
place = "{660, 63}";
type = Stem;
},
{
place = "{21, 70}";
type = Stem;
},
{
place = "{256, 70}";
type = Stem;
}
);
layerId = "1430537E-70AD-4C42-AE0B-37D64AC877DB";
paths = (
{
closed = 1;
nodes = (
"260 420 OFFCURVE",
"326 490 OFFCURVE",
"326 574 CURVE SMOOTH",
"326 654 OFFCURVE",
"262 723 OFFCURVE",
"175 723 CURVE SMOOTH",
"86 723 OFFCURVE",
"21 654 OFFCURVE",
"21 571 CURVE SMOOTH",
"21 489 OFFCURVE",
"85 420 OFFCURVE",
"173 420 CURVE SMOOTH"
);
},
{
closed = 1;
nodes = (
"126 483 OFFCURVE",
"91 522 OFFCURVE",
"91 574 CURVE SMOOTH",
"91 620 OFFCURVE",
"123 660 OFFCURVE",
"173 660 CURVE SMOOTH",
"221 660 OFFCURVE",
"256 622 OFFCURVE",
"256 571 CURVE SMOOTH",
"256 522 OFFCURVE",
"224 483 OFFCURVE",
"175 483 CURVE SMOOTH"
);
},
{
closed = 1;
nodes = (
"30 299 LINE",
"318 299 LINE",
"318 356 LINE",
"30 356 LINE"
);
}
);
width = 347;
}
);
unicode = 00BA;
},
{
glyphname = guillemotright;
layers = (
{
hints = (
{
horizontal = 1;
place = "{41, 433}";
type = Stem;
},
{
place = "{46, 483}";
type = Stem;
}
);
layerId = "1430537E-70AD-4C42-AE0B-37D64AC877DB";
paths = (
{
closed = 1;
nodes = (
"47 81 LINE",
"139 41 LINE",
"298 256 LINE",
"139 474 LINE",
"46 438 LINE",
"176 258 LINE"
);
},
{
closed = 1;
nodes = (
"278 81 LINE",
"370 41 LINE",
"529 256 LINE",
"370 474 LINE",
"277 438 LINE",
"407 258 LINE"
);
}
);
width = 576;
}
);
unicode = 00BB;
},
{
glyphname = onequarter;
layers = (
{
hints = (
{
place = "{76, 88}";
type = Stem;
},
{
place = "{550, 85}";
type = Stem;
},
{
horizontal = 1;
place = "{1, 139}";
type = Stem;
},
{
horizontal = 1;
place = "{74, 66}";
type = Stem;
},
{
horizontal = 1;
place = "{712, -20}";
target = down;
type = TopGhost;
}
);
layerId = "1430537E-70AD-4C42-AE0B-37D64AC877DB";
paths = (
{
closed = 1;
nodes = (
"598 774 LINE",
"499 784 LINE",
"49 -64 LINE",
"146 -72 LINE"
);
},
{
closed = 1;
nodes = (
"76 286 LINE",
"164 286 LINE",
"164 712 LINE",
"98 711 LINE",
"75 693 OFFCURVE",
"43 675 OFFCURVE",
"16 655 CURVE",
"16 575 LINE",
"36 584 OFFCURVE",
"56 598 OFFCURVE",
"76 614 CURVE"
);
},
{
closed = 1;
nodes = (
"353 74 LINE",
"425 74 OFFCURVE",
"488 74 OFFCURVE",
"550 74 CURVE",
"549 1 LINE",
"635 1 LINE",
"634 74 LINE",
"647 74 OFFCURVE",
"656 74 OFFCURVE",
"669 74 CURVE",
"681 141 LINE",
"635 140 LINE",
"635 429 LINE",
"558 429 LINE",
"353 121 LINE"
);
},
{
closed = 1;
nodes = (
"449 140 LINE",
"486 196 OFFCURVE",
"534 267 OFFCURVE",
"550 294 CURVE",
"550 294 OFFCURVE",
"551 295 OFFCURVE",
"552 295 CURVE",
"551 289 LINE",
"550 271 OFFCURVE",
"550 190 OFFCURVE",
"550 140 CURVE",
"534 140 OFFCURVE",
"516 140 OFFCURVE",
"498 140 CURVE SMOOTH",
"475 140 OFFCURVE",
"456 140 OFFCURVE",
"451 140 CURVE"
);
}
);
width = 703;
}
);
unicode = 00BC;
},
{
glyphname = onehalf;
layers = (
{
hints = (
{
horizontal = 1;
place = "{-1, 70}";
type = Stem;
},
{
horizontal = 1;
place = "{362, 71}";
type = Stem;
},
{
horizontal = 1;
place = "{712, -20}";
target = down;
type = TopGhost;
},
{
place = "{79, 88}";
type = Stem;
},
{
place = "{625, 88}";
type = Stem;
}
);
layerId = "1430537E-70AD-4C42-AE0B-37D64AC877DB";
paths = (
{
closed = 1;
nodes = (
"590 774 LINE",
"491 784 LINE",
"41 -64 LINE",
"138 -72 LINE"
);
},
{
closed = 1;
nodes = (
"79 286 LINE",
"167 286 LINE",
"167 712 LINE",
"101 711 LINE",
"78 693 OFFCURVE",
"46 675 OFFCURVE",
"19 655 CURVE",
"19 575 LINE",
"39 584 OFFCURVE",
"59 598 OFFCURVE",
"79 614 CURVE"
);
},
{
closed = 1;
nodes = (
"396 -1 LINE",
"695 -1 LINE",
"716 71 LINE",
"553 68 LINE",
"604 123 LINE SMOOTH",
"678 201 OFFCURVE",
"713 242 OFFCURVE",
"713 304 CURVE SMOOTH",
"713 381 OFFCURVE",
"652 433 OFFCURVE",
"569 433 CURVE SMOOTH",
"502 433 OFFCURVE",
"465 406 OFFCURVE",
"432 345 CURVE",
"502 313 LINE",
"518 344 OFFCURVE",
"539 362 OFFCURVE",
"566 362 CURVE SMOOTH",
"600 362 OFFCURVE",
"625 337 OFFCURVE",
"625 302 CURVE SMOOTH",
"625 261 OFFCURVE",
"587 218 OFFCURVE",
"524 143 CURVE"
);
}
);
width = 756;
}
);
unicode = 00BD;
},
{
glyphname = threequarters;
layers = (
{
hints = (
{
place = "{227, 84}";
type = Stem;
},
{
place = "{248, 84}";
type = Stem;
},
{
place = "{669, 85}";
type = Stem;
},
{
horizontal = 1;
place = "{1, 139}";
type = Stem;
},
{
horizontal = 1;
place = "{74, 66}";
type = Stem;
},
{
horizontal = 1;
place = "{278, 68}";
type = Stem;
},
{
horizontal = 1;
place = "{489, 61}";
type = Stem;
},
{
horizontal = 1;
place = "{655, 67}";
type = Stem;
}
);
layerId = "1430537E-70AD-4C42-AE0B-37D64AC877DB";
paths = (
{
closed = 1;
nodes = (
"720 774 LINE",
"621 784 LINE",
"171 -64 LINE",
"268 -72 LINE"
);
},
{
closed = 1;
nodes = (
"37 338 LINE",
"67 297 OFFCURVE",
"116 278 OFFCURVE",
"168 278 CURVE SMOOTH",
"259 278 OFFCURVE",
"332 330 OFFCURVE",
"332 417 CURVE SMOOTH",
"332 466 OFFCURVE",
"306 502 OFFCURVE",
"255 524 CURVE",
"289 545 OFFCURVE",
"311 573 OFFCURVE",
"311 614 CURVE SMOOTH",
"311 683 OFFCURVE",
"250 722 OFFCURVE",
"174 722 CURVE SMOOTH",
"125 722 OFFCURVE",
"80 704 OFFCURVE",
"61 667 CURVE",
"101 626 LINE",
"123 644 OFFCURVE",
"146 655 OFFCURVE",
"172 655 CURVE SMOOTH",
"206 655 OFFCURVE",
"227 634 OFFCURVE",
"227 607 CURVE SMOOTH",
"227 575 OFFCURVE",
"196 550 OFFCURVE",
"154 550 CURVE SMOOTH",
"137 550 LINE",
"137 489 LINE",
"187 489 OFFCURVE",
"248 486 OFFCURVE",
"248 420 CURVE SMOOTH",
"248 378 OFFCURVE",
"215 346 OFFCURVE",
"167 346 CURVE SMOOTH",
"135 346 OFFCURVE",
"106 360 OFFCURVE",
"80 381 CURVE"
);
},
{
closed = 1;
nodes = (
"472 74 LINE",
"544 74 OFFCURVE",
"607 74 OFFCURVE",
"669 74 CURVE",
"668 1 LINE",
"754 1 LINE",
"753 74 LINE",
"766 74 OFFCURVE",
"775 74 OFFCURVE",
"788 74 CURVE",
"800 141 LINE",
"754 140 LINE",
"754 429 LINE",
"677 429 LINE",
"472 121 LINE"
);
},
{
closed = 1;
nodes = (
"568 140 LINE",
"605 196 OFFCURVE",
"653 267 OFFCURVE",
"669 294 CURVE",
"669 294 OFFCURVE",
"670 295 OFFCURVE",
"671 295 CURVE",
"670 289 LINE",
"669 271 OFFCURVE",
"669 190 OFFCURVE",
"669 140 CURVE",
"653 140 OFFCURVE",
"635 140 OFFCURVE",
"617 140 CURVE SMOOTH",
"594 140 OFFCURVE",
"575 140 OFFCURVE",
"570 140 CURVE"
);
}
);
width = 821;
}
);
unicode = 00BE;
},
{
glyphname = questiondown;
layers = (
{
hints = (
{
place = "{47, 118}";
type = Stem;
},
{
place = "{183, 152}";
type = Stem;
},
{
place = "{209, 112}";
type = Stem;
},
{
horizontal = 1;
place = "{-192, 105}";
type = Stem;
},
{
horizontal = 1;
place = "{390, 143}";
type = Stem;
}
);
layerId = "1430537E-70AD-4C42-AE0B-37D64AC877DB";
paths = (
{
closed = 1;
nodes = (
"335 506 OFFCURVE",
"301 533 OFFCURVE",
"259 533 CURVE SMOOTH",
"217 533 OFFCURVE",
"183 506 OFFCURVE",
"183 461 CURVE SMOOTH",
"183 419 OFFCURVE",
"217 390 OFFCURVE",
"259 390 CURVE SMOOTH",
"301 390 OFFCURVE",
"335 419 OFFCURVE",
"335 461 CURVE SMOOTH"
);
},
{
closed = 1;
nodes = (
"203 -87 OFFCURVE",
"165 -49 OFFCURVE",
"165 -5 CURVE SMOOTH",
"165 37 OFFCURVE",
"196 67 OFFCURVE",
"230 97 CURVE SMOOTH",
"274 137 OFFCURVE",
"321 183 OFFCURVE",
"321 267 CURVE SMOOTH",
"321 323 LINE",
"209 323 LINE",
"209 291 LINE SMOOTH",
"209 231 OFFCURVE",
"191 204 OFFCURVE",
"145 165 CURVE SMOOTH",
"89 118 OFFCURVE",
"47 67 OFFCURVE",
"47 -14 CURVE SMOOTH",
"47 -123 OFFCURVE",
"131 -192 OFFCURVE",
"244 -192 CURVE SMOOTH",
"317 -192 OFFCURVE",
"382 -164 OFFCURVE",
"420 -115 CURVE",
"420 3 LINE",
"374 -56 OFFCURVE",
"318 -87 OFFCURVE",
"262 -87 CURVE SMOOTH"
);
}
);
width = 466;
}
);
unicode = 00BF;
},
{
glyphname = Agrave;
layers = (
{
hints = (
{
horizontal = 1;
place = "{0, 21}";
target = up;
type = BottomGhost;
},
{
horizontal = 1;
place = "{173, 100}";
type = Stem;
},
{
horizontal = 1;
place = "{705, -20}";
target = down;
type = TopGhost;
},
{
place = "{-6, 719}";
type = Stem;
}
);
layerId = "1430537E-70AD-4C42-AE0B-37D64AC877DB";
paths = (
{
closed = 1;
nodes = (
"339 826 LINE",
"426 826 LINE",
"328 987 LINE",
"206 955 LINE"
);
},
{
closed = 1;
nodes = (
"509 173 LINE",
"582 0 LINE",
"713 0 LINE",
"408 705 LINE",
"299 705 LINE",
"-6 0 LINE",
"123 0 LINE",
"196 173 LINE"
);
},
{
closed = 1;
nodes = (
"353 562 LINE",
"469 273 LINE",
"237 273 LINE"
);
}
);
width = 707;
}
);
unicode = 00C0;
},
{
glyphname = Aacute;
layers = (
{
hints = (
{
horizontal = 1;
place = "{0, 21}";
target = up;
type = BottomGhost;
},
{
horizontal = 1;
place = "{173, 100}";
type = Stem;
},
{
horizontal = 1;
place = "{705, -20}";
target = down;
type = TopGhost;
},
{
place = "{-6, 719}";
type = Stem;
}
);
layerId = "1430537E-70AD-4C42-AE0B-37D64AC877DB";
paths = (
{
closed = 1;
nodes = (
"306 781 LINE",
"390 781 LINE",
"524 910 LINE",
"401 942 LINE"
);
},
{
closed = 1;
nodes = (
"509 173 LINE",
"582 0 LINE",
"713 0 LINE",
"408 705 LINE",
"299 705 LINE",
"-6 0 LINE",
"123 0 LINE",
"196 173 LINE"
);
},
{
closed = 1;
nodes = (
"353 562 LINE",
"469 273 LINE",
"237 273 LINE"
);
}
);
width = 707;
}
);
unicode = 00C1;
},
{
glyphname = Acircumflex;
layers = (
{
hints = (
{
horizontal = 1;
place = "{0, 21}";
target = up;
type = BottomGhost;
},
{
horizontal = 1;
place = "{173, 100}";
type = Stem;
},
{
horizontal = 1;
place = "{705, -20}";
target = down;
type = TopGhost;
},
{
horizontal = 1;
place = "{786, 156}";
type = Stem;
},
{
place = "{-6, 719}";
type = Stem;
}
);
layerId = "1430537E-70AD-4C42-AE0B-37D64AC877DB";
paths = (
{
closed = 1;
nodes = (
"395 942 LINE",
"313 942 LINE",
"195 786 LINE",
"283 786 LINE",
"353 861 LINE",
"425 786 LINE",
"512 786 LINE"
);
},
{
closed = 1;
nodes = (
"509 173 LINE",
"582 0 LINE",
"713 0 LINE",
"408 705 LINE",
"299 705 LINE",
"-6 0 LINE",
"123 0 LINE",
"196 173 LINE"
);
},
{
closed = 1;
nodes = (
"353 562 LINE",
"469 273 LINE",
"237 273 LINE"
);
}
);
width = 707;
}
);
unicode = 00C2;
},
{
glyphname = Atilde;
layers = (
{
hints = (
{
place = "{-6, 719}";
type = Stem;
},
{
horizontal = 1;
place = "{0, 21}";
target = up;
type = BottomGhost;
},
{
horizontal = 1;
place = "{173, 100}";
type = Stem;
},
{
horizontal = 1;
place = "{705, -20}";
target = down;
type = TopGhost;
},
{
horizontal = 1;
place = "{777, 85}";
type = Stem;
},
{
horizontal = 1;
place = "{813, 85}";
type = Stem;
}
);
layerId = "1430537E-70AD-4C42-AE0B-37D64AC877DB";
paths = (
{
closed = 1;
nodes = (
"252 767 LINE",
"263 801 OFFCURVE",
"281 813 OFFCURVE",
"302 813 CURVE SMOOTH",
"339 813 OFFCURVE",
"378 777 OFFCURVE",
"423 777 CURVE SMOOTH",
"475 777 OFFCURVE",
"507 823 OFFCURVE",
"527 894 CURVE",
"458 907 LINE",
"448 876 OFFCURVE",
"436 862 OFFCURVE",
"416 862 CURVE SMOOTH",
"384 862 OFFCURVE",
"343 898 OFFCURVE",
"295 898 CURVE SMOOTH",
"239 898 OFFCURVE",
"202 850 OFFCURVE",
"181 779 CURVE"
);
},
{
closed = 1;
nodes = (
"509 173 LINE",
"582 0 LINE",
"713 0 LINE",
"408 705 LINE",
"299 705 LINE",
"-6 0 LINE",
"123 0 LINE",
"196 173 LINE"
);
},
{
closed = 1;
nodes = (
"353 562 LINE",
"469 273 LINE",
"237 273 LINE"
);
}
);
width = 707;
}
);
unicode = 00C3;
},
{
glyphname = Adieresis;
layers = (
{
hints = (
{
horizontal = 1;
place = "{0, 21}";
target = up;
type = BottomGhost;
},
{
horizontal = 1;
place = "{173, 100}";
type = Stem;
},
{
horizontal = 1;
place = "{705, -20}";
target = down;
type = TopGhost;
},
{
horizontal = 1;
place = "{792, 136}";
type = Stem;
},
{
place = "{185, 138}";
type = Stem;
},
{
place = "{388, 136}";
type = Stem;
}
);
layerId = "1430537E-70AD-4C42-AE0B-37D64AC877DB";
paths = (
{
closed = 1;
nodes = (
"185 819 OFFCURVE",
"214 792 OFFCURVE",
"254 792 CURVE SMOOTH",
"291 792 OFFCURVE",
"323 819 OFFCURVE",
"323 860 CURVE SMOOTH",
"323 900 OFFCURVE",
"291 928 OFFCURVE",
"254 928 CURVE SMOOTH",
"214 928 OFFCURVE",
"185 900 OFFCURVE",
"185 860 CURVE SMOOTH"
);
},
{
closed = 1;
nodes = (
"388 819 OFFCURVE",
"418 792 OFFCURVE",
"456 792 CURVE SMOOTH",
"495 792 OFFCURVE",
"524 819 OFFCURVE",
"524 860 CURVE SMOOTH",
"524 900 OFFCURVE",
"495 928 OFFCURVE",
"456 928 CURVE SMOOTH",
"418 928 OFFCURVE",
"388 900 OFFCURVE",
"388 860 CURVE SMOOTH"
);
},
{
closed = 1;
nodes = (
"509 173 LINE",
"582 0 LINE",
"713 0 LINE",
"408 705 LINE",
"299 705 LINE",
"-6 0 LINE",
"123 0 LINE",
"196 173 LINE"
);
},
{
closed = 1;
nodes = (
"353 562 LINE",
"469 273 LINE",
"237 273 LINE"
);
}
);
width = 707;
}
);
unicode = 00C4;
},
{
glyphname = Aring;
layers = (
{
hints = (
{
horizontal = 1;
place = "{0, 21}";
target = up;
type = BottomGhost;
},
{
horizontal = 1;
place = "{173, 100}";
type = Stem;
},
{
horizontal = 1;
place = "{830, 61}";
type = Stem;
},
{
place = "{244, 63}";
type = Stem;
},
{
place = "{399, 63}";
type = Stem;
}
);
layerId = "1430537E-70AD-4C42-AE0B-37D64AC877DB";
paths = (
{
closed = 1;
nodes = (
"509 173 LINE",
"582 0 LINE",
"713 0 LINE",
"412 695 LINE",
"442 713 OFFCURVE",
"462 745 OFFCURVE",
"462 783 CURVE SMOOTH",
"462 843 OFFCURVE",
"412 891 OFFCURVE",
"352 891 CURVE SMOOTH",
"295 891 OFFCURVE",
"244 844 OFFCURVE",
"244 784 CURVE SMOOTH",
"244 746 OFFCURVE",
"265 713 OFFCURVE",
"294 695 CURVE",
"-6 0 LINE",
"123 0 LINE",
"196 173 LINE"
);
},
{
closed = 1;
nodes = (
"399 758 OFFCURVE",
"381 739 OFFCURVE",
"353 739 CURVE SMOOTH",
"327 739 OFFCURVE",
"307 757 OFFCURVE",
"307 785 CURVE SMOOTH",
"307 810 OFFCURVE",
"327 830 OFFCURVE",
"353 830 CURVE SMOOTH",
"380 830 OFFCURVE",
"399 809 OFFCURVE",
"399 784 CURVE SMOOTH"
);
},
{
closed = 1;
nodes = (
"353 562 LINE",
"469 273 LINE",
"237 273 LINE"
);
}
);
width = 707;
}
);
unicode = 00C5;
},
{
glyphname = AE;
layers = (
{
hints = (
{
horizontal = 1;
place = "{0, 106}";
type = Stem;
},
{
horizontal = 1;
place = "{173, 100}";
type = Stem;
},
{
horizontal = 1;
place = "{306, 102}";
type = Stem;
},
{
horizontal = 1;
place = "{598, 105}";
type = Stem;
},
{
place = "{451, 122}";
type = Stem;
}
);
layerId = "1430537E-70AD-4C42-AE0B-37D64AC877DB";
paths = (
{
closed = 1;
nodes = (
"-6 0 LINE",
"122 0 LINE",
"222 173 LINE",
"451 173 LINE",
"451 0 LINE",
"955 0 LINE",
"955 106 LINE",
"573 106 LINE",
"573 306 LINE",
"915 306 LINE",
"915 408 LINE",
"573 408 LINE",
"573 598 LINE",
"946 598 LINE",
"946 703 LINE",
"383 703 LINE"
);
},
{
closed = 1;
nodes = (
"272 273 LINE",
"451 595 LINE",
"451 273 LINE"
);
}
);
width = 953;
}
);
unicode = 00C6;
},
{
glyphname = Ccedilla;
layers = (
{
hints = (
{
place = "{37, 125}";
type = Stem;
},
{
place = "{404, 79}";
type = Stem;
},
{
horizontal = 1;
place = "{-229, 56}";
type = Stem;
},
{
horizontal = 1;
place = "{-105, 36}";
type = Stem;
},
{
horizontal = 1;
place = "{-12, 108}";
type = Stem;
},
{
horizontal = 1;
place = "{-12, 21}";
target = up;
type = BottomGhost;
},
{
horizontal = 1;
place = "{608, 109}";
type = Stem;
}
);
layerId = "1430537E-70AD-4C42-AE0B-37D64AC877DB";
paths = (
{
closed = 1;
nodes = (
"630 199 LINE",
"565 141 OFFCURVE",
"498 96 OFFCURVE",
"406 96 CURVE SMOOTH",
"259 96 OFFCURVE",
"162 210 OFFCURVE",
"162 352 CURVE SMOOTH",
"162 493 OFFCURVE",
"260 608 OFFCURVE",
"406 608 CURVE SMOOTH",
"505 608 OFFCURVE",
"570 570 OFFCURVE",
"619 516 CURVE",
"619 646 LINE",
"562 688 OFFCURVE",
"496 717 OFFCURVE",
"403 717 CURVE SMOOTH",
"192 717 OFFCURVE",
"37 557 OFFCURVE",
"37 351 CURVE SMOOTH",
"37 156 OFFCURVE",
"176 6 OFFCURVE",
"361 -12 CURVE",
"306 -95 LINE",
"328 -113 LINE",
"341 -107 OFFCURVE",
"351 -105 OFFCURVE",
"363 -105 CURVE SMOOTH",
"387 -105 OFFCURVE",
"404 -114 OFFCURVE",
"404 -134 CURVE SMOOTH",
"404 -164 OFFCURVE",
"365 -173 OFFCURVE",
"343 -173 CURVE SMOOTH",
"326 -173 OFFCURVE",
"308 -170 OFFCURVE",
"286 -161 CURVE",
"270 -207 LINE",
"298 -221 OFFCURVE",
"328 -229 OFFCURVE",
"361 -229 CURVE SMOOTH",
"414 -229 OFFCURVE",
"483 -206 OFFCURVE",
"483 -140 CURVE SMOOTH",
"483 -87 OFFCURVE",
"435 -69 OFFCURVE",
"399 -69 CURVE SMOOTH",
"395 -69 LINE",
"428 -13 LINE",
"509 -7 OFFCURVE",
"572 24 OFFCURVE",
"630 70 CURVE"
);
}
);
width = 673;
}
);
unicode = 00C7;
},
{
glyphname = Egrave;
layers = (
{
hints = (
{
horizontal = 1;
place = "{0, 106}";
type = Stem;
},
{
horizontal = 1;
place = "{306, 102}";
type = Stem;
},
{
horizontal = 1;
place = "{598, 105}";
type = Stem;
},
{
place = "{73, 121}";
type = Stem;
}
);
layerId = "1430537E-70AD-4C42-AE0B-37D64AC877DB";
paths = (
{
closed = 1;
nodes = (
"305 826 LINE",
"392 826 LINE",
"294 987 LINE",
"172 955 LINE"
);
},
{
closed = 1;
nodes = (
"194 306 LINE",
"536 306 LINE",
"536 408 LINE",
"194 408 LINE",
"194 598 LINE",
"567 598 LINE",
"567 703 LINE",
"73 703 LINE",
"73 0 LINE",
"576 0 LINE",
"576 106 LINE",
"194 106 LINE"
);
}
);
width = 637;
}
);
unicode = 00C8;
},
{
glyphname = Eacute;
layers = (
{
hints = (
{
horizontal = 1;
place = "{0, 106}";
type = Stem;
},
{
horizontal = 1;
place = "{306, 102}";
type = Stem;
},
{
horizontal = 1;
place = "{598, 105}";
type = Stem;
},
{
place = "{73, 121}";
type = Stem;
}
);
layerId = "1430537E-70AD-4C42-AE0B-37D64AC877DB";
paths = (
{
closed = 1;
nodes = (
"262 781 LINE",
"346 781 LINE",
"480 910 LINE",
"357 942 LINE"
);
},
{
closed = 1;
nodes = (
"194 306 LINE",
"536 306 LINE",
"536 408 LINE",
"194 408 LINE",
"194 598 LINE",
"567 598 LINE",
"567 703 LINE",
"73 703 LINE",
"73 0 LINE",
"576 0 LINE",
"576 106 LINE",
"194 106 LINE"
);
}
);
width = 637;
}
);
unicode = 00C9;
},
{
glyphname = Ecircumflex;
layers = (
{
hints = (
{
horizontal = 1;
place = "{0, 106}";
type = Stem;
},
{
horizontal = 1;
place = "{306, 102}";
type = Stem;
},
{
horizontal = 1;
place = "{598, 105}";
type = Stem;
},
{
horizontal = 1;
place = "{786, 156}";
type = Stem;
},
{
place = "{73, 121}";
type = Stem;
}
);
layerId = "1430537E-70AD-4C42-AE0B-37D64AC877DB";
paths = (
{
closed = 1;
nodes = (
"365 942 LINE",
"283 942 LINE",
"165 786 LINE",
"253 786 LINE",
"323 861 LINE",
"395 786 LINE",
"482 786 LINE"
);
},
{
closed = 1;
nodes = (
"194 306 LINE",
"536 306 LINE",
"536 408 LINE",
"194 408 LINE",
"194 598 LINE",
"567 598 LINE",
"567 703 LINE",
"73 703 LINE",
"73 0 LINE",
"576 0 LINE",
"576 106 LINE",
"194 106 LINE"
);
}
);
width = 637;
}
);
unicode = 00CA;
},
{
glyphname = Edieresis;
layers = (
{
hints = (
{
place = "{73, 121}";
type = Stem;
},
{
place = "{152, 138}";
type = Stem;
},
{
place = "{355, 136}";
type = Stem;
},
{
horizontal = 1;
place = "{0, 106}";
type = Stem;
},
{
horizontal = 1;
place = "{306, 102}";
type = Stem;
},
{
horizontal = 1;
place = "{598, 105}";
type = Stem;
},
{
horizontal = 1;
place = "{792, 136}";
type = Stem;
}
);
layerId = "1430537E-70AD-4C42-AE0B-37D64AC877DB";
paths = (
{
closed = 1;
nodes = (
"152 819 OFFCURVE",
"181 792 OFFCURVE",
"221 792 CURVE SMOOTH",
"258 792 OFFCURVE",
"290 819 OFFCURVE",
"290 860 CURVE SMOOTH",
"290 900 OFFCURVE",
"258 928 OFFCURVE",
"221 928 CURVE SMOOTH",
"181 928 OFFCURVE",
"152 900 OFFCURVE",
"152 860 CURVE SMOOTH"
);
},
{
closed = 1;
nodes = (
"355 819 OFFCURVE",
"385 792 OFFCURVE",
"423 792 CURVE SMOOTH",
"462 792 OFFCURVE",
"491 819 OFFCURVE",
"491 860 CURVE SMOOTH",
"491 900 OFFCURVE",
"462 928 OFFCURVE",
"423 928 CURVE SMOOTH",
"385 928 OFFCURVE",
"355 900 OFFCURVE",
"355 860 CURVE SMOOTH"
);
},
{
closed = 1;
nodes = (
"194 306 LINE",
"536 306 LINE",
"536 408 LINE",
"194 408 LINE",
"194 598 LINE",
"567 598 LINE",
"567 703 LINE",
"73 703 LINE",
"73 0 LINE",
"576 0 LINE",
"576 106 LINE",
"194 106 LINE"
);
}
);
width = 637;
}
);
unicode = 00CB;
},
{
glyphname = Eth;
layers = (
{
hints = (
{
horizontal = 1;
place = "{0, 108}";
type = Stem;
},
{
horizontal = 1;
place = "{296, 107}";
type = Stem;
},
{
horizontal = 1;
place = "{595, 108}";
type = Stem;
},
{
place = "{101, 122}";
type = Stem;
},
{
place = "{595, 126}";
type = Stem;
}
);
layerId = "1430537E-70AD-4C42-AE0B-37D64AC877DB";
paths = (
{
closed = 1;
nodes = (
"101 0 LINE",
"337 0 LINE SMOOTH",
"572 0 OFFCURVE",
"721 148 OFFCURVE",
"721 353 CURVE SMOOTH",
"721 563 OFFCURVE",
"565 703 OFFCURVE",
"339 703 CURVE SMOOTH",
"101 703 LINE",
"101 403 LINE",
"13 403 LINE",
"13 296 LINE",
"101 296 LINE"
);
},
{
closed = 1;
nodes = (
"223 595 LINE",
"368 595 LINE SMOOTH",
"512 595 OFFCURVE",
"595 476 OFFCURVE",
"595 351 CURVE SMOOTH",
"595 207 OFFCURVE",
"500 108 OFFCURVE",
"336 108 CURVE SMOOTH",
"223 108 LINE",
"223 296 LINE",
"303 296 LINE",
"303 403 LINE",
"223 403 LINE"
);
}
);
width = 769;
}
);
unicode = 00D0;
},
{
glyphname = Ntilde;
layers = (
{
hints = (
{
place = "{73, 119}";
type = Stem;
},
{
place = "{565, 119}";
type = Stem;
},
{
horizontal = 1;
place = "{0, 21}";
target = up;
type = BottomGhost;
},
{
horizontal = 1;
place = "{703, -20}";
target = down;
type = TopGhost;
},
{
horizontal = 1;
place = "{777, 85}";
type = Stem;
},
{
horizontal = 1;
place = "{813, 85}";
type = Stem;
}
);
layerId = "1430537E-70AD-4C42-AE0B-37D64AC877DB";
paths = (
{
closed = 1;
nodes = (
"284 767 LINE",
"295 801 OFFCURVE",
"313 813 OFFCURVE",
"334 813 CURVE SMOOTH",
"371 813 OFFCURVE",
"410 777 OFFCURVE",
"455 777 CURVE SMOOTH",
"507 777 OFFCURVE",
"539 823 OFFCURVE",
"559 894 CURVE",
"490 907 LINE",
"480 876 OFFCURVE",
"468 862 OFFCURVE",
"448 862 CURVE SMOOTH",
"416 862 OFFCURVE",
"375 898 OFFCURVE",
"327 898 CURVE SMOOTH",
"271 898 OFFCURVE",
"234 850 OFFCURVE",
"213 779 CURVE"
);
},
{
closed = 1;
nodes = (
"190 700 LINE",
"73 700 LINE",
"73 0 LINE",
"192 0 LINE",
"192 513 LINE",
"571 0 LINE",
"684 0 LINE",
"684 703 LINE",
"565 703 LINE",
"565 194 LINE"
);
}
);
width = 757;
}
);
unicode = 00D1;
},
{
glyphname = Ograve;
layers = (
{
hints = (
{
horizontal = 1;
place = "{-14, 110}";
type = Stem;
},
{
horizontal = 1;
place = "{608, 109}";
type = Stem;
},
{
place = "{46, 125}";
type = Stem;
},
{
place = "{661, 124}";
type = Stem;
}
);
layerId = "1430537E-70AD-4C42-AE0B-37D64AC877DB";
paths = (
{
closed = 1;
nodes = (
"369 826 LINE",
"456 826 LINE",
"358 987 LINE",
"236 955 LINE"
);
},
{
closed = 1;
nodes = (
"785 553 OFFCURVE",
"630 717 OFFCURVE",
"417 717 CURVE SMOOTH",
"203 717 OFFCURVE",
"46 554 OFFCURVE",
"46 351 CURVE SMOOTH",
"46 148 OFFCURVE",
"202 -14 OFFCURVE",
"416 -14 CURVE SMOOTH",
"628 -14 OFFCURVE",
"785 151 OFFCURVE",
"785 353 CURVE SMOOTH"
);
},
{
closed = 1;
nodes = (
"661 211 OFFCURVE",
"560 96 OFFCURVE",
"417 96 CURVE SMOOTH",
"272 96 OFFCURVE",
"171 210 OFFCURVE",
"171 353 CURVE SMOOTH",
"171 494 OFFCURVE",
"271 608 OFFCURVE",
"416 608 CURVE SMOOTH",
"559 608 OFFCURVE",
"661 491 OFFCURVE",
"661 350 CURVE SMOOTH"
);
}
);
width = 831;
}
);
unicode = 00D2;
},
{
glyphname = Oacute;
layers = (
{
hints = (
{
horizontal = 1;
place = "{-14, 110}";
type = Stem;
},
{
horizontal = 1;
place = "{608, 109}";
type = Stem;
},
{
place = "{46, 125}";
type = Stem;
},
{
place = "{661, 124}";
type = Stem;
}
);
layerId = "1430537E-70AD-4C42-AE0B-37D64AC877DB";
paths = (
{
closed = 1;
nodes = (
"375 781 LINE",
"459 781 LINE",
"593 910 LINE",
"470 942 LINE"
);
},
{
closed = 1;
nodes = (
"785 553 OFFCURVE",
"630 717 OFFCURVE",
"417 717 CURVE SMOOTH",
"203 717 OFFCURVE",
"46 554 OFFCURVE",
"46 351 CURVE SMOOTH",
"46 148 OFFCURVE",
"202 -14 OFFCURVE",
"416 -14 CURVE SMOOTH",
"628 -14 OFFCURVE",
"785 151 OFFCURVE",
"785 353 CURVE SMOOTH"
);
},
{
closed = 1;
nodes = (
"661 211 OFFCURVE",
"560 96 OFFCURVE",
"417 96 CURVE SMOOTH",
"272 96 OFFCURVE",
"171 210 OFFCURVE",
"171 353 CURVE SMOOTH",
"171 494 OFFCURVE",
"271 608 OFFCURVE",
"416 608 CURVE SMOOTH",
"559 608 OFFCURVE",
"661 491 OFFCURVE",
"661 350 CURVE SMOOTH"
);
}
);
width = 831;
}
);
unicode = 00D3;
},
{
glyphname = Ocircumflex;
layers = (
{
hints = (
{
horizontal = 1;
place = "{-14, 110}";
type = Stem;
},
{
horizontal = 1;
place = "{608, 109}";
type = Stem;
},
{
horizontal = 1;
place = "{786, 156}";
type = Stem;
},
{
place = "{46, 125}";
type = Stem;
},
{
place = "{661, 124}";
type = Stem;
}
);
layerId = "1430537E-70AD-4C42-AE0B-37D64AC877DB";
paths = (
{
closed = 1;
nodes = (
"458 942 LINE",
"376 942 LINE",
"258 786 LINE",
"346 786 LINE",
"416 861 LINE",
"488 786 LINE",
"575 786 LINE"
);
},
{
closed = 1;
nodes = (
"785 553 OFFCURVE",
"630 717 OFFCURVE",
"417 717 CURVE SMOOTH",
"203 717 OFFCURVE",
"46 554 OFFCURVE",
"46 351 CURVE SMOOTH",
"46 148 OFFCURVE",
"202 -14 OFFCURVE",
"416 -14 CURVE SMOOTH",
"628 -14 OFFCURVE",
"785 151 OFFCURVE",
"785 353 CURVE SMOOTH"
);
},
{
closed = 1;
nodes = (
"661 211 OFFCURVE",
"560 96 OFFCURVE",
"417 96 CURVE SMOOTH",
"272 96 OFFCURVE",
"171 210 OFFCURVE",
"171 353 CURVE SMOOTH",
"171 494 OFFCURVE",
"271 608 OFFCURVE",
"416 608 CURVE SMOOTH",
"559 608 OFFCURVE",
"661 491 OFFCURVE",
"661 350 CURVE SMOOTH"
);
}
);
width = 831;
}
);
unicode = 00D4;
},
{
glyphname = Otilde;
layers = (
{
hints = (
{
place = "{46, 125}";
type = Stem;
},
{
place = "{661, 124}";
type = Stem;
},
{
horizontal = 1;
place = "{-14, 110}";
type = Stem;
},
{
horizontal = 1;
place = "{608, 109}";
type = Stem;
},
{
horizontal = 1;
place = "{777, 85}";
type = Stem;
},
{
horizontal = 1;
place = "{813, 85}";
type = Stem;
}
);
layerId = "1430537E-70AD-4C42-AE0B-37D64AC877DB";
paths = (
{
closed = 1;
nodes = (
"313 767 LINE",
"324 801 OFFCURVE",
"342 813 OFFCURVE",
"363 813 CURVE SMOOTH",
"400 813 OFFCURVE",
"439 777 OFFCURVE",
"484 777 CURVE SMOOTH",
"536 777 OFFCURVE",
"568 823 OFFCURVE",
"588 894 CURVE",
"519 907 LINE",
"509 876 OFFCURVE",
"497 862 OFFCURVE",
"477 862 CURVE SMOOTH",
"445 862 OFFCURVE",
"404 898 OFFCURVE",
"356 898 CURVE SMOOTH",
"300 898 OFFCURVE",
"263 850 OFFCURVE",
"242 779 CURVE"
);
},
{
closed = 1;
nodes = (
"785 553 OFFCURVE",
"630 717 OFFCURVE",
"417 717 CURVE SMOOTH",
"203 717 OFFCURVE",
"46 554 OFFCURVE",
"46 351 CURVE SMOOTH",
"46 148 OFFCURVE",
"202 -14 OFFCURVE",
"416 -14 CURVE SMOOTH",
"628 -14 OFFCURVE",
"785 151 OFFCURVE",
"785 353 CURVE SMOOTH"
);
},
{
closed = 1;
nodes = (
"661 211 OFFCURVE",
"560 96 OFFCURVE",
"417 96 CURVE SMOOTH",
"272 96 OFFCURVE",
"171 210 OFFCURVE",
"171 353 CURVE SMOOTH",
"171 494 OFFCURVE",
"271 608 OFFCURVE",
"416 608 CURVE SMOOTH",
"559 608 OFFCURVE",
"661 491 OFFCURVE",
"661 350 CURVE SMOOTH"
);
}
);
width = 831;
}
);
unicode = 00D5;
},
{
glyphname = Odieresis;
layers = (
{
hints = (
{
horizontal = 1;
place = "{-14, 110}";
type = Stem;
},
{
horizontal = 1;
place = "{608, 109}";
type = Stem;
},
{
horizontal = 1;
place = "{792, 136}";
type = Stem;
},
{
place = "{46, 125}";
type = Stem;
},
{
place = "{249, 138}";
type = Stem;
},
{
place = "{452, 136}";
type = Stem;
},
{
place = "{661, 124}";
type = Stem;
}
);
layerId = "1430537E-70AD-4C42-AE0B-37D64AC877DB";
paths = (
{
closed = 1;
nodes = (
"249 819 OFFCURVE",
"278 792 OFFCURVE",
"318 792 CURVE SMOOTH",
"355 792 OFFCURVE",
"387 819 OFFCURVE",
"387 860 CURVE SMOOTH",
"387 900 OFFCURVE",
"355 928 OFFCURVE",
"318 928 CURVE SMOOTH",
"278 928 OFFCURVE",
"249 900 OFFCURVE",
"249 860 CURVE SMOOTH"
);
},
{
closed = 1;
nodes = (
"452 819 OFFCURVE",
"482 792 OFFCURVE",
"520 792 CURVE SMOOTH",
"559 792 OFFCURVE",
"588 819 OFFCURVE",
"588 860 CURVE SMOOTH",
"588 900 OFFCURVE",
"559 928 OFFCURVE",
"520 928 CURVE SMOOTH",
"482 928 OFFCURVE",
"452 900 OFFCURVE",
"452 860 CURVE SMOOTH"
);
},
{
closed = 1;
nodes = (
"785 553 OFFCURVE",
"630 717 OFFCURVE",
"417 717 CURVE SMOOTH",
"203 717 OFFCURVE",
"46 554 OFFCURVE",
"46 351 CURVE SMOOTH",
"46 148 OFFCURVE",
"202 -14 OFFCURVE",
"416 -14 CURVE SMOOTH",
"628 -14 OFFCURVE",
"785 151 OFFCURVE",
"785 353 CURVE SMOOTH"
);
},
{
closed = 1;
nodes = (
"661 211 OFFCURVE",
"560 96 OFFCURVE",
"417 96 CURVE SMOOTH",
"272 96 OFFCURVE",
"171 210 OFFCURVE",
"171 353 CURVE SMOOTH",
"171 494 OFFCURVE",
"271 608 OFFCURVE",
"416 608 CURVE SMOOTH",
"559 608 OFFCURVE",
"661 491 OFFCURVE",
"661 350 CURVE SMOOTH"
);
}
);
width = 831;
}
);
unicode = 00D6;
},
{
glyphname = multiply;
layers = (
{
hints = (
{
horizontal = 1;
place = "{108, 484}";
type = Stem;
},
{
place = "{87, 484}";
type = Stem;
}
);
layerId = "1430537E-70AD-4C42-AE0B-37D64AC877DB";
paths = (
{
closed = 1;
nodes = (
"87 176 LINE",
"156 108 LINE",
"330 282 LINE",
"502 108 LINE",
"571 177 LINE",
"398 351 LINE",
"571 524 LINE",
"502 592 LINE",
"330 418 LINE",
"156 592 LINE",
"88 524 LINE",
"262 351 LINE"
);
}
);
width = 659;
}
);
unicode = 00D7;
},
{
glyphname = Oslash;
layers = (
{
hints = (
{
horizontal = 1;
place = "{-14, 113}";
type = Stem;
},
{
horizontal = 1;
place = "{605, 112}";
type = Stem;
},
{
place = "{45, 124}";
type = Stem;
},
{
place = "{659, 124}";
type = Stem;
}
);
layerId = "1430537E-70AD-4C42-AE0B-37D64AC877DB";
paths = (
{
closed = 1;
nodes = (
"78 -19 LINE",
"156 -47 LINE",
"226 46 LINE",
"277 9 OFFCURVE",
"340 -14 OFFCURVE",
"414 -14 CURVE SMOOTH",
"626 -14 OFFCURVE",
"783 151 OFFCURVE",
"783 353 CURVE SMOOTH",
"783 455 OFFCURVE",
"743 546 OFFCURVE",
"674 611 CURVE",
"755 719 LINE",
"673 743 LINE",
"605 657 LINE",
"552 695 OFFCURVE",
"489 717 OFFCURVE",
"416 717 CURVE SMOOTH",
"202 717 OFFCURVE",
"45 554 OFFCURVE",
"45 351 CURVE SMOOTH",
"45 247 OFFCURVE",
"86 155 OFFCURVE",
"156 90 CURVE"
);
},
{
closed = 1;
nodes = (
"223 188 LINE",
"187 235 OFFCURVE",
"169 294 OFFCURVE",
"169 353 CURVE SMOOTH",
"169 488 OFFCURVE",
"261 597 OFFCURVE",
"397 605 CURVE SMOOTH",
"430 607 OFFCURVE",
"461 602 OFFCURVE",
"491 591 CURVE SMOOTH",
"508 584 OFFCURVE",
"525 575 OFFCURVE",
"540 564 CURVE"
);
},
{
closed = 1;
nodes = (
"451 331 LINE",
"606 512 LINE",
"640 467 OFFCURVE",
"659 412 OFFCURVE",
"659 350 CURVE SMOOTH",
"659 220 OFFCURVE",
"570 106 OFFCURVE",
"435 99 CURVE SMOOTH",
"407 98 OFFCURVE",
"381 101 OFFCURVE",
"356 108 CURVE SMOOTH",
"343 111 OFFCURVE",
"330 116 OFFCURVE",
"318 121 CURVE",
"309 126 OFFCURVE",
"300 133 OFFCURVE",
"291 140 CURVE"
);
}
);
width = 828;
}
);
unicode = 00D8;
},
{
glyphname = Ugrave;
layers = (
{
hints = (
{
horizontal = 1;
place = "{-14, 110}";
type = Stem;
},
{
horizontal = 1;
place = "{704, -20}";
target = down;
type = TopGhost;
},
{
place = "{65, 122}";
type = Stem;
},
{
place = "{533, 122}";
type = Stem;
}
);
layerId = "1430537E-70AD-4C42-AE0B-37D64AC877DB";
paths = (
{
closed = 1;
nodes = (
"328 826 LINE",
"415 826 LINE",
"317 987 LINE",
"195 955 LINE"
);
},
{
closed = 1;
nodes = (
"549 -14 OFFCURVE",
"655 95 OFFCURVE",
"655 295 CURVE SMOOTH",
"655 704 LINE",
"533 704 LINE",
"533 292 LINE SMOOTH",
"533 160 OFFCURVE",
"470 96 OFFCURVE",
"360 96 CURVE SMOOTH",
"246 96 OFFCURVE",
"187 169 OFFCURVE",
"187 296 CURVE SMOOTH",
"187 704 LINE",
"65 704 LINE",
"65 292 LINE SMOOTH",
"65 99 OFFCURVE",
"171 -14 OFFCURVE",
"360 -14 CURVE SMOOTH"
);
}
);
width = 721;
}
);
unicode = 00D9;
},
{
glyphname = Uacute;
layers = (
{
hints = (
{
horizontal = 1;
place = "{-14, 110}";
type = Stem;
},
{
horizontal = 1;
place = "{704, -20}";
target = down;
type = TopGhost;
},
{
place = "{65, 122}";
type = Stem;
},
{
place = "{533, 122}";
type = Stem;
}
);
layerId = "1430537E-70AD-4C42-AE0B-37D64AC877DB";
paths = (
{
closed = 1;
nodes = (
"314 781 LINE",
"398 781 LINE",
"532 910 LINE",
"409 942 LINE"
);
},
{
closed = 1;
nodes = (
"549 -14 OFFCURVE",
"655 95 OFFCURVE",
"655 295 CURVE SMOOTH",
"655 704 LINE",
"533 704 LINE",
"533 292 LINE SMOOTH",
"533 160 OFFCURVE",
"470 96 OFFCURVE",
"360 96 CURVE SMOOTH",
"246 96 OFFCURVE",
"187 169 OFFCURVE",
"187 296 CURVE SMOOTH",
"187 704 LINE",
"65 704 LINE",
"65 292 LINE SMOOTH",
"65 99 OFFCURVE",
"171 -14 OFFCURVE",
"360 -14 CURVE SMOOTH"
);
}
);
width = 721;
}
);
unicode = 00DA;
},
{
glyphname = Ucircumflex;
layers = (
{
hints = (
{
horizontal = 1;
place = "{-14, 110}";
type = Stem;
},
{
horizontal = 1;
place = "{704, -20}";
target = down;
type = TopGhost;
},
{
horizontal = 1;
place = "{786, 156}";
type = Stem;
},
{
place = "{65, 122}";
type = Stem;
},
{
place = "{533, 122}";
type = Stem;
}
);
layerId = "1430537E-70AD-4C42-AE0B-37D64AC877DB";
paths = (
{
closed = 1;
nodes = (
"405 942 LINE",
"323 942 LINE",
"205 786 LINE",
"293 786 LINE",
"363 861 LINE",
"435 786 LINE",
"522 786 LINE"
);
},
{
closed = 1;
nodes = (
"549 -14 OFFCURVE",
"655 95 OFFCURVE",
"655 295 CURVE SMOOTH",
"655 704 LINE",
"533 704 LINE",
"533 292 LINE SMOOTH",
"533 160 OFFCURVE",
"470 96 OFFCURVE",
"360 96 CURVE SMOOTH",
"246 96 OFFCURVE",
"187 169 OFFCURVE",
"187 296 CURVE SMOOTH",
"187 704 LINE",
"65 704 LINE",
"65 292 LINE SMOOTH",
"65 99 OFFCURVE",
"171 -14 OFFCURVE",
"360 -14 CURVE SMOOTH"
);
}
);
width = 721;
}
);
unicode = 00DB;
},
{
glyphname = Udieresis;
layers = (
{
hints = (
{
horizontal = 1;
place = "{-14, 110}";
type = Stem;
},
{
horizontal = 1;
place = "{704, -20}";
target = down;
type = TopGhost;
},
{
horizontal = 1;
place = "{792, 136}";
type = Stem;
},
{
place = "{65, 122}";
type = Stem;
},
{
place = "{188, 138}";
type = Stem;
},
{
place = "{391, 136}";
type = Stem;
},
{
place = "{533, 122}";
type = Stem;
}
);
layerId = "1430537E-70AD-4C42-AE0B-37D64AC877DB";
paths = (
{
closed = 1;
nodes = (
"188 819 OFFCURVE",
"217 792 OFFCURVE",
"257 792 CURVE SMOOTH",
"294 792 OFFCURVE",
"326 819 OFFCURVE",
"326 860 CURVE SMOOTH",
"326 900 OFFCURVE",
"294 928 OFFCURVE",
"257 928 CURVE SMOOTH",
"217 928 OFFCURVE",
"188 900 OFFCURVE",
"188 860 CURVE SMOOTH"
);
},
{
closed = 1;
nodes = (
"391 819 OFFCURVE",
"421 792 OFFCURVE",
"459 792 CURVE SMOOTH",
"498 792 OFFCURVE",
"527 819 OFFCURVE",
"527 860 CURVE SMOOTH",
"527 900 OFFCURVE",
"498 928 OFFCURVE",
"459 928 CURVE SMOOTH",
"421 928 OFFCURVE",
"391 900 OFFCURVE",
"391 860 CURVE SMOOTH"
);
},
{
closed = 1;
nodes = (
"549 -14 OFFCURVE",
"655 95 OFFCURVE",
"655 295 CURVE SMOOTH",
"655 704 LINE",
"533 704 LINE",
"533 292 LINE SMOOTH",
"533 160 OFFCURVE",
"470 96 OFFCURVE",
"360 96 CURVE SMOOTH",
"246 96 OFFCURVE",
"187 169 OFFCURVE",
"187 296 CURVE SMOOTH",
"187 704 LINE",
"65 704 LINE",
"65 292 LINE SMOOTH",
"65 99 OFFCURVE",
"171 -14 OFFCURVE",
"360 -14 CURVE SMOOTH"
);
}
);
width = 721;
}
);
unicode = 00DC;
},
{
glyphname = Yacute;
layers = (
{
hints = (
{
horizontal = 1;
place = "{0, 21}";
target = up;
type = BottomGhost;
},
{
horizontal = 1;
place = "{703, -20}";
target = down;
type = TopGhost;
},
{
place = "{266, 121}";
type = Stem;
}
);
layerId = "1430537E-70AD-4C42-AE0B-37D64AC877DB";
paths = (
{
closed = 1;
nodes = (
"271 781 LINE",
"355 781 LINE",
"489 910 LINE",
"366 942 LINE"
);
},
{
closed = 1;
nodes = (
"387 276 LINE",
"656 703 LINE",
"520 703 LINE",
"329 387 LINE",
"137 703 LINE",
"-3 703 LINE",
"266 274 LINE",
"266 0 LINE",
"387 0 LINE"
);
}
);
width = 652;
}
);
unicode = 00DD;
},
{
glyphname = Thorn;
layers = (
{
hints = (
{
horizontal = 1;
place = "{0, 21}";
target = up;
type = BottomGhost;
},
{
horizontal = 1;
place = "{164, 97}";
type = Stem;
},
{
horizontal = 1;
place = "{484, 100}";
type = Stem;
},
{
horizontal = 1;
place = "{706, -20}";
target = down;
type = TopGhost;
},
{
place = "{73, 116}";
type = Stem;
},
{
place = "{377, 117}";
type = Stem;
}
);
layerId = "1430537E-70AD-4C42-AE0B-37D64AC877DB";
paths = (
{
closed = 1;
nodes = (
"73 0 LINE",
"189 0 LINE",
"189 164 LINE",
"261 164 LINE SMOOTH",
"394 164 OFFCURVE",
"494 227 OFFCURVE",
"494 372 CURVE SMOOTH",
"494 532 OFFCURVE",
"376 584 OFFCURVE",
"235 584 CURVE SMOOTH",
"189 584 LINE",
"189 706 LINE",
"73 706 LINE"
);
},
{
closed = 1;
nodes = (
"189 261 LINE",
"189 484 LINE",
"217 484 LINE SMOOTH",
"298 484 OFFCURVE",
"377 476 OFFCURVE",
"377 375 CURVE SMOOTH",
"377 282 OFFCURVE",
"312 261 OFFCURVE",
"233 261 CURVE SMOOTH"
);
}
);
width = 522;
}
);
unicode = 00DE;
},
{
glyphname = germandbls;
layers = (
{
hints = (
{
place = "{10, 117}";
type = Stem;
},
{
place = "{351, 117}";
type = Stem;
},
{
place = "{392, 119}";
type = Stem;
},
{
horizontal = 1;
place = "{-3, 89}";
type = Stem;
},
{
horizontal = 1;
place = "{0, 21}";
target = up;
type = BottomGhost;
},
{
horizontal = 1;
place = "{647, 101}";
type = Stem;
}
);
layerId = "1430537E-70AD-4C42-AE0B-37D64AC877DB";
paths = (
{
closed = 1;
nodes = (
"127 507 LINE SMOOTH",
"127 581 OFFCURVE",
"166 647 OFFCURVE",
"246 647 CURVE SMOOTH",
"308 647 OFFCURVE",
"351 609 OFFCURVE",
"351 544 CURVE SMOOTH",
"351 474 OFFCURVE",
"296 440 OFFCURVE",
"228 414 CURVE",
"228 339 LINE",
"328 327 OFFCURVE",
"392 294 OFFCURVE",
"392 211 CURVE SMOOTH",
"392 125 OFFCURVE",
"322 87 OFFCURVE",
"222 86 CURVE",
"222 -3 LINE",
"372 -7 OFFCURVE",
"511 58 OFFCURVE",
"511 204 CURVE SMOOTH",
"511 305 OFFCURVE",
"435 370 OFFCURVE",
"351 387 CURVE",
"418 418 OFFCURVE",
"468 474 OFFCURVE",
"468 558 CURVE SMOOTH",
"468 669 OFFCURVE",
"379 748 OFFCURVE",
"250 748 CURVE SMOOTH",
"87 748 OFFCURVE",
"10 641 OFFCURVE",
"10 506 CURVE SMOOTH",
"10 0 LINE",
"127 0 LINE"
);
}
);
width = 544;
}
);
unicode = 00DF;
},
{
glyphname = agrave;
layers = (
{
hints = (
{
place = "{33, 116}";
type = Stem;
},
{
place = "{389, 117}";
type = Stem;
},
{
horizontal = 1;
place = "{-11, 85}";
type = Stem;
},
{
horizontal = 1;
place = "{-4, 21}";
target = up;
type = BottomGhost;
},
{
horizontal = 1;
place = "{256, 75}";
type = Stem;
},
{
horizontal = 1;
place = "{416, 95}";
type = Stem;
}
);
layerId = "1430537E-70AD-4C42-AE0B-37D64AC877DB";
paths = (
{
closed = 1;
nodes = (
"278 616 LINE",
"365 616 LINE",
"267 777 LINE",
"145 745 LINE"
);
},
{
closed = 1;
nodes = (
"506 -4 LINE",
"506 309 LINE SMOOTH",
"506 443 OFFCURVE",
"408 511 OFFCURVE",
"268 511 CURVE SMOOTH",
"188 511 OFFCURVE",
"121 491 OFFCURVE",
"70 469 CURVE",
"70 372 LINE",
"129 404 OFFCURVE",
"189 416 OFFCURVE",
"249 416 CURVE SMOOTH",
"335 416 OFFCURVE",
"389 389 OFFCURVE",
"389 317 CURVE SMOOTH",
"389 301 LINE",
"350 322 OFFCURVE",
"299 331 OFFCURVE",
"244 331 CURVE SMOOTH",
"136 331 OFFCURVE",
"33 287 OFFCURVE",
"33 166 CURVE SMOOTH",
"33 52 OFFCURVE",
"129 -11 OFFCURVE",
"228 -11 CURVE SMOOTH",
"296 -11 OFFCURVE",
"345 11 OFFCURVE",
"388 51 CURVE"
);
},
{
closed = 1;
nodes = (
"389 128 LINE",
"358 93 OFFCURVE",
"317 74 OFFCURVE",
"264 74 CURVE SMOOTH",
"203 74 OFFCURVE",
"149 104 OFFCURVE",
"149 164 CURVE SMOOTH",
"149 227 OFFCURVE",
"210 256 OFFCURVE",
"272 256 CURVE SMOOTH",
"324 256 OFFCURVE",
"362 241 OFFCURVE",
"389 226 CURVE"
);
}
);
width = 569;
}
);
unicode = 00E0;
},
{
glyphname = aacute;
layers = (
{
hints = (
{
place = "{33, 116}";
type = Stem;
},
{
place = "{389, 117}";
type = Stem;
},
{
horizontal = 1;
place = "{-11, 85}";
type = Stem;
},
{
horizontal = 1;
place = "{-4, 21}";
target = up;
type = BottomGhost;
},
{
horizontal = 1;
place = "{256, 75}";
type = Stem;
},
{
horizontal = 1;
place = "{416, 95}";
type = Stem;
}
);
layerId = "1430537E-70AD-4C42-AE0B-37D64AC877DB";
paths = (
{
closed = 1;
nodes = (
"234 616 LINE",
"318 616 LINE",
"452 745 LINE",
"329 777 LINE"
);
},
{
closed = 1;
nodes = (
"506 -4 LINE",
"506 309 LINE SMOOTH",
"506 443 OFFCURVE",
"408 511 OFFCURVE",
"268 511 CURVE SMOOTH",
"188 511 OFFCURVE",
"121 491 OFFCURVE",
"70 469 CURVE",
"70 372 LINE",
"129 404 OFFCURVE",
"189 416 OFFCURVE",
"249 416 CURVE SMOOTH",
"335 416 OFFCURVE",
"389 389 OFFCURVE",
"389 317 CURVE SMOOTH",
"389 301 LINE",
"350 322 OFFCURVE",
"299 331 OFFCURVE",
"244 331 CURVE SMOOTH",
"136 331 OFFCURVE",
"33 287 OFFCURVE",
"33 166 CURVE SMOOTH",
"33 52 OFFCURVE",
"129 -11 OFFCURVE",
"228 -11 CURVE SMOOTH",
"296 -11 OFFCURVE",
"345 11 OFFCURVE",
"388 51 CURVE"
);
},
{
closed = 1;
nodes = (
"389 128 LINE",
"358 93 OFFCURVE",
"317 74 OFFCURVE",
"264 74 CURVE SMOOTH",
"203 74 OFFCURVE",
"149 104 OFFCURVE",
"149 164 CURVE SMOOTH",
"149 227 OFFCURVE",
"210 256 OFFCURVE",
"272 256 CURVE SMOOTH",
"324 256 OFFCURVE",
"362 241 OFFCURVE",
"389 226 CURVE"
);
}
);
width = 569;
}
);
unicode = 00E1;
},
{
glyphname = acircumflex;
layers = (
{
hints = (
{
place = "{33, 116}";
type = Stem;
},
{
place = "{389, 117}";
type = Stem;
},
{
horizontal = 1;
place = "{-11, 85}";
type = Stem;
},
{
horizontal = 1;
place = "{-4, 21}";
target = up;
type = BottomGhost;
},
{
horizontal = 1;
place = "{256, 75}";
type = Stem;
},
{
horizontal = 1;
place = "{416, 95}";
type = Stem;
},
{
horizontal = 1;
place = "{621, 156}";
type = Stem;
}
);
layerId = "1430537E-70AD-4C42-AE0B-37D64AC877DB";
paths = (
{
closed = 1;
nodes = (
"315 777 LINE",
"233 777 LINE",
"115 621 LINE",
"203 621 LINE",
"273 696 LINE",
"345 621 LINE",
"432 621 LINE"
);
},
{
closed = 1;
nodes = (
"506 -4 LINE",
"506 309 LINE SMOOTH",
"506 443 OFFCURVE",
"408 511 OFFCURVE",
"268 511 CURVE SMOOTH",
"188 511 OFFCURVE",
"121 491 OFFCURVE",
"70 469 CURVE",
"70 372 LINE",
"129 404 OFFCURVE",
"189 416 OFFCURVE",
"249 416 CURVE SMOOTH",
"335 416 OFFCURVE",
"389 389 OFFCURVE",
"389 317 CURVE SMOOTH",
"389 301 LINE",
"350 322 OFFCURVE",
"299 331 OFFCURVE",
"244 331 CURVE SMOOTH",
"136 331 OFFCURVE",
"33 287 OFFCURVE",
"33 166 CURVE SMOOTH",
"33 52 OFFCURVE",
"129 -11 OFFCURVE",
"228 -11 CURVE SMOOTH",
"296 -11 OFFCURVE",
"345 11 OFFCURVE",
"388 51 CURVE"
);
},
{
closed = 1;
nodes = (
"389 128 LINE",
"358 93 OFFCURVE",
"317 74 OFFCURVE",
"264 74 CURVE SMOOTH",
"203 74 OFFCURVE",
"149 104 OFFCURVE",
"149 164 CURVE SMOOTH",
"149 227 OFFCURVE",
"210 256 OFFCURVE",
"272 256 CURVE SMOOTH",
"324 256 OFFCURVE",
"362 241 OFFCURVE",
"389 226 CURVE"
);
}
);
width = 569;
}
);
unicode = 00E2;
},
{
glyphname = atilde;
layers = (
{
hints = (
{
place = "{33, 116}";
type = Stem;
},
{
place = "{389, 117}";
type = Stem;
},
{
horizontal = 1;
place = "{-11, 85}";
type = Stem;
},
{
horizontal = 1;
place = "{-4, 21}";
target = up;
type = BottomGhost;
},
{
horizontal = 1;
place = "{256, 75}";
type = Stem;
},
{
horizontal = 1;
place = "{416, 95}";
type = Stem;
},
{
horizontal = 1;
place = "{612, 85}";
type = Stem;
},
{
horizontal = 1;
place = "{648, 85}";
type = Stem;
}
);
layerId = "1430537E-70AD-4C42-AE0B-37D64AC877DB";
paths = (
{
closed = 1;
nodes = (
"185 602 LINE",
"196 636 OFFCURVE",
"214 648 OFFCURVE",
"235 648 CURVE SMOOTH",
"272 648 OFFCURVE",
"311 612 OFFCURVE",
"356 612 CURVE SMOOTH",
"408 612 OFFCURVE",
"440 658 OFFCURVE",
"460 729 CURVE",
"391 742 LINE",
"381 711 OFFCURVE",
"369 697 OFFCURVE",
"349 697 CURVE SMOOTH",
"317 697 OFFCURVE",
"276 733 OFFCURVE",
"228 733 CURVE SMOOTH",
"172 733 OFFCURVE",
"135 685 OFFCURVE",
"114 614 CURVE"
);
},
{
closed = 1;
nodes = (
"506 -4 LINE",
"506 309 LINE SMOOTH",
"506 443 OFFCURVE",
"408 511 OFFCURVE",
"268 511 CURVE SMOOTH",
"188 511 OFFCURVE",
"121 491 OFFCURVE",
"70 469 CURVE",
"70 372 LINE",
"129 404 OFFCURVE",
"189 416 OFFCURVE",
"249 416 CURVE SMOOTH",
"335 416 OFFCURVE",
"389 389 OFFCURVE",
"389 317 CURVE SMOOTH",
"389 301 LINE",
"350 322 OFFCURVE",
"299 331 OFFCURVE",
"244 331 CURVE SMOOTH",
"136 331 OFFCURVE",
"33 287 OFFCURVE",
"33 166 CURVE SMOOTH",
"33 52 OFFCURVE",
"129 -11 OFFCURVE",
"228 -11 CURVE SMOOTH",
"296 -11 OFFCURVE",
"345 11 OFFCURVE",
"388 51 CURVE"
);
},
{
closed = 1;
nodes = (
"389 128 LINE",
"358 93 OFFCURVE",
"317 74 OFFCURVE",
"264 74 CURVE SMOOTH",
"203 74 OFFCURVE",
"149 104 OFFCURVE",
"149 164 CURVE SMOOTH",
"149 227 OFFCURVE",
"210 256 OFFCURVE",
"272 256 CURVE SMOOTH",
"324 256 OFFCURVE",
"362 241 OFFCURVE",
"389 226 CURVE"
);
}
);
width = 569;
}
);
unicode = 00E3;
},
{
glyphname = adieresis;
layers = (
{
hints = (
{
place = "{33, 116}";
type = Stem;
},
{
place = "{108, 138}";
type = Stem;
},
{
place = "{311, 136}";
type = Stem;
},
{
place = "{389, 117}";
type = Stem;
},
{
horizontal = 1;
place = "{-11, 85}";
type = Stem;
},
{
horizontal = 1;
place = "{-4, 21}";
target = up;
type = BottomGhost;
},
{
horizontal = 1;
place = "{256, 75}";
type = Stem;
},
{
horizontal = 1;
place = "{416, 95}";
type = Stem;
},
{
horizontal = 1;
place = "{627, 136}";
type = Stem;
}
);
layerId = "1430537E-70AD-4C42-AE0B-37D64AC877DB";
paths = (
{
closed = 1;
nodes = (
"108 654 OFFCURVE",
"137 627 OFFCURVE",
"177 627 CURVE SMOOTH",
"214 627 OFFCURVE",
"246 654 OFFCURVE",
"246 695 CURVE SMOOTH",
"246 735 OFFCURVE",
"214 763 OFFCURVE",
"177 763 CURVE SMOOTH",
"137 763 OFFCURVE",
"108 735 OFFCURVE",
"108 695 CURVE SMOOTH"
);
},
{
closed = 1;
nodes = (
"311 654 OFFCURVE",
"341 627 OFFCURVE",
"379 627 CURVE SMOOTH",
"418 627 OFFCURVE",
"447 654 OFFCURVE",
"447 695 CURVE SMOOTH",
"447 735 OFFCURVE",
"418 763 OFFCURVE",
"379 763 CURVE SMOOTH",
"341 763 OFFCURVE",
"311 735 OFFCURVE",
"311 695 CURVE SMOOTH"
);
},
{
closed = 1;
nodes = (
"506 -4 LINE",
"506 309 LINE SMOOTH",
"506 443 OFFCURVE",
"408 511 OFFCURVE",
"268 511 CURVE SMOOTH",
"188 511 OFFCURVE",
"121 491 OFFCURVE",
"70 469 CURVE",
"70 372 LINE",
"129 404 OFFCURVE",
"189 416 OFFCURVE",
"249 416 CURVE SMOOTH",
"335 416 OFFCURVE",
"389 389 OFFCURVE",
"389 317 CURVE SMOOTH",
"389 301 LINE",
"350 322 OFFCURVE",
"299 331 OFFCURVE",
"244 331 CURVE SMOOTH",
"136 331 OFFCURVE",
"33 287 OFFCURVE",
"33 166 CURVE SMOOTH",
"33 52 OFFCURVE",
"129 -11 OFFCURVE",
"228 -11 CURVE SMOOTH",
"296 -11 OFFCURVE",
"345 11 OFFCURVE",
"388 51 CURVE"
);
},
{
closed = 1;
nodes = (
"389 128 LINE",
"358 93 OFFCURVE",
"317 74 OFFCURVE",
"264 74 CURVE SMOOTH",
"203 74 OFFCURVE",
"149 104 OFFCURVE",
"149 164 CURVE SMOOTH",
"149 227 OFFCURVE",
"210 256 OFFCURVE",
"272 256 CURVE SMOOTH",
"324 256 OFFCURVE",
"362 241 OFFCURVE",
"389 226 CURVE"
);
}
);
width = 569;
}
);
unicode = 00E4;
},
{
glyphname = aring;
layers = (
{
hints = (
{
place = "{33, 116}";
type = Stem;
},
{
place = "{164, 63}";
type = Stem;
},
{
place = "{319, 63}";
type = Stem;
},
{
place = "{389, 117}";
type = Stem;
},
{
horizontal = 1;
place = "{-11, 85}";
type = Stem;
},
{
horizontal = 1;
place = "{-4, 21}";
target = up;
type = BottomGhost;
},
{
horizontal = 1;
place = "{256, 75}";
type = Stem;
},
{
horizontal = 1;
place = "{416, 95}";
type = Stem;
},
{
horizontal = 1;
place = "{592, 61}";
type = Stem;
},
{
horizontal = 1;
place = "{744, 61}";
type = Stem;
}
);
layerId = "1430537E-70AD-4C42-AE0B-37D64AC877DB";
paths = (
{
closed = 1;
nodes = (
"382 757 OFFCURVE",
"332 805 OFFCURVE",
"272 805 CURVE SMOOTH",
"215 805 OFFCURVE",
"164 758 OFFCURVE",
"164 698 CURVE SMOOTH",
"164 638 OFFCURVE",
"215 592 OFFCURVE",
"272 592 CURVE SMOOTH",
"333 592 OFFCURVE",
"382 637 OFFCURVE",
"382 697 CURVE SMOOTH"
);
},
{
closed = 1;
nodes = (
"319 672 OFFCURVE",
"301 653 OFFCURVE",
"273 653 CURVE SMOOTH",
"247 653 OFFCURVE",
"227 671 OFFCURVE",
"227 699 CURVE SMOOTH",
"227 724 OFFCURVE",
"247 744 OFFCURVE",
"273 744 CURVE SMOOTH",
"300 744 OFFCURVE",
"319 723 OFFCURVE",
"319 698 CURVE SMOOTH"
);
},
{
closed = 1;
nodes = (
"506 -4 LINE",
"506 309 LINE SMOOTH",
"506 443 OFFCURVE",
"408 511 OFFCURVE",
"268 511 CURVE SMOOTH",
"188 511 OFFCURVE",
"121 491 OFFCURVE",
"70 469 CURVE",
"70 372 LINE",
"129 404 OFFCURVE",
"189 416 OFFCURVE",
"249 416 CURVE SMOOTH",
"335 416 OFFCURVE",
"389 389 OFFCURVE",
"389 317 CURVE SMOOTH",
"389 301 LINE",
"350 322 OFFCURVE",
"299 331 OFFCURVE",
"244 331 CURVE SMOOTH",
"136 331 OFFCURVE",
"33 287 OFFCURVE",
"33 166 CURVE SMOOTH",
"33 52 OFFCURVE",
"129 -11 OFFCURVE",
"228 -11 CURVE SMOOTH",
"296 -11 OFFCURVE",
"345 11 OFFCURVE",
"388 51 CURVE"
);
},
{
closed = 1;
nodes = (
"389 128 LINE",
"358 93 OFFCURVE",
"317 74 OFFCURVE",
"264 74 CURVE SMOOTH",
"203 74 OFFCURVE",
"149 104 OFFCURVE",
"149 164 CURVE SMOOTH",
"149 227 OFFCURVE",
"210 256 OFFCURVE",
"272 256 CURVE SMOOTH",
"324 256 OFFCURVE",
"362 241 OFFCURVE",
"389 226 CURVE"
);
}
);
width = 569;
}
);
unicode = 00E5;
},
{
glyphname = ae;
layers = (
{
hints = (
{
place = "{30, 116}";
type = Stem;
},
{
place = "{386, 120}";
type = Stem;
},
{
horizontal = 1;
place = "{-12, 92}";
type = Stem;
},
{
horizontal = 1;
place = "{-11, 85}";
type = Stem;
},
{
horizontal = 1;
place = "{256, 75}";
type = Stem;
},
{
horizontal = 1;
place = "{416, 95}";
type = Stem;
},
{
horizontal = 1;
place = "{419, 94}";
type = Stem;
}
);
layerId = "1430537E-70AD-4C42-AE0B-37D64AC877DB";
paths = (
{
closed = 1;
nodes = (
"587 80 OFFCURVE",
"541 114 OFFCURVE",
"517 166 CURVE",
"886 257 LINE",
"875 394 OFFCURVE",
"792 513 OFFCURVE",
"641 513 CURVE SMOOTH",
"565 513 OFFCURVE",
"504 482 OFFCURVE",
"462 432 CURVE",
"414 495 OFFCURVE",
"329 511 OFFCURVE",
"254 511 CURVE",
"180 510 OFFCURVE",
"115 490 OFFCURVE",
"67 469 CURVE",
"67 372 LINE",
"121 401 OFFCURVE",
"175 413 OFFCURVE",
"230 415 CURVE",
"235 416 OFFCURVE",
"241 416 OFFCURVE",
"246 416 CURVE SMOOTH",
"332 416 OFFCURVE",
"386 389 OFFCURVE",
"386 317 CURVE SMOOTH",
"386 301 LINE",
"347 322 OFFCURVE",
"296 331 OFFCURVE",
"241 331 CURVE SMOOTH",
"136 331 OFFCURVE",
"35 290 OFFCURVE",
"30 176 CURVE",
"30 68 OFFCURVE",
"100 -4 OFFCURVE",
"209 -11 CURVE",
"303 -11 OFFCURVE",
"388 5 OFFCURVE",
"461 69 CURVE",
"503 22 OFFCURVE",
"562 -8 OFFCURVE",
"636 -12 CURVE SMOOTH",
"646 -13 OFFCURVE",
"657 -13 OFFCURVE",
"668 -12 CURVE",
"734 -10 OFFCURVE",
"794 10 OFFCURVE",
"839 43 CURVE",
"839 151 LINE",
"797 111 OFFCURVE",
"730 80 OFFCURVE",
"658 80 CURVE SMOOTH"
);
},
{
closed = 1;
nodes = (
"509 257 LINE",
"506 255 LINE",
"505 337 OFFCURVE",
"551 419 OFFCURVE",
"639 419 CURVE SMOOTH",
"706 419 OFFCURVE",
"753 376 OFFCURVE",
"768 317 CURVE"
);
},
{
closed = 1;
nodes = (
"386 128 LINE",
"355 93 OFFCURVE",
"314 74 OFFCURVE",
"261 74 CURVE SMOOTH",
"200 74 OFFCURVE",
"146 104 OFFCURVE",
"146 164 CURVE SMOOTH",
"146 227 OFFCURVE",
"207 256 OFFCURVE",
"269 256 CURVE SMOOTH",
"321 256 OFFCURVE",
"359 241 OFFCURVE",
"386 226 CURVE"
);
}
);
width = 917;
}
);
unicode = 00E6;
},
{
glyphname = ccedilla;
layers = (
{
hints = (
{
horizontal = 1;
place = "{-229, 56}";
type = Stem;
},
{
horizontal = 1;
place = "{-105, 36}";
type = Stem;
},
{
horizontal = 1;
place = "{-7, 21}";
target = up;
type = BottomGhost;
},
{
horizontal = 1;
place = "{413, 99}";
type = Stem;
},
{
place = "{33, 117}";
type = Stem;
},
{
place = "{285, 79}";
type = Stem;
}
);
layerId = "1430537E-70AD-4C42-AE0B-37D64AC877DB";
paths = (
{
closed = 1;
nodes = (
"424 480 LINE",
"390 502 OFFCURVE",
"340 512 OFFCURVE",
"296 512 CURVE SMOOTH",
"140 512 OFFCURVE",
"33 393 OFFCURVE",
"33 250 CURVE SMOOTH",
"33 120 OFFCURVE",
"122 14 OFFCURVE",
"246 -7 CURVE",
"187 -95 LINE",
"209 -113 LINE",
"222 -107 OFFCURVE",
"232 -105 OFFCURVE",
"244 -105 CURVE SMOOTH",
"268 -105 OFFCURVE",
"285 -114 OFFCURVE",
"285 -134 CURVE SMOOTH",
"285 -164 OFFCURVE",
"246 -173 OFFCURVE",
"224 -173 CURVE SMOOTH",
"207 -173 OFFCURVE",
"189 -170 OFFCURVE",
"167 -161 CURVE",
"151 -207 LINE",
"179 -221 OFFCURVE",
"209 -229 OFFCURVE",
"242 -229 CURVE SMOOTH",
"295 -229 OFFCURVE",
"364 -206 OFFCURVE",
"364 -140 CURVE SMOOTH",
"364 -87 OFFCURVE",
"316 -69 OFFCURVE",
"280 -69 CURVE SMOOTH",
"276 -69 LINE",
"311 -10 LINE",
"356 -6 OFFCURVE",
"397 8 OFFCURVE",
"429 25 CURVE",
"429 144 LINE",
"394 109 OFFCURVE",
"351 89 OFFCURVE",
"303 89 CURVE SMOOTH",
"217 89 OFFCURVE",
"150 164 OFFCURVE",
"150 254 CURVE SMOOTH",
"150 344 OFFCURVE",
"213 413 OFFCURVE",
"300 413 CURVE SMOOTH",
"349 413 OFFCURVE",
"390 392 OFFCURVE",
"424 358 CURVE"
);
}
);
width = 471;
}
);
unicode = 00E7;
},
{
glyphname = egrave;
layers = (
{
hints = (
{
horizontal = 1;
place = "{-13, 93}";
type = Stem;
},
{
horizontal = 1;
place = "{419, 94}";
type = Stem;
},
{
place = "{33, 114}";
type = Stem;
}
);
layerId = "1430537E-70AD-4C42-AE0B-37D64AC877DB";
paths = (
{
closed = 1;
nodes = (
"246 616 LINE",
"333 616 LINE",
"235 777 LINE",
"113 745 LINE"
);
},
{
closed = 1;
nodes = (
"228 80 OFFCURVE",
"181 114 OFFCURVE",
"158 166 CURVE",
"526 257 LINE",
"515 394 OFFCURVE",
"432 513 OFFCURVE",
"281 513 CURVE SMOOTH",
"133 513 OFFCURVE",
"33 398 OFFCURVE",
"33 249 CURVE SMOOTH",
"33 96 OFFCURVE",
"143 -13 OFFCURVE",
"294 -13 CURVE SMOOTH",
"361 -13 OFFCURVE",
"429 7 OFFCURVE",
"479 43 CURVE",
"479 151 LINE",
"437 111 OFFCURVE",
"370 80 OFFCURVE",
"298 80 CURVE SMOOTH"
);
},
{
closed = 1;
nodes = (
"147 256 LINE",
"147 337 OFFCURVE",
"190 419 OFFCURVE",
"280 419 CURVE SMOOTH",
"346 419 OFFCURVE",
"393 376 OFFCURVE",
"409 317 CURVE",
"149 251 LINE"
);
}
);
width = 558;
}
);
unicode = 00E8;
},
{
glyphname = eacute;
layers = (
{
hints = (
{
horizontal = 1;
place = "{-13, 93}";
type = Stem;
},
{
horizontal = 1;
place = "{419, 94}";
type = Stem;
},
{
place = "{33, 114}";
type = Stem;
}
);
layerId = "1430537E-70AD-4C42-AE0B-37D64AC877DB";
paths = (
{
closed = 1;
nodes = (
"243 616 LINE",
"327 616 LINE",
"461 745 LINE",
"338 777 LINE"
);
},
{
closed = 1;
nodes = (
"228 80 OFFCURVE",
"181 114 OFFCURVE",
"158 166 CURVE",
"526 257 LINE",
"515 394 OFFCURVE",
"432 513 OFFCURVE",
"281 513 CURVE SMOOTH",
"133 513 OFFCURVE",
"33 398 OFFCURVE",
"33 249 CURVE SMOOTH",
"33 96 OFFCURVE",
"143 -13 OFFCURVE",
"294 -13 CURVE SMOOTH",
"361 -13 OFFCURVE",
"429 7 OFFCURVE",
"479 43 CURVE",
"479 151 LINE",
"437 111 OFFCURVE",
"370 80 OFFCURVE",
"298 80 CURVE SMOOTH"
);
},
{
closed = 1;
nodes = (
"147 256 LINE",
"147 337 OFFCURVE",
"190 419 OFFCURVE",
"280 419 CURVE SMOOTH",
"346 419 OFFCURVE",
"393 376 OFFCURVE",
"409 317 CURVE",
"149 251 LINE"
);
}
);
width = 558;
}
);
unicode = 00E9;
},
{
glyphname = ecircumflex;
layers = (
{
hints = (
{
horizontal = 1;
place = "{-13, 93}";
type = Stem;
},
{
horizontal = 1;
place = "{419, 94}";
type = Stem;
},
{
horizontal = 1;
place = "{621, 156}";
type = Stem;
},
{
place = "{33, 114}";
type = Stem;
}
);
layerId = "1430537E-70AD-4C42-AE0B-37D64AC877DB";
paths = (
{
closed = 1;
nodes = (
"334 777 LINE",
"252 777 LINE",
"134 621 LINE",
"222 621 LINE",
"292 696 LINE",
"364 621 LINE",
"451 621 LINE"
);
},
{
closed = 1;
nodes = (
"228 80 OFFCURVE",
"181 114 OFFCURVE",
"158 166 CURVE",
"526 257 LINE",
"515 394 OFFCURVE",
"432 513 OFFCURVE",
"281 513 CURVE SMOOTH",
"133 513 OFFCURVE",
"33 398 OFFCURVE",
"33 249 CURVE SMOOTH",
"33 96 OFFCURVE",
"143 -13 OFFCURVE",
"294 -13 CURVE SMOOTH",
"361 -13 OFFCURVE",
"429 7 OFFCURVE",
"479 43 CURVE",
"479 151 LINE",
"437 111 OFFCURVE",
"370 80 OFFCURVE",
"298 80 CURVE SMOOTH"
);
},
{
closed = 1;
nodes = (
"147 256 LINE",
"147 337 OFFCURVE",
"190 419 OFFCURVE",
"280 419 CURVE SMOOTH",
"346 419 OFFCURVE",
"393 376 OFFCURVE",
"409 317 CURVE",
"149 251 LINE"
);
}
);
width = 558;
}
);
unicode = 00EA;
},
{
glyphname = edieresis;
layers = (
{
hints = (
{
place = "{33, 114}";
type = Stem;
},
{
place = "{121, 138}";
type = Stem;
},
{
place = "{324, 136}";
type = Stem;
},
{
horizontal = 1;
place = "{-13, 93}";
type = Stem;
},
{
horizontal = 1;
place = "{419, 94}";
type = Stem;
},
{
horizontal = 1;
place = "{627, 136}";
type = Stem;
}
);
layerId = "1430537E-70AD-4C42-AE0B-37D64AC877DB";
paths = (
{
closed = 1;
nodes = (
"121 654 OFFCURVE",
"150 627 OFFCURVE",
"190 627 CURVE SMOOTH",
"227 627 OFFCURVE",
"259 654 OFFCURVE",
"259 695 CURVE SMOOTH",
"259 735 OFFCURVE",
"227 763 OFFCURVE",
"190 763 CURVE SMOOTH",
"150 763 OFFCURVE",
"121 735 OFFCURVE",
"121 695 CURVE SMOOTH"
);
},
{
closed = 1;
nodes = (
"324 654 OFFCURVE",
"354 627 OFFCURVE",
"392 627 CURVE SMOOTH",
"431 627 OFFCURVE",
"460 654 OFFCURVE",
"460 695 CURVE SMOOTH",
"460 735 OFFCURVE",
"431 763 OFFCURVE",
"392 763 CURVE SMOOTH",
"354 763 OFFCURVE",
"324 735 OFFCURVE",
"324 695 CURVE SMOOTH"
);
},
{
closed = 1;
nodes = (
"228 80 OFFCURVE",
"181 114 OFFCURVE",
"158 166 CURVE",
"526 257 LINE",
"515 394 OFFCURVE",
"432 513 OFFCURVE",
"281 513 CURVE SMOOTH",
"133 513 OFFCURVE",
"33 398 OFFCURVE",
"33 249 CURVE SMOOTH",
"33 96 OFFCURVE",
"143 -13 OFFCURVE",
"294 -13 CURVE SMOOTH",
"361 -13 OFFCURVE",
"429 7 OFFCURVE",
"479 43 CURVE",
"479 151 LINE",
"437 111 OFFCURVE",
"370 80 OFFCURVE",
"298 80 CURVE SMOOTH"
);
},
{
closed = 1;
nodes = (
"147 256 LINE",
"147 337 OFFCURVE",
"190 419 OFFCURVE",
"280 419 CURVE SMOOTH",
"346 419 OFFCURVE",
"393 376 OFFCURVE",
"409 317 CURVE",
"149 251 LINE"
);
}
);
width = 558;
}
);
unicode = 00EB;
},
{
glyphname = igrave;
layers = (
{
hints = (
{
horizontal = 1;
place = "{0, 21}";
target = up;
type = BottomGhost;
},
{
horizontal = 1;
place = "{502, -20}";
target = down;
type = TopGhost;
},
{
place = "{59, 118}";
type = Stem;
}
);
layerId = "1430537E-70AD-4C42-AE0B-37D64AC877DB";
paths = (
{
closed = 1;
nodes = (
"105 616 LINE",
"192 616 LINE",
"94 777 LINE",
"-28 745 LINE"
);
},
{
closed = 1;
nodes = (
"177 502 LINE",
"59 502 LINE",
"59 0 LINE",
"177 0 LINE"
);
}
);
width = 238;
}
);
unicode = 00EC;
},
{
glyphname = iacute;
layers = (
{
hints = (
{
horizontal = 1;
place = "{0, 21}";
target = up;
type = BottomGhost;
},
{
horizontal = 1;
place = "{502, -20}";
target = down;
type = TopGhost;
},
{
place = "{36, 118}";
type = Stem;
}
);
layerId = "1430537E-70AD-4C42-AE0B-37D64AC877DB";
paths = (
{
closed = 1;
nodes = (
"42 616 LINE",
"126 616 LINE",
"260 745 LINE",
"137 777 LINE"
);
},
{
closed = 1;
nodes = (
"154 502 LINE",
"36 502 LINE",
"36 0 LINE",
"154 0 LINE"
);
}
);
width = 243;
}
);
unicode = 00ED;
},
{
glyphname = icircumflex;
layers = (
{
hints = (
{
horizontal = 1;
place = "{0, 21}";
target = up;
type = BottomGhost;
},
{
horizontal = 1;
place = "{502, -20}";
target = down;
type = TopGhost;
},
{
horizontal = 1;
place = "{621, 156}";
type = Stem;
},
{
place = "{54, 118}";
type = Stem;
}
);
layerId = "1430537E-70AD-4C42-AE0B-37D64AC877DB";
paths = (
{
closed = 1;
nodes = (
"154 777 LINE",
"72 777 LINE",
"-46 621 LINE",
"42 621 LINE",
"112 696 LINE",
"184 621 LINE",
"271 621 LINE"
);
},
{
closed = 1;
nodes = (
"172 502 LINE",
"54 502 LINE",
"54 0 LINE",
"172 0 LINE"
);
}
);
width = 225;
}
);
unicode = 00EE;
},
{
glyphname = idieresis;
layers = (
{
hints = (
{
place = "{-42, 138}";
type = Stem;
},
{
place = "{67, 118}";
type = Stem;
},
{
place = "{161, 136}";
type = Stem;
},
{
horizontal = 1;
place = "{0, 21}";
target = up;
type = BottomGhost;
},
{
horizontal = 1;
place = "{502, -20}";
target = down;
type = TopGhost;
},
{
horizontal = 1;
place = "{627, 136}";
type = Stem;
}
);
layerId = "1430537E-70AD-4C42-AE0B-37D64AC877DB";
paths = (
{
closed = 1;
nodes = (
"-42 654 OFFCURVE",
"-13 627 OFFCURVE",
"27 627 CURVE SMOOTH",
"64 627 OFFCURVE",
"96 654 OFFCURVE",
"96 695 CURVE SMOOTH",
"96 735 OFFCURVE",
"64 763 OFFCURVE",
"27 763 CURVE SMOOTH",
"-13 763 OFFCURVE",
"-42 735 OFFCURVE",
"-42 695 CURVE SMOOTH"
);
},
{
closed = 1;
nodes = (
"161 654 OFFCURVE",
"191 627 OFFCURVE",
"229 627 CURVE SMOOTH",
"268 627 OFFCURVE",
"297 654 OFFCURVE",
"297 695 CURVE SMOOTH",
"297 735 OFFCURVE",
"268 763 OFFCURVE",
"229 763 CURVE SMOOTH",
"191 763 OFFCURVE",
"161 735 OFFCURVE",
"161 695 CURVE SMOOTH"
);
},
{
closed = 1;
nodes = (
"185 502 LINE",
"67 502 LINE",
"67 0 LINE",
"185 0 LINE"
);
}
);
width = 256;
}
);
unicode = 00EF;
},
{
glyphname = eth;
layers = (
{
hints = (
{
horizontal = 1;
place = "{-12, 126}";
type = Stem;
},
{
horizontal = 1;
place = "{340, 121}";
type = Stem;
},
{
place = "{33, 138}";
type = Stem;
},
{
place = "{386, 136}";
type = Stem;
}
);
layerId = "1430537E-70AD-4C42-AE0B-37D64AC877DB";
paths = (
{
closed = 1;
nodes = (
"94 726 LINE",
"150 690 OFFCURVE",
"181 666 OFFCURVE",
"202 647 CURVE",
"83 572 LINE",
"127 527 LINE",
"249 605 LINE",
"306 550 OFFCURVE",
"356 490 OFFCURVE",
"387 417 CURVE",
"369 431 OFFCURVE",
"330 461 OFFCURVE",
"263 461 CURVE SMOOTH",
"132 461 OFFCURVE",
"33 356 OFFCURVE",
"33 226 CURVE SMOOTH",
"33 84 OFFCURVE",
"148 -12 OFFCURVE",
"278 -12 CURVE SMOOTH",
"387 -12 OFFCURVE",
"522 63 OFFCURVE",
"522 249 CURVE SMOOTH",
"522 447 OFFCURVE",
"401 584 OFFCURVE",
"329 653 CURVE",
"448 730 LINE",
"405 775 LINE",
"281 695 LINE",
"241 730 OFFCURVE",
"216 748 OFFCURVE",
"162 781 CURVE"
);
},
{
closed = 1;
nodes = (
"190 310 OFFCURVE",
"228 340 OFFCURVE",
"275 340 CURVE SMOOTH",
"286 340 OFFCURVE",
"297 338 OFFCURVE",
"309 335 CURVE SMOOTH",
"371 318 OFFCURVE",
"399 251 OFFCURVE",
"382 194 CURVE SMOOTH",
"368 145 OFFCURVE",
"329 114 OFFCURVE",
"281 114 CURVE SMOOTH",
"270 114 OFFCURVE",
"260 115 OFFCURVE",
"249 118 CURVE SMOOTH",
"193 135 OFFCURVE",
"157 196 OFFCURVE",
"175 260 CURVE SMOOTH"
);
}
);
width = 555;
}
);
unicode = 00F0;
},
{
glyphname = ntilde;
layers = (
{
hints = (
{
place = "{62, 118}";
type = Stem;
},
{
place = "{398, 118}";
type = Stem;
},
{
horizontal = 1;
place = "{0, 21}";
target = up;
type = BottomGhost;
},
{
horizontal = 1;
place = "{409, 104}";
type = Stem;
},
{
horizontal = 1;
place = "{502, -20}";
target = down;
type = TopGhost;
},
{
horizontal = 1;
place = "{612, 85}";
type = Stem;
},
{
horizontal = 1;
place = "{648, 85}";
type = Stem;
}
);
layerId = "1430537E-70AD-4C42-AE0B-37D64AC877DB";
paths = (
{
closed = 1;
nodes = (
"194 602 LINE",
"205 636 OFFCURVE",
"223 648 OFFCURVE",
"244 648 CURVE SMOOTH",
"281 648 OFFCURVE",
"320 612 OFFCURVE",
"365 612 CURVE SMOOTH",
"417 612 OFFCURVE",
"449 658 OFFCURVE",
"469 729 CURVE",
"400 742 LINE",
"390 711 OFFCURVE",
"378 697 OFFCURVE",
"358 697 CURVE SMOOTH",
"326 697 OFFCURVE",
"285 733 OFFCURVE",
"237 733 CURVE SMOOTH",
"181 733 OFFCURVE",
"144 685 OFFCURVE",
"123 614 CURVE"
);
},
{
closed = 1;
nodes = (
"267 513 OFFCURVE",
"217 479 OFFCURVE",
"181 436 CURVE",
"62 502 LINE",
"62 0 LINE",
"180 0 LINE",
"180 284 LINE SMOOTH",
"180 377 OFFCURVE",
"243 409 OFFCURVE",
"294 409 CURVE SMOOTH",
"347 409 OFFCURVE",
"398 376 OFFCURVE",
"398 284 CURVE SMOOTH",
"398 0 LINE",
"516 0 LINE",
"516 320 LINE SMOOTH",
"516 444 OFFCURVE",
"445 513 OFFCURVE",
"339 513 CURVE SMOOTH"
);
}
);
width = 573;
}
);
unicode = 00F1;
},
{
glyphname = ograve;
layers = (
{
hints = (
{
horizontal = 1;
place = "{-11, 100}";
type = Stem;
},
{
horizontal = 1;
place = "{414, 100}";
type = Stem;
},
{
place = "{33, 117}";
type = Stem;
},
{
place = "{460, 117}";
type = Stem;
}
);
layerId = "1430537E-70AD-4C42-AE0B-37D64AC877DB";
paths = (
{
closed = 1;
nodes = (
"268 616 LINE",
"355 616 LINE",
"257 777 LINE",
"135 745 LINE"
);
},
{
closed = 1;
nodes = (
"577 398 OFFCURVE",
"462 514 OFFCURVE",
"305 514 CURVE SMOOTH",
"148 514 OFFCURVE",
"33 396 OFFCURVE",
"33 250 CURVE SMOOTH",
"33 104 OFFCURVE",
"147 -11 OFFCURVE",
"303 -11 CURVE SMOOTH",
"461 -11 OFFCURVE",
"577 107 OFFCURVE",
"577 252 CURVE SMOOTH"
);
},
{
closed = 1;
nodes = (
"460 163 OFFCURVE",
"396 89 OFFCURVE",
"305 89 CURVE SMOOTH",
"216 89 OFFCURVE",
"150 160 OFFCURVE",
"150 252 CURVE SMOOTH",
"150 341 OFFCURVE",
"211 414 OFFCURVE",
"303 414 CURVE SMOOTH",
"395 414 OFFCURVE",
"460 340 OFFCURVE",
"460 251 CURVE SMOOTH"
);
}
);
width = 610;
}
);
unicode = 00F2;
},
{
glyphname = oacute;
layers = (
{
hints = (
{
horizontal = 1;
place = "{-11, 100}";
type = Stem;
},
{
horizontal = 1;
place = "{414, 100}";
type = Stem;
},
{
place = "{33, 117}";
type = Stem;
},
{
place = "{460, 117}";
type = Stem;
}
);
layerId = "1430537E-70AD-4C42-AE0B-37D64AC877DB";
paths = (
{
closed = 1;
nodes = (
"257 616 LINE",
"341 616 LINE",
"475 745 LINE",
"352 777 LINE"
);
},
{
closed = 1;
nodes = (
"577 398 OFFCURVE",
"462 514 OFFCURVE",
"305 514 CURVE SMOOTH",
"148 514 OFFCURVE",
"33 396 OFFCURVE",
"33 250 CURVE SMOOTH",
"33 104 OFFCURVE",
"147 -11 OFFCURVE",
"303 -11 CURVE SMOOTH",
"461 -11 OFFCURVE",
"577 107 OFFCURVE",
"577 252 CURVE SMOOTH"
);
},
{
closed = 1;
nodes = (
"460 163 OFFCURVE",
"396 89 OFFCURVE",
"305 89 CURVE SMOOTH",
"216 89 OFFCURVE",
"150 160 OFFCURVE",
"150 252 CURVE SMOOTH",
"150 341 OFFCURVE",
"211 414 OFFCURVE",
"303 414 CURVE SMOOTH",
"395 414 OFFCURVE",
"460 340 OFFCURVE",
"460 251 CURVE SMOOTH"
);
}
);
width = 610;
}
);
unicode = 00F3;
},
{
glyphname = ocircumflex;
layers = (
{
hints = (
{
horizontal = 1;
place = "{-11, 100}";
type = Stem;
},
{
horizontal = 1;
place = "{414, 100}";
type = Stem;
},
{
horizontal = 1;
place = "{621, 156}";
type = Stem;
},
{
place = "{33, 117}";
type = Stem;
},
{
place = "{460, 117}";
type = Stem;
}
);
layerId = "1430537E-70AD-4C42-AE0B-37D64AC877DB";
paths = (
{
closed = 1;
nodes = (
"347 777 LINE",
"265 777 LINE",
"147 621 LINE",
"235 621 LINE",
"305 696 LINE",
"377 621 LINE",
"464 621 LINE"
);
},
{
closed = 1;
nodes = (
"577 398 OFFCURVE",
"462 514 OFFCURVE",
"305 514 CURVE SMOOTH",
"148 514 OFFCURVE",
"33 396 OFFCURVE",
"33 250 CURVE SMOOTH",
"33 104 OFFCURVE",
"147 -11 OFFCURVE",
"303 -11 CURVE SMOOTH",
"461 -11 OFFCURVE",
"577 107 OFFCURVE",
"577 252 CURVE SMOOTH"
);
},
{
closed = 1;
nodes = (
"460 163 OFFCURVE",
"396 89 OFFCURVE",
"305 89 CURVE SMOOTH",
"216 89 OFFCURVE",
"150 160 OFFCURVE",
"150 252 CURVE SMOOTH",
"150 341 OFFCURVE",
"211 414 OFFCURVE",
"303 414 CURVE SMOOTH",
"395 414 OFFCURVE",
"460 340 OFFCURVE",
"460 251 CURVE SMOOTH"
);
}
);
width = 610;
}
);
unicode = 00F4;
},
{
glyphname = otilde;
layers = (
{
hints = (
{
place = "{33, 117}";
type = Stem;
},
{
place = "{460, 117}";
type = Stem;
},
{
horizontal = 1;
place = "{-11, 100}";
type = Stem;
},
{
horizontal = 1;
place = "{414, 100}";
type = Stem;
},
{
horizontal = 1;
place = "{612, 85}";
type = Stem;
},
{
horizontal = 1;
place = "{648, 85}";
type = Stem;
}
);
layerId = "1430537E-70AD-4C42-AE0B-37D64AC877DB";
paths = (
{
closed = 1;
nodes = (
"200 602 LINE",
"211 636 OFFCURVE",
"229 648 OFFCURVE",
"250 648 CURVE SMOOTH",
"287 648 OFFCURVE",
"326 612 OFFCURVE",
"371 612 CURVE SMOOTH",
"423 612 OFFCURVE",
"455 658 OFFCURVE",
"475 729 CURVE",
"406 742 LINE",
"396 711 OFFCURVE",
"384 697 OFFCURVE",
"364 697 CURVE SMOOTH",
"332 697 OFFCURVE",
"291 733 OFFCURVE",
"243 733 CURVE SMOOTH",
"187 733 OFFCURVE",
"150 685 OFFCURVE",
"129 614 CURVE"
);
},
{
closed = 1;
nodes = (
"577 398 OFFCURVE",
"462 514 OFFCURVE",
"305 514 CURVE SMOOTH",
"148 514 OFFCURVE",
"33 396 OFFCURVE",
"33 250 CURVE SMOOTH",
"33 104 OFFCURVE",
"147 -11 OFFCURVE",
"303 -11 CURVE SMOOTH",
"461 -11 OFFCURVE",
"577 107 OFFCURVE",
"577 252 CURVE SMOOTH"
);
},
{
closed = 1;
nodes = (
"460 163 OFFCURVE",
"396 89 OFFCURVE",
"305 89 CURVE SMOOTH",
"216 89 OFFCURVE",
"150 160 OFFCURVE",
"150 252 CURVE SMOOTH",
"150 341 OFFCURVE",
"211 414 OFFCURVE",
"303 414 CURVE SMOOTH",
"395 414 OFFCURVE",
"460 340 OFFCURVE",
"460 251 CURVE SMOOTH"
);
}
);
width = 610;
}
);
unicode = 00F5;
},
{
glyphname = odieresis;
layers = (
{
hints = (
{
place = "{33, 117}";
type = Stem;
},
{
place = "{136, 138}";
type = Stem;
},
{
place = "{339, 136}";
type = Stem;
},
{
place = "{460, 117}";
type = Stem;
},
{
horizontal = 1;
place = "{-11, 100}";
type = Stem;
},
{
horizontal = 1;
place = "{414, 100}";
type = Stem;
},
{
horizontal = 1;
place = "{627, 136}";
type = Stem;
}
);
layerId = "1430537E-70AD-4C42-AE0B-37D64AC877DB";
paths = (
{
closed = 1;
nodes = (
"136 654 OFFCURVE",
"165 627 OFFCURVE",
"205 627 CURVE SMOOTH",
"242 627 OFFCURVE",
"274 654 OFFCURVE",
"274 695 CURVE SMOOTH",
"274 735 OFFCURVE",
"242 763 OFFCURVE",
"205 763 CURVE SMOOTH",
"165 763 OFFCURVE",
"136 735 OFFCURVE",
"136 695 CURVE SMOOTH"
);
},
{
closed = 1;
nodes = (
"339 654 OFFCURVE",
"369 627 OFFCURVE",
"407 627 CURVE SMOOTH",
"446 627 OFFCURVE",
"475 654 OFFCURVE",
"475 695 CURVE SMOOTH",
"475 735 OFFCURVE",
"446 763 OFFCURVE",
"407 763 CURVE SMOOTH",
"369 763 OFFCURVE",
"339 735 OFFCURVE",
"339 695 CURVE SMOOTH"
);
},
{
closed = 1;
nodes = (
"577 398 OFFCURVE",
"462 514 OFFCURVE",
"305 514 CURVE SMOOTH",
"148 514 OFFCURVE",
"33 396 OFFCURVE",
"33 250 CURVE SMOOTH",
"33 104 OFFCURVE",
"147 -11 OFFCURVE",
"303 -11 CURVE SMOOTH",
"461 -11 OFFCURVE",
"577 107 OFFCURVE",
"577 252 CURVE SMOOTH"
);
},
{
closed = 1;
nodes = (
"460 163 OFFCURVE",
"396 89 OFFCURVE",
"305 89 CURVE SMOOTH",
"216 89 OFFCURVE",
"150 160 OFFCURVE",
"150 252 CURVE SMOOTH",
"150 341 OFFCURVE",
"211 414 OFFCURVE",
"303 414 CURVE SMOOTH",
"395 414 OFFCURVE",
"460 340 OFFCURVE",
"460 251 CURVE SMOOTH"
);
}
);
width = 610;
}
);
unicode = 00F6;
},
{
glyphname = divide;
layers = (
{
hints = (
{
horizontal = 1;
place = "{133, 125}";
type = Stem;
},
{
horizontal = 1;
place = "{314, 77}";
type = Stem;
},
{
horizontal = 1;
place = "{449, 124}";
type = Stem;
},
{
place = "{252, 127}";
type = Stem;
}
);
layerId = "1430537E-70AD-4C42-AE0B-37D64AC877DB";
paths = (
{
closed = 1;
nodes = (
"379 544 OFFCURVE",
"353 573 OFFCURVE",
"315 573 CURVE SMOOTH",
"277 573 OFFCURVE",
"252 544 OFFCURVE",
"252 510 CURVE SMOOTH",
"252 476 OFFCURVE",
"277 449 OFFCURVE",
"315 449 CURVE SMOOTH",
"353 449 OFFCURVE",
"379 476 OFFCURVE",
"379 510 CURVE SMOOTH"
);
},
{
closed = 1;
nodes = (
"573 391 LINE",
"58 391 LINE",
"58 314 LINE",
"573 314 LINE"
);
},
{
closed = 1;
nodes = (
"379 232 OFFCURVE",
"353 258 OFFCURVE",
"315 258 CURVE SMOOTH",
"277 258 OFFCURVE",
"252 232 OFFCURVE",
"252 197 CURVE SMOOTH",
"252 163 OFFCURVE",
"277 133 OFFCURVE",
"315 133 CURVE SMOOTH",
"353 133 OFFCURVE",
"379 163 OFFCURVE",
"379 197 CURVE SMOOTH"
);
}
);
width = 631;
}
);
unicode = 00F7;
},
{
glyphname = oslash;
layers = (
{
hints = (
{
place = "{35, 112}";
type = Stem;
},
{
place = "{457, 112}";
type = Stem;
},
{
horizontal = 1;
place = "{-12, 94}";
type = Stem;
},
{
horizontal = 1;
place = "{1, 21}";
target = up;
type = BottomGhost;
},
{
horizontal = 1;
place = "{412, 94}";
type = Stem;
}
);
layerId = "1430537E-70AD-4C42-AE0B-37D64AC877DB";
paths = (
{
closed = 1;
nodes = (
"22 1 LINE",
"71 -47 LINE",
"147 34 LINE",
"191 3 OFFCURVE",
"239 -12 OFFCURVE",
"301 -12 CURVE SMOOTH",
"456 -12 OFFCURVE",
"569 102 OFFCURVE",
"569 247 CURVE SMOOTH",
"569 317 OFFCURVE",
"546 371 OFFCURVE",
"509 417 CURVE",
"569 483 LINE",
"518 529 LINE",
"456 462 LINE",
"413 493 OFFCURVE",
"360 506 OFFCURVE",
"301 506 CURVE SMOOTH",
"146 506 OFFCURVE",
"35 392 OFFCURVE",
"35 247 CURVE SMOOTH",
"35 181 OFFCURVE",
"56 127 OFFCURVE",
"96 78 CURVE"
);
},
{
closed = 1;
nodes = (
"170 157 LINE",
"153 183 OFFCURVE",
"147 211 OFFCURVE",
"147 247 CURVE SMOOTH",
"147 338 OFFCURVE",
"206 412 OFFCURVE",
"301 412 CURVE SMOOTH",
"337 412 OFFCURVE",
"365 403 OFFCURVE",
"387 385 CURVE"
);
},
{
closed = 1;
nodes = (
"433 337 LINE",
"448 311 OFFCURVE",
"457 282 OFFCURVE",
"457 247 CURVE SMOOTH",
"457 155 OFFCURVE",
"395 82 OFFCURVE",
"300 82 CURVE SMOOTH",
"266 82 OFFCURVE",
"239 91 OFFCURVE",
"215 108 CURVE"
);
}
);
width = 596;
}
);
unicode = 00F8;
},
{
glyphname = ugrave;
layers = (
{
hints = (
{
place = "{57, 118}";
type = Stem;
},
{
place = "{393, 118}";
type = Stem;
},
{
horizontal = 1;
place = "{-11, 105}";
type = Stem;
},
{
horizontal = 1;
place = "{-4, 21}";
target = up;
type = BottomGhost;
},
{
horizontal = 1;
place = "{502, -20}";
target = down;
type = TopGhost;
}
);
layerId = "1430537E-70AD-4C42-AE0B-37D64AC877DB";
paths = (
{
closed = 1;
nodes = (
"277 616 LINE",
"364 616 LINE",
"266 777 LINE",
"144 745 LINE"
);
},
{
closed = 1;
nodes = (
"307 -11 OFFCURVE",
"358 20 OFFCURVE",
"392 62 CURVE",
"511 -4 LINE",
"511 502 LINE",
"393 502 LINE",
"393 218 LINE SMOOTH",
"393 125 OFFCURVE",
"332 94 OFFCURVE",
"279 94 CURVE SMOOTH",
"226 94 OFFCURVE",
"175 126 OFFCURVE",
"175 218 CURVE SMOOTH",
"175 502 LINE",
"57 502 LINE",
"57 182 LINE SMOOTH",
"57 56 OFFCURVE",
"124 -11 OFFCURVE",
"234 -11 CURVE SMOOTH"
);
}
);
width = 567;
}
);
unicode = 00F9;
},
{
glyphname = uacute;
layers = (
{
hints = (
{
place = "{57, 118}";
type = Stem;
},
{
place = "{393, 118}";
type = Stem;
},
{
horizontal = 1;
place = "{-11, 105}";
type = Stem;
},
{
horizontal = 1;
place = "{-4, 21}";
target = up;
type = BottomGhost;
},
{
horizontal = 1;
place = "{502, -20}";
target = down;
type = TopGhost;
}
);
layerId = "1430537E-70AD-4C42-AE0B-37D64AC877DB";
paths = (
{
closed = 1;
nodes = (
"243 616 LINE",
"327 616 LINE",
"461 745 LINE",
"338 777 LINE"
);
},
{
closed = 1;
nodes = (
"307 -11 OFFCURVE",
"358 20 OFFCURVE",
"392 62 CURVE",
"511 -4 LINE",
"511 502 LINE",
"393 502 LINE",
"393 218 LINE SMOOTH",
"393 125 OFFCURVE",
"332 94 OFFCURVE",
"279 94 CURVE SMOOTH",
"226 94 OFFCURVE",
"175 126 OFFCURVE",
"175 218 CURVE SMOOTH",
"175 502 LINE",
"57 502 LINE",
"57 182 LINE SMOOTH",
"57 56 OFFCURVE",
"124 -11 OFFCURVE",
"234 -11 CURVE SMOOTH"
);
}
);
width = 567;
}
);
unicode = 00FA;
},
{
glyphname = ucircumflex;
layers = (
{
hints = (
{
place = "{57, 118}";
type = Stem;
},
{
place = "{393, 118}";
type = Stem;
},
{
horizontal = 1;
place = "{-11, 105}";
type = Stem;
},
{
horizontal = 1;
place = "{-4, 21}";
target = up;
type = BottomGhost;
},
{
horizontal = 1;
place = "{502, -20}";
target = down;
type = TopGhost;
},
{
horizontal = 1;
place = "{621, 156}";
type = Stem;
}
);
layerId = "1430537E-70AD-4C42-AE0B-37D64AC877DB";
paths = (
{
closed = 1;
nodes = (
"325 777 LINE",
"243 777 LINE",
"125 621 LINE",
"213 621 LINE",
"283 696 LINE",
"355 621 LINE",
"442 621 LINE"
);
},
{
closed = 1;
nodes = (
"307 -11 OFFCURVE",
"358 20 OFFCURVE",
"392 62 CURVE",
"511 -4 LINE",
"511 502 LINE",
"393 502 LINE",
"393 218 LINE SMOOTH",
"393 125 OFFCURVE",
"332 94 OFFCURVE",
"279 94 CURVE SMOOTH",
"226 94 OFFCURVE",
"175 126 OFFCURVE",
"175 218 CURVE SMOOTH",
"175 502 LINE",
"57 502 LINE",
"57 182 LINE SMOOTH",
"57 56 OFFCURVE",
"124 -11 OFFCURVE",
"234 -11 CURVE SMOOTH"
);
}
);
width = 567;
}
);
unicode = 00FB;
},
{
glyphname = udieresis;
layers = (
{
hints = (
{
place = "{57, 118}";
type = Stem;
},
{
place = "{115, 138}";
type = Stem;
},
{
place = "{318, 136}";
type = Stem;
},
{
place = "{393, 118}";
type = Stem;
},
{
horizontal = 1;
place = "{-11, 105}";
type = Stem;
},
{
horizontal = 1;
place = "{-4, 21}";
target = up;
type = BottomGhost;
},
{
horizontal = 1;
place = "{502, -20}";
target = down;
type = TopGhost;
},
{
horizontal = 1;
place = "{627, 136}";
type = Stem;
}
);
layerId = "1430537E-70AD-4C42-AE0B-37D64AC877DB";
paths = (
{
closed = 1;
nodes = (
"115 654 OFFCURVE",
"144 627 OFFCURVE",
"184 627 CURVE SMOOTH",
"221 627 OFFCURVE",
"253 654 OFFCURVE",
"253 695 CURVE SMOOTH",
"253 735 OFFCURVE",
"221 763 OFFCURVE",
"184 763 CURVE SMOOTH",
"144 763 OFFCURVE",
"115 735 OFFCURVE",
"115 695 CURVE SMOOTH"
);
},
{
closed = 1;
nodes = (
"318 654 OFFCURVE",
"348 627 OFFCURVE",
"386 627 CURVE SMOOTH",
"425 627 OFFCURVE",
"454 654 OFFCURVE",
"454 695 CURVE SMOOTH",
"454 735 OFFCURVE",
"425 763 OFFCURVE",
"386 763 CURVE SMOOTH",
"348 763 OFFCURVE",
"318 735 OFFCURVE",
"318 695 CURVE SMOOTH"
);
},
{
closed = 1;
nodes = (
"307 -11 OFFCURVE",
"358 20 OFFCURVE",
"392 62 CURVE",
"511 -4 LINE",
"511 502 LINE",
"393 502 LINE",
"393 218 LINE SMOOTH",
"393 125 OFFCURVE",
"332 94 OFFCURVE",
"279 94 CURVE SMOOTH",
"226 94 OFFCURVE",
"175 126 OFFCURVE",
"175 218 CURVE SMOOTH",
"175 502 LINE",
"57 502 LINE",
"57 182 LINE SMOOTH",
"57 56 OFFCURVE",
"124 -11 OFFCURVE",
"234 -11 CURVE SMOOTH"
);
}
);
width = 567;
}
);
unicode = 00FC;
},
{
glyphname = yacute;
layers = (
{
hints = (
{
horizontal = 1;
place = "{-179, 21}";
target = up;
type = BottomGhost;
},
{
place = "{-5, 527}";
type = Stem;
}
);
layerId = "1430537E-70AD-4C42-AE0B-37D64AC877DB";
paths = (
{
closed = 1;
nodes = (
"213 616 LINE",
"297 616 LINE",
"431 745 LINE",
"308 777 LINE"
);
},
{
closed = 1;
nodes = (
"216 -2 LINE",
"150 -179 LINE",
"256 -179 LINE",
"522 501 LINE",
"400 501 LINE",
"267 130 LINE",
"121 501 LINE",
"-5 501 LINE"
);
}
);
width = 518;
}
);
unicode = 00FD;
},
{
glyphname = thorn;
layers = (
{
hints = (
{
horizontal = 1;
place = "{-11, 96}";
type = Stem;
},
{
horizontal = 1;
place = "{368, 95}";
type = Stem;
},
{
place = "{62, 112}";
type = Stem;
},
{
place = "{419, 113}";
type = Stem;
}
);
layerId = "1430537E-70AD-4C42-AE0B-37D64AC877DB";
paths = (
{
closed = 1;
nodes = (
"62 -240 LINE",
"174 -240 LINE",
"174 -15 LINE",
"172 60 LINE",
"175 60 LINE",
"205 17 OFFCURVE",
"255 -8 OFFCURVE",
"308 -11 CURVE SMOOTH",
"324 -12 OFFCURVE",
"338 -11 OFFCURVE",
"352 -9 CURVE SMOOTH",
"467 5 OFFCURVE",
"532 114 OFFCURVE",
"532 227 CURVE SMOOTH",
"532 340 OFFCURVE",
"465 446 OFFCURVE",
"353 462 CURVE SMOOTH",
"338 464 OFFCURVE",
"323 464 OFFCURVE",
"307 463 CURVE SMOOTH",
"252 458 OFFCURVE",
"204 431 OFFCURVE",
"173 391 CURVE",
"172 391 LINE",
"172 421 OFFCURVE",
"173 452 OFFCURVE",
"173 482 CURVE SMOOTH",
"173 511 OFFCURVE",
"173 539 OFFCURVE",
"174 568 CURVE",
"174 773 LINE",
"62 773 LINE"
);
},
{
closed = 1;
nodes = (
"213 85 OFFCURVE",
"168 156 OFFCURVE",
"168 230 CURVE SMOOTH",
"168 301 OFFCURVE",
"216 368 OFFCURVE",
"292 368 CURVE SMOOTH",
"371 368 OFFCURVE",
"419 304 OFFCURVE",
"419 230 CURVE SMOOTH",
"419 154 OFFCURVE",
"374 85 OFFCURVE",
"292 85 CURVE SMOOTH"
);
}
);
width = 565;
}
);
unicode = 00FE;
},
{
glyphname = ydieresis;
layers = (
{
hints = (
{
horizontal = 1;
place = "{-179, 21}";
target = up;
type = BottomGhost;
},
{
horizontal = 1;
place = "{627, 136}";
type = Stem;
},
{
place = "{97, 138}";
type = Stem;
},
{
place = "{300, 136}";
type = Stem;
}
);
layerId = "1430537E-70AD-4C42-AE0B-37D64AC877DB";
paths = (
{
closed = 1;
nodes = (
"97 654 OFFCURVE",
"126 627 OFFCURVE",
"166 627 CURVE SMOOTH",
"203 627 OFFCURVE",
"235 654 OFFCURVE",
"235 695 CURVE SMOOTH",
"235 735 OFFCURVE",
"203 763 OFFCURVE",
"166 763 CURVE SMOOTH",
"126 763 OFFCURVE",
"97 735 OFFCURVE",
"97 695 CURVE SMOOTH"
);
},
{
closed = 1;
nodes = (
"300 654 OFFCURVE",
"330 627 OFFCURVE",
"368 627 CURVE SMOOTH",
"407 627 OFFCURVE",
"436 654 OFFCURVE",
"436 695 CURVE SMOOTH",
"436 735 OFFCURVE",
"407 763 OFFCURVE",
"368 763 CURVE SMOOTH",
"330 763 OFFCURVE",
"300 735 OFFCURVE",
"300 695 CURVE SMOOTH"
);
},
{
closed = 1;
nodes = (
"216 -2 LINE",
"150 -179 LINE",
"256 -179 LINE",
"522 501 LINE",
"400 501 LINE",
"267 130 LINE",
"121 501 LINE",
"-5 501 LINE"
);
}
);
width = 518;
}
);
unicode = 00FF;
},
{
glyphname = Amacron;
layers = (
{
hints = (
{
horizontal = 1;
place = "{0, 21}";
target = up;
type = BottomGhost;
},
{
horizontal = 1;
place = "{173, 100}";
type = Stem;
},
{
horizontal = 1;
place = "{705, -20}";
target = down;
type = TopGhost;
},
{
horizontal = 1;
place = "{765, 77}";
type = Stem;
},
{
place = "{-6, 719}";
type = Stem;
}
);
layerId = "1430537E-70AD-4C42-AE0B-37D64AC877DB";
paths = (
{
closed = 1;
nodes = (
"515 842 LINE",
"191 842 LINE",
"191 765 LINE",
"515 765 LINE"
);
},
{
closed = 1;
nodes = (
"509 173 LINE",
"582 0 LINE",
"713 0 LINE",
"408 705 LINE",
"299 705 LINE",
"-6 0 LINE",
"123 0 LINE",
"196 173 LINE"
);
},
{
closed = 1;
nodes = (
"353 562 LINE",
"469 273 LINE",
"237 273 LINE"
);
}
);
width = 707;
}
);
unicode = 0100;
},
{
glyphname = amacron;
layers = (
{
hints = (
{
place = "{33, 116}";
type = Stem;
},
{
place = "{389, 117}";
type = Stem;
},
{
horizontal = 1;
place = "{-11, 85}";
type = Stem;
},
{
horizontal = 1;
place = "{-4, 21}";
target = up;
type = BottomGhost;
},
{
horizontal = 1;
place = "{256, 75}";
type = Stem;
},
{
horizontal = 1;
place = "{416, 95}";
type = Stem;
},
{
horizontal = 1;
place = "{600, 77}";
type = Stem;
}
);
layerId = "1430537E-70AD-4C42-AE0B-37D64AC877DB";
paths = (
{
closed = 1;
nodes = (
"437 677 LINE",
"113 677 LINE",
"113 600 LINE",
"437 600 LINE"
);
},
{
closed = 1;
nodes = (
"506 -4 LINE",
"506 309 LINE SMOOTH",
"506 443 OFFCURVE",
"408 511 OFFCURVE",
"268 511 CURVE SMOOTH",
"188 511 OFFCURVE",
"121 491 OFFCURVE",
"70 469 CURVE",
"70 372 LINE",
"129 404 OFFCURVE",
"189 416 OFFCURVE",
"249 416 CURVE SMOOTH",
"335 416 OFFCURVE",
"389 389 OFFCURVE",
"389 317 CURVE SMOOTH",
"389 301 LINE",
"350 322 OFFCURVE",
"299 331 OFFCURVE",
"244 331 CURVE SMOOTH",
"136 331 OFFCURVE",
"33 287 OFFCURVE",
"33 166 CURVE SMOOTH",
"33 52 OFFCURVE",
"129 -11 OFFCURVE",
"228 -11 CURVE SMOOTH",
"296 -11 OFFCURVE",
"345 11 OFFCURVE",
"388 51 CURVE"
);
},
{
closed = 1;
nodes = (
"389 128 LINE",
"358 93 OFFCURVE",
"317 74 OFFCURVE",
"264 74 CURVE SMOOTH",
"203 74 OFFCURVE",
"149 104 OFFCURVE",
"149 164 CURVE SMOOTH",
"149 227 OFFCURVE",
"210 256 OFFCURVE",
"272 256 CURVE SMOOTH",
"324 256 OFFCURVE",
"362 241 OFFCURVE",
"389 226 CURVE"
);
}
);
width = 569;
}
);
unicode = 0101;
},
{
glyphname = Abreve;
layers = (
{
hints = (
{
horizontal = 1;
place = "{0, 21}";
target = up;
type = BottomGhost;
},
{
horizontal = 1;
place = "{173, 100}";
type = Stem;
},
{
horizontal = 1;
place = "{705, -20}";
target = down;
type = TopGhost;
},
{
horizontal = 1;
place = "{765, 83}";
type = Stem;
},
{
place = "{-6, 719}";
type = Stem;
}
);
layerId = "1430537E-70AD-4C42-AE0B-37D64AC877DB";
paths = (
{
closed = 1;
nodes = (
"438 918 LINE",
"426 873 OFFCURVE",
"396 848 OFFCURVE",
"354 848 CURVE SMOOTH",
"312 848 OFFCURVE",
"279 873 OFFCURVE",
"267 918 CURVE",
"196 918 LINE",
"206 826 OFFCURVE",
"266 765 OFFCURVE",
"351 765 CURVE SMOOTH",
"437 765 OFFCURVE",
"501 826 OFFCURVE",
"509 918 CURVE"
);
},
{
closed = 1;
nodes = (
"509 173 LINE",
"582 0 LINE",
"713 0 LINE",
"408 705 LINE",
"299 705 LINE",
"-6 0 LINE",
"123 0 LINE",
"196 173 LINE"
);
},
{
closed = 1;
nodes = (
"353 562 LINE",
"469 273 LINE",
"237 273 LINE"
);
}
);
width = 707;
}
);
unicode = 0102;
},
{
glyphname = abreve;
layers = (
{
hints = (
{
place = "{33, 116}";
type = Stem;
},
{
place = "{389, 117}";
type = Stem;
},
{
horizontal = 1;
place = "{-11, 85}";
type = Stem;
},
{
horizontal = 1;
place = "{-4, 21}";
target = up;
type = BottomGhost;
},
{
horizontal = 1;
place = "{256, 75}";
type = Stem;
},
{
horizontal = 1;
place = "{416, 95}";
type = Stem;
},
{
horizontal = 1;
place = "{593, 83}";
type = Stem;
}
);
layerId = "1430537E-70AD-4C42-AE0B-37D64AC877DB";
paths = (
{
closed = 1;
nodes = (
"374 746 LINE",
"362 701 OFFCURVE",
"332 676 OFFCURVE",
"290 676 CURVE SMOOTH",
"248 676 OFFCURVE",
"215 701 OFFCURVE",
"203 746 CURVE",
"132 746 LINE",
"142 654 OFFCURVE",
"202 593 OFFCURVE",
"287 593 CURVE SMOOTH",
"373 593 OFFCURVE",
"437 654 OFFCURVE",
"445 746 CURVE"
);
},
{
closed = 1;
nodes = (
"506 -4 LINE",
"506 309 LINE SMOOTH",
"506 443 OFFCURVE",
"408 511 OFFCURVE",
"268 511 CURVE SMOOTH",
"188 511 OFFCURVE",
"121 491 OFFCURVE",
"70 469 CURVE",
"70 372 LINE",
"129 404 OFFCURVE",
"189 416 OFFCURVE",
"249 416 CURVE SMOOTH",
"335 416 OFFCURVE",
"389 389 OFFCURVE",
"389 317 CURVE SMOOTH",
"389 301 LINE",
"350 322 OFFCURVE",
"299 331 OFFCURVE",
"244 331 CURVE SMOOTH",
"136 331 OFFCURVE",
"33 287 OFFCURVE",
"33 166 CURVE SMOOTH",
"33 52 OFFCURVE",
"129 -11 OFFCURVE",
"228 -11 CURVE SMOOTH",
"296 -11 OFFCURVE",
"345 11 OFFCURVE",
"388 51 CURVE"
);
},
{
closed = 1;
nodes = (
"389 128 LINE",
"358 93 OFFCURVE",
"317 74 OFFCURVE",
"264 74 CURVE SMOOTH",
"203 74 OFFCURVE",
"149 104 OFFCURVE",
"149 164 CURVE SMOOTH",
"149 227 OFFCURVE",
"210 256 OFFCURVE",
"272 256 CURVE SMOOTH",
"324 256 OFFCURVE",
"362 241 OFFCURVE",
"389 226 CURVE"
);
}
);
width = 569;
}
);
unicode = 0103;
},
{
glyphname = Aogonek;
layers = (
{
hints = (
{
horizontal = 1;
place = "{-211, 69}";
type = Stem;
},
{
horizontal = 1;
place = "{0, 21}";
target = up;
type = BottomGhost;
},
{
horizontal = 1;
place = "{173, 100}";
type = Stem;
},
{
horizontal = 1;
place = "{705, -20}";
target = down;
type = TopGhost;
},
{
place = "{528, 87}";
type = Stem;
}
);
layerId = "1430537E-70AD-4C42-AE0B-37D64AC877DB";
paths = (
{
closed = 1;
nodes = (
"509 173 LINE",
"582 0 LINE",
"556 -31 OFFCURVE",
"528 -69 OFFCURVE",
"528 -112 CURVE SMOOTH",
"528 -175 OFFCURVE",
"579 -211 OFFCURVE",
"646 -211 CURVE SMOOTH",
"671 -211 OFFCURVE",
"697 -205 OFFCURVE",
"726 -192 CURVE",
"711 -132 LINE",
"689 -139 OFFCURVE",
"676 -142 OFFCURVE",
"663 -142 CURVE SMOOTH",
"635 -142 OFFCURVE",
"615 -125 OFFCURVE",
"615 -98 CURVE SMOOTH",
"615 -72 OFFCURVE",
"629 -47 OFFCURVE",
"664 0 CURVE",
"713 0 LINE",
"408 705 LINE",
"299 705 LINE",
"-6 0 LINE",
"123 0 LINE",
"196 173 LINE"
);
},
{
closed = 1;
nodes = (
"353 562 LINE",
"469 273 LINE",
"237 273 LINE"
);
}
);
width = 718;
}
);
unicode = 0104;
},
{
glyphname = aogonek;
layers = (
{
hints = (
{
place = "{33, 116}";
type = Stem;
},
{
place = "{370, 87}";
type = Stem;
},
{
place = "{389, 117}";
type = Stem;
},
{
horizontal = 1;
place = "{-211, 69}";
type = Stem;
},
{
horizontal = 1;
place = "{-11, 85}";
type = Stem;
},
{
horizontal = 1;
place = "{256, 75}";
type = Stem;
},
{
horizontal = 1;
place = "{416, 95}";
type = Stem;
}
);
layerId = "1430537E-70AD-4C42-AE0B-37D64AC877DB";
paths = (
{
closed = 1;
nodes = (
"553 -132 LINE",
"531 -139 OFFCURVE",
"518 -142 OFFCURVE",
"505 -142 CURVE SMOOTH",
"475 -142 OFFCURVE",
"457 -122 OFFCURVE",
"457 -96 CURVE SMOOTH",
"457 -72 OFFCURVE",
"471 -45 OFFCURVE",
"506 -4 CURVE",
"506 309 LINE SMOOTH",
"506 443 OFFCURVE",
"408 511 OFFCURVE",
"268 511 CURVE SMOOTH",
"188 511 OFFCURVE",
"121 491 OFFCURVE",
"70 469 CURVE",
"70 372 LINE",
"129 404 OFFCURVE",
"189 416 OFFCURVE",
"249 416 CURVE SMOOTH",
"335 416 OFFCURVE",
"389 389 OFFCURVE",
"389 317 CURVE SMOOTH",
"389 301 LINE",
"350 322 OFFCURVE",
"299 331 OFFCURVE",
"244 331 CURVE SMOOTH",
"136 331 OFFCURVE",
"33 287 OFFCURVE",
"33 166 CURVE SMOOTH",
"33 52 OFFCURVE",
"129 -11 OFFCURVE",
"228 -11 CURVE SMOOTH",
"296 -11 OFFCURVE",
"345 11 OFFCURVE",
"388 51 CURVE",
"444 25 LINE",
"393 -28 OFFCURVE",
"370 -68 OFFCURVE",
"370 -109 CURVE SMOOTH",
"370 -172 OFFCURVE",
"421 -211 OFFCURVE",
"488 -211 CURVE SMOOTH",
"513 -211 OFFCURVE",
"539 -205 OFFCURVE",
"568 -192 CURVE"
);
},
{
closed = 1;
nodes = (
"389 128 LINE",
"358 93 OFFCURVE",
"317 74 OFFCURVE",
"264 74 CURVE SMOOTH",
"203 74 OFFCURVE",
"149 104 OFFCURVE",
"149 164 CURVE SMOOTH",
"149 227 OFFCURVE",
"210 256 OFFCURVE",
"272 256 CURVE SMOOTH",
"324 256 OFFCURVE",
"362 241 OFFCURVE",
"389 226 CURVE"
);
}
);
width = 605;
}
);
unicode = 0105;
},
{
glyphname = Cacute;
layers = (
{
hints = (
{
horizontal = 1;
place = "{-14, 110}";
type = Stem;
},
{
horizontal = 1;
place = "{608, 109}";
type = Stem;
},
{
place = "{46, 125}";
type = Stem;
}
);
layerId = "1430537E-70AD-4C42-AE0B-37D64AC877DB";
paths = (
{
closed = 1;
nodes = (
"354 781 LINE",
"438 781 LINE",
"572 910 LINE",
"449 942 LINE"
);
},
{
closed = 1;
nodes = (
"639 199 LINE",
"574 141 OFFCURVE",
"507 96 OFFCURVE",
"415 96 CURVE SMOOTH",
"268 96 OFFCURVE",
"171 210 OFFCURVE",
"171 352 CURVE SMOOTH",
"171 493 OFFCURVE",
"269 608 OFFCURVE",
"415 608 CURVE SMOOTH",
"514 608 OFFCURVE",
"579 570 OFFCURVE",
"628 516 CURVE",
"628 646 LINE",
"571 688 OFFCURVE",
"505 717 OFFCURVE",
"412 717 CURVE SMOOTH",
"201 717 OFFCURVE",
"46 557 OFFCURVE",
"46 351 CURVE SMOOTH",
"46 143 OFFCURVE",
"204 -14 OFFCURVE",
"407 -14 CURVE SMOOTH",
"503 -14 OFFCURVE",
"574 18 OFFCURVE",
"639 70 CURVE"
);
}
);
width = 692;
}
);
unicode = 0106;
},
{
glyphname = cacute;
layers = (
{
hints = (
{
horizontal = 1;
place = "{-10, 99}";
type = Stem;
},
{
horizontal = 1;
place = "{413, 99}";
type = Stem;
},
{
place = "{33, 117}";
type = Stem;
}
);
layerId = "1430537E-70AD-4C42-AE0B-37D64AC877DB";
paths = (
{
closed = 1;
nodes = (
"221 616 LINE",
"305 616 LINE",
"439 745 LINE",
"316 777 LINE"
);
},
{
closed = 1;
nodes = (
"424 480 LINE",
"390 502 OFFCURVE",
"340 512 OFFCURVE",
"296 512 CURVE SMOOTH",
"140 512 OFFCURVE",
"33 393 OFFCURVE",
"33 250 CURVE SMOOTH",
"33 104 OFFCURVE",
"144 -10 OFFCURVE",
"291 -10 CURVE SMOOTH",
"344 -10 OFFCURVE",
"392 5 OFFCURVE",
"429 25 CURVE",
"429 144 LINE",
"394 109 OFFCURVE",
"351 89 OFFCURVE",
"303 89 CURVE SMOOTH",
"217 89 OFFCURVE",
"150 164 OFFCURVE",
"150 254 CURVE SMOOTH",
"150 344 OFFCURVE",
"213 413 OFFCURVE",
"300 413 CURVE SMOOTH",
"349 413 OFFCURVE",
"390 392 OFFCURVE",
"424 358 CURVE"
);
}
);
width = 486;
}
);
unicode = 0107;
},
{
glyphname = Ccircumflex;
layers = (
{
hints = (
{
horizontal = 1;
place = "{-14, 110}";
type = Stem;
},
{
horizontal = 1;
place = "{608, 109}";
type = Stem;
},
{
horizontal = 1;
place = "{786, 156}";
type = Stem;
},
{
place = "{46, 125}";
type = Stem;
}
);
layerId = "1430537E-70AD-4C42-AE0B-37D64AC877DB";
paths = (
{
closed = 1;
nodes = (
"437 942 LINE",
"355 942 LINE",
"237 786 LINE",
"325 786 LINE",
"395 861 LINE",
"467 786 LINE",
"554 786 LINE"
);
},
{
closed = 1;
nodes = (
"639 199 LINE",
"574 141 OFFCURVE",
"507 96 OFFCURVE",
"415 96 CURVE SMOOTH",
"268 96 OFFCURVE",
"171 210 OFFCURVE",
"171 352 CURVE SMOOTH",
"171 493 OFFCURVE",
"269 608 OFFCURVE",
"415 608 CURVE SMOOTH",
"514 608 OFFCURVE",
"579 570 OFFCURVE",
"628 516 CURVE",
"628 646 LINE",
"571 688 OFFCURVE",
"505 717 OFFCURVE",
"412 717 CURVE SMOOTH",
"201 717 OFFCURVE",
"46 557 OFFCURVE",
"46 351 CURVE SMOOTH",
"46 143 OFFCURVE",
"204 -14 OFFCURVE",
"407 -14 CURVE SMOOTH",
"503 -14 OFFCURVE",
"574 18 OFFCURVE",
"639 70 CURVE"
);
}
);
width = 692;
}
);
unicode = 0108;
},
{
glyphname = ccircumflex;
layers = (
{
hints = (
{
horizontal = 1;
place = "{-10, 99}";
type = Stem;
},
{
horizontal = 1;
place = "{413, 99}";
type = Stem;
},
{
horizontal = 1;
place = "{621, 156}";
type = Stem;
},
{
place = "{33, 117}";
type = Stem;
}
);
layerId = "1430537E-70AD-4C42-AE0B-37D64AC877DB";
paths = (
{
closed = 1;
nodes = (
"320 777 LINE",
"238 777 LINE",
"120 621 LINE",
"208 621 LINE",
"278 696 LINE",
"350 621 LINE",
"437 621 LINE"
);
},
{
closed = 1;
nodes = (
"424 480 LINE",
"390 502 OFFCURVE",
"340 512 OFFCURVE",
"296 512 CURVE SMOOTH",
"140 512 OFFCURVE",
"33 393 OFFCURVE",
"33 250 CURVE SMOOTH",
"33 104 OFFCURVE",
"144 -10 OFFCURVE",
"291 -10 CURVE SMOOTH",
"344 -10 OFFCURVE",
"392 5 OFFCURVE",
"429 25 CURVE",
"429 144 LINE",
"394 109 OFFCURVE",
"351 89 OFFCURVE",
"303 89 CURVE SMOOTH",
"217 89 OFFCURVE",
"150 164 OFFCURVE",
"150 254 CURVE SMOOTH",
"150 344 OFFCURVE",
"213 413 OFFCURVE",
"300 413 CURVE SMOOTH",
"349 413 OFFCURVE",
"390 392 OFFCURVE",
"424 358 CURVE"
);
}
);
width = 456;
}
);
unicode = 0109;
},
{
glyphname = Cdotaccent;
layers = (
{
hints = (
{
horizontal = 1;
place = "{-14, 110}";
type = Stem;
},
{
horizontal = 1;
place = "{608, 109}";
type = Stem;
},
{
horizontal = 1;
place = "{772, 145}";
type = Stem;
},
{
place = "{37, 125}";
type = Stem;
},
{
place = "{319, 153}";
type = Stem;
}
);
layerId = "1430537E-70AD-4C42-AE0B-37D64AC877DB";
paths = (
{
closed = 1;
nodes = (
"319 802 OFFCURVE",
"354 772 OFFCURVE",
"395 772 CURVE SMOOTH",
"438 772 OFFCURVE",
"472 802 OFFCURVE",
"472 844 CURVE SMOOTH",
"472 889 OFFCURVE",
"438 917 OFFCURVE",
"395 917 CURVE SMOOTH",
"354 917 OFFCURVE",
"319 889 OFFCURVE",
"319 844 CURVE SMOOTH"
);
},
{
closed = 1;
nodes = (
"630 199 LINE",
"565 141 OFFCURVE",
"498 96 OFFCURVE",
"406 96 CURVE SMOOTH",
"259 96 OFFCURVE",
"162 210 OFFCURVE",
"162 352 CURVE SMOOTH",
"162 493 OFFCURVE",
"260 608 OFFCURVE",
"406 608 CURVE SMOOTH",
"505 608 OFFCURVE",
"570 570 OFFCURVE",
"619 516 CURVE",
"619 646 LINE",
"562 688 OFFCURVE",
"496 717 OFFCURVE",
"403 717 CURVE SMOOTH",
"192 717 OFFCURVE",
"37 557 OFFCURVE",
"37 351 CURVE SMOOTH",
"37 143 OFFCURVE",
"195 -14 OFFCURVE",
"398 -14 CURVE SMOOTH",
"494 -14 OFFCURVE",
"565 18 OFFCURVE",
"630 70 CURVE"
);
}
);
width = 637;
}
);
unicode = 010A;
},
{
glyphname = cdotaccent;
layers = (
{
hints = (
{
horizontal = 1;
place = "{-10, 99}";
type = Stem;
},
{
horizontal = 1;
place = "{413, 99}";
type = Stem;
},
{
horizontal = 1;
place = "{607, 145}";
type = Stem;
},
{
place = "{32, 117}";
type = Stem;
},
{
place = "{202, 153}";
type = Stem;
}
);
layerId = "1430537E-70AD-4C42-AE0B-37D64AC877DB";
paths = (
{
closed = 1;
nodes = (
"202 637 OFFCURVE",
"237 607 OFFCURVE",
"278 607 CURVE SMOOTH",
"321 607 OFFCURVE",
"355 637 OFFCURVE",
"355 679 CURVE SMOOTH",
"355 724 OFFCURVE",
"321 752 OFFCURVE",
"278 752 CURVE SMOOTH",
"237 752 OFFCURVE",
"202 724 OFFCURVE",
"202 679 CURVE SMOOTH"
);
},
{
closed = 1;
nodes = (
"423 480 LINE",
"389 502 OFFCURVE",
"339 512 OFFCURVE",
"295 512 CURVE SMOOTH",
"139 512 OFFCURVE",
"32 393 OFFCURVE",
"32 250 CURVE SMOOTH",
"32 104 OFFCURVE",
"143 -10 OFFCURVE",
"290 -10 CURVE SMOOTH",
"343 -10 OFFCURVE",
"391 5 OFFCURVE",
"428 25 CURVE",
"428 144 LINE",
"393 109 OFFCURVE",
"350 89 OFFCURVE",
"302 89 CURVE SMOOTH",
"216 89 OFFCURVE",
"149 164 OFFCURVE",
"149 254 CURVE SMOOTH",
"149 344 OFFCURVE",
"212 413 OFFCURVE",
"299 413 CURVE SMOOTH",
"348 413 OFFCURVE",
"389 392 OFFCURVE",
"423 358 CURVE"
);
}
);
width = 447;
}
);
unicode = 010B;
},
{
glyphname = Ccaron;
layers = (
{
hints = (
{
horizontal = 1;
place = "{-14, 110}";
type = Stem;
},
{
horizontal = 1;
place = "{608, 109}";
type = Stem;
},
{
horizontal = 1;
place = "{766, 157}";
type = Stem;
},
{
place = "{46, 125}";
type = Stem;
}
);
layerId = "1430537E-70AD-4C42-AE0B-37D64AC877DB";
paths = (
{
closed = 1;
nodes = (
"488 923 LINE",
"417 845 LINE",
"347 923 LINE",
"252 923 LINE",
"375 766 LINE",
"459 766 LINE",
"581 923 LINE"
);
},
{
closed = 1;
nodes = (
"639 199 LINE",
"574 141 OFFCURVE",
"507 96 OFFCURVE",
"415 96 CURVE SMOOTH",
"268 96 OFFCURVE",
"171 210 OFFCURVE",
"171 352 CURVE SMOOTH",
"171 493 OFFCURVE",
"269 608 OFFCURVE",
"415 608 CURVE SMOOTH",
"514 608 OFFCURVE",
"579 570 OFFCURVE",
"628 516 CURVE",
"628 646 LINE",
"571 688 OFFCURVE",
"505 717 OFFCURVE",
"412 717 CURVE SMOOTH",
"201 717 OFFCURVE",
"46 557 OFFCURVE",
"46 351 CURVE SMOOTH",
"46 143 OFFCURVE",
"204 -14 OFFCURVE",
"407 -14 CURVE SMOOTH",
"503 -14 OFFCURVE",
"574 18 OFFCURVE",
"639 70 CURVE"
);
}
);
width = 692;
}
);
unicode = 010C;
},
{
glyphname = ccaron;
layers = (
{
hints = (
{
horizontal = 1;
place = "{-10, 99}";
type = Stem;
},
{
horizontal = 1;
place = "{413, 99}";
type = Stem;
},
{
horizontal = 1;
place = "{601, 157}";
type = Stem;
},
{
place = "{33, 117}";
type = Stem;
}
);
layerId = "1430537E-70AD-4C42-AE0B-37D64AC877DB";
paths = (
{
closed = 1;
nodes = (
"345 758 LINE",
"274 680 LINE",
"204 758 LINE",
"109 758 LINE",
"232 601 LINE",
"316 601 LINE",
"438 758 LINE"
);
},
{
closed = 1;
nodes = (
"424 480 LINE",
"390 502 OFFCURVE",
"340 512 OFFCURVE",
"296 512 CURVE SMOOTH",
"140 512 OFFCURVE",
"33 393 OFFCURVE",
"33 250 CURVE SMOOTH",
"33 104 OFFCURVE",
"144 -10 OFFCURVE",
"291 -10 CURVE SMOOTH",
"344 -10 OFFCURVE",
"392 5 OFFCURVE",
"429 25 CURVE",
"429 144 LINE",
"394 109 OFFCURVE",
"351 89 OFFCURVE",
"303 89 CURVE SMOOTH",
"217 89 OFFCURVE",
"150 164 OFFCURVE",
"150 254 CURVE SMOOTH",
"150 344 OFFCURVE",
"213 413 OFFCURVE",
"300 413 CURVE SMOOTH",
"349 413 OFFCURVE",
"390 392 OFFCURVE",
"424 358 CURVE"
);
}
);
width = 462;
}
);
unicode = 010D;
},
{
glyphname = Dcaron;
layers = (
{
hints = (
{
horizontal = 1;
place = "{0, 108}";
type = Stem;
},
{
horizontal = 1;
place = "{595, 108}";
type = Stem;
},
{
horizontal = 1;
place = "{766, 157}";
type = Stem;
},
{
place = "{73, 121}";
type = Stem;
},
{
place = "{566, 127}";
type = Stem;
}
);
layerId = "1430537E-70AD-4C42-AE0B-37D64AC877DB";
paths = (
{
closed = 1;
nodes = (
"413 923 LINE",
"342 845 LINE",
"272 923 LINE",
"177 923 LINE",
"300 766 LINE",
"384 766 LINE",
"506 923 LINE"
);
},
{
closed = 1;
nodes = (
"73 0 LINE",
"308 0 LINE SMOOTH",
"544 0 OFFCURVE",
"693 148 OFFCURVE",
"693 353 CURVE SMOOTH",
"693 563 OFFCURVE",
"537 703 OFFCURVE",
"310 703 CURVE SMOOTH",
"73 703 LINE"
);
},
{
closed = 1;
nodes = (
"194 595 LINE",
"340 595 LINE SMOOTH",
"484 595 OFFCURVE",
"566 476 OFFCURVE",
"566 351 CURVE SMOOTH",
"566 207 OFFCURVE",
"472 108 OFFCURVE",
"308 108 CURVE SMOOTH",
"194 108 LINE"
);
}
);
width = 740;
}
);
unicode = 010E;
},
{
glyphname = dcaron;
layers = (
{
hints = (
{
place = "{33, 118}";
type = Stem;
},
{
place = "{449, 118}";
type = Stem;
},
{
horizontal = 1;
place = "{-11, 100}";
type = Stem;
},
{
horizontal = 1;
place = "{-3, 21}";
target = up;
type = BottomGhost;
},
{
horizontal = 1;
place = "{414, 100}";
type = Stem;
},
{
horizontal = 1;
place = "{590, 141}";
type = Stem;
}
);
layerId = "1430537E-70AD-4C42-AE0B-37D64AC877DB";
paths = (
{
closed = 1;
nodes = (
"730 780 LINE",
"633 780 LINE",
"600 590 LINE",
"676 590 LINE"
);
},
{
closed = 1;
nodes = (
"567 -3 LINE",
"567 731 LINE",
"449 731 LINE",
"449 424 LINE",
"409 477 OFFCURVE",
"351 514 OFFCURVE",
"270 514 CURVE SMOOTH",
"142 514 OFFCURVE",
"33 411 OFFCURVE",
"33 251 CURVE SMOOTH",
"33 90 OFFCURVE",
"143 -11 OFFCURVE",
"273 -11 CURVE SMOOTH",
"352 -11 OFFCURVE",
"400 25 OFFCURVE",
"442 75 CURVE"
);
},
{
closed = 1;
nodes = (
"151 349 OFFCURVE",
"217 414 OFFCURVE",
"298 414 CURVE SMOOTH",
"380 414 OFFCURVE",
"452 346 OFFCURVE",
"452 252 CURVE SMOOTH",
"452 157 OFFCURVE",
"382 89 OFFCURVE",
"298 89 CURVE SMOOTH",
"215 89 OFFCURVE",
"151 156 OFFCURVE",
"151 251 CURVE SMOOTH"
);
}
);
width = 612;
}
);
unicode = 010F;
},
{
glyphname = Dcroat;
layers = (
{
hints = (
{
horizontal = 1;
place = "{0, 108}";
type = Stem;
},
{
horizontal = 1;
place = "{296, 107}";
type = Stem;
},
{
horizontal = 1;
place = "{595, 108}";
type = Stem;
},
{
place = "{101, 122}";
type = Stem;
},
{
place = "{595, 126}";
type = Stem;
}
);
layerId = "1430537E-70AD-4C42-AE0B-37D64AC877DB";
paths = (
{
closed = 1;
nodes = (
"101 0 LINE",
"337 0 LINE SMOOTH",
"572 0 OFFCURVE",
"721 148 OFFCURVE",
"721 353 CURVE SMOOTH",
"721 563 OFFCURVE",
"565 703 OFFCURVE",
"339 703 CURVE SMOOTH",
"101 703 LINE",
"101 403 LINE",
"13 403 LINE",
"13 296 LINE",
"101 296 LINE"
);
},
{
closed = 1;
nodes = (
"223 595 LINE",
"368 595 LINE SMOOTH",
"512 595 OFFCURVE",
"595 476 OFFCURVE",
"595 351 CURVE SMOOTH",
"595 207 OFFCURVE",
"500 108 OFFCURVE",
"336 108 CURVE SMOOTH",
"223 108 LINE",
"223 296 LINE",
"303 296 LINE",
"303 403 LINE",
"223 403 LINE"
);
}
);
width = 769;
}
);
unicode = 0110;
},
{
glyphname = dcroat;
layers = (
{
hints = (
{
place = "{33, 118}";
type = Stem;
},
{
place = "{449, 118}";
type = Stem;
},
{
horizontal = 1;
place = "{-11, 100}";
type = Stem;
},
{
horizontal = 1;
place = "{-3, 21}";
target = up;
type = BottomGhost;
},
{
horizontal = 1;
place = "{414, 100}";
type = Stem;
},
{
horizontal = 1;
place = "{570, 107}";
type = Stem;
}
);
layerId = "1430537E-70AD-4C42-AE0B-37D64AC877DB";
paths = (
{
closed = 1;
nodes = (
"567 -3 LINE",
"567 570 LINE",
"620 570 LINE",
"620 677 LINE",
"567 677 LINE",
"567 731 LINE",
"449 731 LINE",
"449 677 LINE",
"330 677 LINE",
"330 570 LINE",
"449 570 LINE",
"449 424 LINE",
"409 477 OFFCURVE",
"351 514 OFFCURVE",
"270 514 CURVE SMOOTH",
"142 514 OFFCURVE",
"33 411 OFFCURVE",
"33 251 CURVE SMOOTH",
"33 90 OFFCURVE",
"143 -11 OFFCURVE",
"273 -11 CURVE SMOOTH",
"352 -11 OFFCURVE",
"400 25 OFFCURVE",
"442 75 CURVE"
);
},
{
closed = 1;
nodes = (
"151 349 OFFCURVE",
"217 414 OFFCURVE",
"298 414 CURVE SMOOTH",
"380 414 OFFCURVE",
"452 346 OFFCURVE",
"452 252 CURVE SMOOTH",
"452 157 OFFCURVE",
"382 89 OFFCURVE",
"298 89 CURVE SMOOTH",
"215 89 OFFCURVE",
"151 156 OFFCURVE",
"151 251 CURVE SMOOTH"
);
}
);
width = 616;
}
);
unicode = 0111;
},
{
glyphname = Emacron;
layers = (
{
hints = (
{
horizontal = 1;
place = "{0, 106}";
type = Stem;
},
{
horizontal = 1;
place = "{306, 102}";
type = Stem;
},
{
horizontal = 1;
place = "{598, 105}";
type = Stem;
},
{
horizontal = 1;
place = "{765, 77}";
type = Stem;
},
{
place = "{73, 121}";
type = Stem;
}
);
layerId = "1430537E-70AD-4C42-AE0B-37D64AC877DB";
paths = (
{
closed = 1;
nodes = (
"495 842 LINE",
"171 842 LINE",
"171 765 LINE",
"495 765 LINE"
);
},
{
closed = 1;
nodes = (
"194 306 LINE",
"536 306 LINE",
"536 408 LINE",
"194 408 LINE",
"194 598 LINE",
"567 598 LINE",
"567 703 LINE",
"73 703 LINE",
"73 0 LINE",
"576 0 LINE",
"576 106 LINE",
"194 106 LINE"
);
}
);
width = 637;
}
);
unicode = 0112;
},
{
glyphname = emacron;
layers = (
{
hints = (
{
horizontal = 1;
place = "{-13, 93}";
type = Stem;
},
{
horizontal = 1;
place = "{419, 94}";
type = Stem;
},
{
horizontal = 1;
place = "{600, 77}";
type = Stem;
},
{
place = "{33, 114}";
type = Stem;
}
);
layerId = "1430537E-70AD-4C42-AE0B-37D64AC877DB";
paths = (
{
closed = 1;
nodes = (
"440 677 LINE",
"116 677 LINE",
"116 600 LINE",
"440 600 LINE"
);
},
{
closed = 1;
nodes = (
"228 80 OFFCURVE",
"181 114 OFFCURVE",
"158 166 CURVE",
"526 257 LINE",
"515 394 OFFCURVE",
"432 513 OFFCURVE",
"281 513 CURVE SMOOTH",
"133 513 OFFCURVE",
"33 398 OFFCURVE",
"33 249 CURVE SMOOTH",
"33 96 OFFCURVE",
"143 -13 OFFCURVE",
"294 -13 CURVE SMOOTH",
"361 -13 OFFCURVE",
"429 7 OFFCURVE",
"479 43 CURVE",
"479 151 LINE",
"437 111 OFFCURVE",
"370 80 OFFCURVE",
"298 80 CURVE SMOOTH"
);
},
{
closed = 1;
nodes = (
"147 256 LINE",
"147 337 OFFCURVE",
"190 419 OFFCURVE",
"280 419 CURVE SMOOTH",
"346 419 OFFCURVE",
"393 376 OFFCURVE",
"409 317 CURVE",
"149 251 LINE"
);
}
);
width = 558;
}
);
unicode = 0113;
},
{
glyphname = Ebreve;
layers = (
{
hints = (
{
horizontal = 1;
place = "{0, 106}";
type = Stem;
},
{
horizontal = 1;
place = "{306, 102}";
type = Stem;
},
{
horizontal = 1;
place = "{598, 105}";
type = Stem;
},
{
horizontal = 1;
place = "{758, 83}";
type = Stem;
},
{
place = "{73, 121}";
type = Stem;
}
);
layerId = "1430537E-70AD-4C42-AE0B-37D64AC877DB";
paths = (
{
closed = 1;
nodes = (
"420 911 LINE",
"408 866 OFFCURVE",
"378 841 OFFCURVE",
"336 841 CURVE SMOOTH",
"294 841 OFFCURVE",
"261 866 OFFCURVE",
"249 911 CURVE",
"178 911 LINE",
"188 819 OFFCURVE",
"248 758 OFFCURVE",
"333 758 CURVE SMOOTH",
"419 758 OFFCURVE",
"483 819 OFFCURVE",
"491 911 CURVE"
);
},
{
closed = 1;
nodes = (
"194 306 LINE",
"536 306 LINE",
"536 408 LINE",
"194 408 LINE",
"194 598 LINE",
"567 598 LINE",
"567 703 LINE",
"73 703 LINE",
"73 0 LINE",
"576 0 LINE",
"576 106 LINE",
"194 106 LINE"
);
}
);
width = 637;
}
);
unicode = 0114;
},
{
glyphname = ebreve;
layers = (
{
hints = (
{
horizontal = 1;
place = "{-13, 93}";
type = Stem;
},
{
horizontal = 1;
place = "{419, 94}";
type = Stem;
},
{
horizontal = 1;
place = "{593, 83}";
type = Stem;
},
{
place = "{33, 114}";
type = Stem;
}
);
layerId = "1430537E-70AD-4C42-AE0B-37D64AC877DB";
paths = (
{
closed = 1;
nodes = (
"375 746 LINE",
"363 701 OFFCURVE",
"333 676 OFFCURVE",
"291 676 CURVE SMOOTH",
"249 676 OFFCURVE",
"216 701 OFFCURVE",
"204 746 CURVE",
"133 746 LINE",
"143 654 OFFCURVE",
"203 593 OFFCURVE",
"288 593 CURVE SMOOTH",
"374 593 OFFCURVE",
"438 654 OFFCURVE",
"446 746 CURVE"
);
},
{
closed = 1;
nodes = (
"228 80 OFFCURVE",
"181 114 OFFCURVE",
"158 166 CURVE",
"526 257 LINE",
"515 394 OFFCURVE",
"432 513 OFFCURVE",
"281 513 CURVE SMOOTH",
"133 513 OFFCURVE",
"33 398 OFFCURVE",
"33 249 CURVE SMOOTH",
"33 96 OFFCURVE",
"143 -13 OFFCURVE",
"294 -13 CURVE SMOOTH",
"361 -13 OFFCURVE",
"429 7 OFFCURVE",
"479 43 CURVE",
"479 151 LINE",
"437 111 OFFCURVE",
"370 80 OFFCURVE",
"298 80 CURVE SMOOTH"
);
},
{
closed = 1;
nodes = (
"147 256 LINE",
"147 337 OFFCURVE",
"190 419 OFFCURVE",
"280 419 CURVE SMOOTH",
"346 419 OFFCURVE",
"393 376 OFFCURVE",
"409 317 CURVE",
"149 251 LINE"
);
}
);
width = 558;
}
);
unicode = 0115;
},
{
glyphname = Edotaccent;
layers = (
{
hints = (
{
horizontal = 1;
place = "{0, 106}";
type = Stem;
},
{
horizontal = 1;
place = "{306, 102}";
type = Stem;
},
{
horizontal = 1;
place = "{598, 105}";
type = Stem;
},
{
horizontal = 1;
place = "{772, 145}";
type = Stem;
},
{
place = "{73, 121}";
type = Stem;
},
{
place = "{254, 153}";
type = Stem;
}
);
layerId = "1430537E-70AD-4C42-AE0B-37D64AC877DB";
paths = (
{
closed = 1;
nodes = (
"254 802 OFFCURVE",
"289 772 OFFCURVE",
"330 772 CURVE SMOOTH",
"373 772 OFFCURVE",
"407 802 OFFCURVE",
"407 844 CURVE SMOOTH",
"407 889 OFFCURVE",
"373 917 OFFCURVE",
"330 917 CURVE SMOOTH",
"289 917 OFFCURVE",
"254 889 OFFCURVE",
"254 844 CURVE SMOOTH"
);
},
{
closed = 1;
nodes = (
"194 306 LINE",
"536 306 LINE",
"536 408 LINE",
"194 408 LINE",
"194 598 LINE",
"567 598 LINE",
"567 703 LINE",
"73 703 LINE",
"73 0 LINE",
"576 0 LINE",
"576 106 LINE",
"194 106 LINE"
);
}
);
width = 637;
}
);
unicode = 0116;
},
{
glyphname = edotaccent;
layers = (
{
hints = (
{
horizontal = 1;
place = "{-13, 93}";
type = Stem;
},
{
horizontal = 1;
place = "{419, 94}";
type = Stem;
},
{
horizontal = 1;
place = "{607, 145}";
type = Stem;
},
{
place = "{33, 114}";
type = Stem;
},
{
place = "{199, 153}";
type = Stem;
}
);
layerId = "1430537E-70AD-4C42-AE0B-37D64AC877DB";
paths = (
{
closed = 1;
nodes = (
"199 637 OFFCURVE",
"234 607 OFFCURVE",
"275 607 CURVE SMOOTH",
"318 607 OFFCURVE",
"352 637 OFFCURVE",
"352 679 CURVE SMOOTH",
"352 724 OFFCURVE",
"318 752 OFFCURVE",
"275 752 CURVE SMOOTH",
"234 752 OFFCURVE",
"199 724 OFFCURVE",
"199 679 CURVE SMOOTH"
);
},
{
closed = 1;
nodes = (
"228 80 OFFCURVE",
"181 114 OFFCURVE",
"158 166 CURVE",
"526 257 LINE",
"515 394 OFFCURVE",
"432 513 OFFCURVE",
"281 513 CURVE SMOOTH",
"133 513 OFFCURVE",
"33 398 OFFCURVE",
"33 249 CURVE SMOOTH",
"33 96 OFFCURVE",
"143 -13 OFFCURVE",
"294 -13 CURVE SMOOTH",
"361 -13 OFFCURVE",
"429 7 OFFCURVE",
"479 43 CURVE",
"479 151 LINE",
"437 111 OFFCURVE",
"370 80 OFFCURVE",
"298 80 CURVE SMOOTH"
);
},
{
closed = 1;
nodes = (
"147 256 LINE",
"147 337 OFFCURVE",
"190 419 OFFCURVE",
"280 419 CURVE SMOOTH",
"346 419 OFFCURVE",
"393 376 OFFCURVE",
"409 317 CURVE",
"149 251 LINE"
);
}
);
width = 558;
}
);
unicode = 0117;
},
{
glyphname = Eogonek;
layers = (
{
hints = (
{
horizontal = 1;
place = "{-211, 69}";
type = Stem;
},
{
horizontal = 1;
place = "{0, 106}";
type = Stem;
},
{
horizontal = 1;
place = "{306, 102}";
type = Stem;
},
{
horizontal = 1;
place = "{598, 105}";
type = Stem;
},
{
place = "{73, 121}";
type = Stem;
},
{
place = "{440, 87}";
type = Stem;
}
);
layerId = "1430537E-70AD-4C42-AE0B-37D64AC877DB";
paths = (
{
closed = 1;
nodes = (
"194 306 LINE",
"536 306 LINE",
"536 408 LINE",
"194 408 LINE",
"194 598 LINE",
"567 598 LINE",
"567 703 LINE",
"73 703 LINE",
"73 0 LINE",
"494 0 LINE",
"468 -31 OFFCURVE",
"440 -69 OFFCURVE",
"440 -112 CURVE SMOOTH",
"440 -175 OFFCURVE",
"491 -211 OFFCURVE",
"558 -211 CURVE SMOOTH",
"583 -211 OFFCURVE",
"609 -205 OFFCURVE",
"638 -192 CURVE",
"623 -132 LINE",
"601 -139 OFFCURVE",
"588 -142 OFFCURVE",
"575 -142 CURVE SMOOTH",
"547 -142 OFFCURVE",
"527 -125 OFFCURVE",
"527 -98 CURVE SMOOTH",
"527 -72 OFFCURVE",
"541 -47 OFFCURVE",
"576 0 CURVE",
"576 106 LINE",
"194 106 LINE"
);
}
);
width = 699;
}
);
unicode = 0118;
},
{
glyphname = eogonek;
layers = (
{
hints = (
{
horizontal = 1;
place = "{-210, 69}";
type = Stem;
},
{
horizontal = 1;
place = "{-13, 93}";
type = Stem;
},
{
horizontal = 1;
place = "{419, 94}";
type = Stem;
},
{
place = "{33, 114}";
type = Stem;
},
{
place = "{294, 87}";
type = Stem;
}
);
layerId = "1430537E-70AD-4C42-AE0B-37D64AC877DB";
paths = (
{
closed = 1;
nodes = (
"477 -131 LINE",
"455 -138 OFFCURVE",
"442 -141 OFFCURVE",
"429 -141 CURVE SMOOTH",
"401 -141 OFFCURVE",
"381 -124 OFFCURVE",
"381 -95 CURVE SMOOTH",
"381 -70 OFFCURVE",
"395 -31 OFFCURVE",
"474 40 CURVE SMOOTH",
"476 41 OFFCURVE",
"477 42 OFFCURVE",
"479 43 CURVE",
"479 151 LINE",
"437 111 OFFCURVE",
"370 80 OFFCURVE",
"298 80 CURVE SMOOTH",
"228 80 OFFCURVE",
"181 114 OFFCURVE",
"158 166 CURVE",
"526 257 LINE",
"515 394 OFFCURVE",
"432 513 OFFCURVE",
"281 513 CURVE SMOOTH",
"133 513 OFFCURVE",
"33 398 OFFCURVE",
"33 249 CURVE SMOOTH",
"33 96 OFFCURVE",
"143 -13 OFFCURVE",
"294 -13 CURVE SMOOTH",
"309 -13 OFFCURVE",
"323 -12 OFFCURVE",
"338 -10 CURVE",
"314 -38 OFFCURVE",
"294 -72 OFFCURVE",
"294 -111 CURVE SMOOTH",
"294 -174 OFFCURVE",
"345 -210 OFFCURVE",
"412 -210 CURVE SMOOTH",
"437 -210 OFFCURVE",
"463 -204 OFFCURVE",
"492 -191 CURVE"
);
},
{
closed = 1;
nodes = (
"147 256 LINE",
"147 337 OFFCURVE",
"190 419 OFFCURVE",
"280 419 CURVE SMOOTH",
"346 419 OFFCURVE",
"393 376 OFFCURVE",
"409 317 CURVE",
"149 251 LINE"
);
}
);
width = 558;
}
);
unicode = 0119;
},
{
glyphname = Ecaron;
layers = (
{
hints = (
{
horizontal = 1;
place = "{0, 106}";
type = Stem;
},
{
horizontal = 1;
place = "{306, 102}";
type = Stem;
},
{
horizontal = 1;
place = "{598, 105}";
type = Stem;
},
{
horizontal = 1;
place = "{766, 157}";
type = Stem;
},
{
place = "{73, 121}";
type = Stem;
}
);
layerId = "1430537E-70AD-4C42-AE0B-37D64AC877DB";
paths = (
{
closed = 1;
nodes = (
"404 923 LINE",
"333 845 LINE",
"263 923 LINE",
"168 923 LINE",
"291 766 LINE",
"375 766 LINE",
"497 923 LINE"
);
},
{
closed = 1;
nodes = (
"194 306 LINE",
"536 306 LINE",
"536 408 LINE",
"194 408 LINE",
"194 598 LINE",
"567 598 LINE",
"567 703 LINE",
"73 703 LINE",
"73 0 LINE",
"576 0 LINE",
"576 106 LINE",
"194 106 LINE"
);
}
);
width = 637;
}
);
unicode = 011A;
},
